<svg width="142" height="141" viewBox="0 0 142 141" fill="none" xmlns="http://www.w3.org/2000/svg">
<path d="M108.268 44.0273C103.865 36.0974 91.7602 31 69.7549 31C60.973 31 42.4401 34.6481 36.1936 40.6298C26.477 49.9309 27.391 78.0117 32.3423 85.9415C37.2936 93.8714 47.1985 97.2688 57.0988 100.104C67.0037 102.934 86.26 110.864 86.26 110.864L81.8599 101.236C81.8599 101.236 97.2649 100.669 108.268 87.6414C119.27 74.6142 112.668 51.9571 108.268 44.0273" stroke="white"/>
<path fill-rule="evenodd" clip-rule="evenodd" d="M105.871 49.0708C101.756 41.7232 90.4398 37 69.8686 37C61.6591 37 44.3339 40.3803 38.4945 45.9228C29.4111 54.541 30.2656 80.5601 34.8942 87.9077C39.5228 95.2554 48.7822 98.4034 58.0373 101.03C67.2967 103.652 85.2981 111 85.2981 111L81.1847 102.079C81.1847 102.079 95.5858 101.554 105.871 89.4828C116.157 77.412 109.985 56.4185 105.871 49.0708Z" fill="url(#paint0_linear_6543_88845)" fill-opacity="0.12"/>
<path d="M46.5 59C50.5003 63.0001 56.5003 63.0001 60.5003 59.0007" stroke="white" stroke-linecap="round"/>
<path d="M79.5 59C83.5003 63.0001 89.5003 63.0001 93.5003 59.0007" stroke="white" stroke-linecap="round"/>
<path d="M57.5 80V80C65.199 73.1564 76.801 73.1564 84.5 80V80" stroke="white" stroke-linecap="round"/>
<defs>
<linearGradient id="paint0_linear_6543_88845" x1="71.5" y1="37" x2="71.5" y2="111" gradientUnits="userSpaceOnUse">
<stop stop-color="white"/>
<stop offset="1" stop-color="white" stop-opacity="0"/>
</linearGradient>
</defs>
</svg>
