<svg width="41" height="40" viewBox="0 0 41 40" fill="none" xmlns="http://www.w3.org/2000/svg">
<rect x="0.5" width="40" height="40" rx="20" fill="white"/>
<path d="M23.3971 19.2157L25.8 21.9608H27.7057C27.7057 22.1961 27.54 22.7451 27.1257 23.2941C26.2971 24.2353 25.3029 24.4706 24.4743 24.549C24.3914 24.549 24.3086 24.549 24.2257 24.549H24.1429C24.1429 24.549 24.1429 24.549 24.06 24.549C23.9771 24.549 23.8114 24.549 23.7286 24.549H23.6457C23.5629 24.549 23.48 24.549 23.3143 24.549C23.3143 24.549 23.3143 24.549 23.2314 24.549C23.0657 24.549 22.9 24.4706 22.9 24.4706C21.16 24.0784 19.5029 22.5882 19.5029 20C19.5029 16.8627 21.9057 15.451 23.7286 15.451H24.06H24.5571H29.1143H32.0143L34.1686 12H24.2257C19.42 12 15.4429 15.1373 15.4429 20C15.4429 21.0196 15.6914 22.0392 16.0229 22.9804C15.36 21.8824 15.0286 20.549 15.0286 19.2157C15.0286 15.8431 16.9343 13.2549 19.8343 12H12.9571L5.5 22.0392V25.0196H12.7086V28H18.5914V26.3529C18.1771 25.9608 17.8457 25.5686 17.5143 25.098C19.0886 26.8235 21.4086 28 24.3086 28H28.5343L34.5 19.2157H23.3971ZM12.9571 21.7255H9.80857L12.9571 16.8627V21.7255Z" fill="#EC1B2E"/>
</svg>
