<svg width="41" height="40" viewBox="0 0 41 40" fill="none" xmlns="http://www.w3.org/2000/svg">
<path d="M0.5 20C0.5 8.9543 9.4543 0 20.5 0C31.5457 0 40.5 8.9543 40.5 20C40.5 31.0457 31.5457 40 20.5 40C9.4543 40 0.5 31.0457 0.5 20Z" fill="white"/>
<rect x="0.5" width="40" height="40" rx="20" fill="white"/>
<path d="M26.9367 19.648C26.9258 17.7832 27.7707 16.3777 29.477 15.3414C28.5227 13.9742 27.0789 13.2223 25.1758 13.0773C23.3738 12.9352 21.4023 14.1273 20.6805 14.1273C19.9176 14.1273 18.173 13.1266 16.8004 13.1266C13.9676 13.1703 10.957 15.3852 10.957 19.8914C10.957 21.223 11.2004 22.5984 11.6871 24.0148C12.3379 25.8797 14.684 30.4488 17.1312 30.375C18.4109 30.3449 19.316 29.4672 20.9812 29.4672C22.5973 29.4672 23.434 30.375 24.8613 30.375C27.3305 30.3395 29.4523 26.1859 30.0703 24.3156C26.759 22.7543 26.9367 19.7438 26.9367 19.648ZM24.0629 11.3082C25.4492 9.66211 25.3234 8.16367 25.2824 7.625C24.0574 7.69609 22.641 8.45898 21.8344 9.39688C20.9457 10.4031 20.4234 11.6473 20.5355 13.05C21.859 13.1512 23.0676 12.4703 24.0629 11.3082Z" fill="black"/>
</svg>
