<svg width="24" height="24" viewBox="0 0 24 24" fill="none" xmlns="http://www.w3.org/2000/svg">
<g clip-path="url(#clip0_1966_76211)">
<path d="M3.21967 3.96967C3.07902 4.11032 3 4.30109 3 4.5V16.5L6.7125 13.5H11.2312H15.75C15.9489 13.5 16.1397 13.421 16.2803 13.2803C16.421 13.1397 16.5 12.9489 16.5 12.75V4.5C16.5 4.30109 16.421 4.11032 16.2803 3.96967C16.1397 3.82902 15.9489 3.75 15.75 3.75H7" stroke="currentColor" stroke-width="1.5" stroke-linecap="round" stroke-linejoin="round"/>
<path d="M7.5 13.5V17.25C7.5 17.4489 7.57902 17.6397 7.71967 17.7803C7.86032 17.921 8.05109 18 8.25 18H15M16.5 8.25H20.25C20.4489 8.25 20.6397 8.32902 20.7803 8.46967C20.921 8.61032 21 8.80109 21 9V21" stroke="currentColor" stroke-width="1.5" stroke-linecap="round" stroke-linejoin="round"/>
<path d="M2 2L21.5 22" stroke="currentColor" stroke-width="1.5" stroke-linecap="round" stroke-linejoin="round"/>
</g>
<defs>
<clipPath id="clip0_1966_76211">
<rect width="24" height="24" fill="currentColor"/>
</clipPath>
</defs>
</svg>
