<svg width="24" height="24" viewBox="0 0 24 24" fill="none" xmlns="http://www.w3.org/2000/svg">
    <path
        d="M21 17.7278C21 18.1618 20.8276 18.578 20.5207 18.8849C20.2138 19.1918 19.7976 19.3642 19.3636 19.3642H4.63614C4.20214 19.3642 3.78592 19.1918 3.47904 18.8849C3.17216 18.578 2.99976 18.1618 2.99976 17.7278V8.72768C2.99976 8.29368 3.17216 7.87746 3.47904 7.57058C3.78592 7.2637 4.20214 7.09129 4.63614 7.09129H7.90891L9.54529 4.63672H14.4544L16.0908 7.09129H19.3636C19.7976 7.09129 20.2138 7.2637 20.5207 7.57058C20.8276 7.87746 21 8.29368 21 8.72768V17.7278Z"
        stroke="currentColor" stroke-width="1.5" stroke-linecap="round" stroke-linejoin="round" />
    <path
        d="M11.9998 16.0905C13.8073 16.0905 15.2725 14.6252 15.2725 12.8177C15.2725 11.0102 13.8073 9.54492 11.9998 9.54492C10.1923 9.54492 8.72699 11.0102 8.72699 12.8177C8.72699 14.6252 10.1923 16.0905 11.9998 16.0905Z"
        stroke="currentColor" stroke-width="1.5" stroke-linecap="round" stroke-linejoin="round" />
</svg>