<svg width="16" height="16" viewBox="0 0 16 16" fill="none" xmlns="http://www.w3.org/2000/svg">
<path d="M13.9999 11.8211C13.9999 12.1105 13.885 12.3879 13.6804 12.5925C13.4758 12.7971 13.1983 12.9121 12.909 12.9121H3.09068C2.80135 12.9121 2.52387 12.7971 2.31928 12.5925C2.11469 12.3879 1.99976 12.1105 1.99976 11.8211V5.82106C1.99976 5.53173 2.11469 5.25424 2.31928 5.04966C2.52387 4.84507 2.80135 4.73013 3.09068 4.73013H5.27252L6.36344 3.09375H9.63621L10.7271 4.73013H12.909C13.1983 4.73013 13.4758 4.84507 13.6804 5.04966C13.885 5.25424 13.9999 5.53173 13.9999 5.82106V11.8211Z" stroke="white" stroke-width="1.5" stroke-linecap="round" stroke-linejoin="round"/>
<path d="M7.99972 10.7309C9.20472 10.7309 10.1816 9.75403 10.1816 8.54903C10.1816 7.34403 9.20472 6.36719 7.99972 6.36719C6.79472 6.36719 5.81787 7.34403 5.81787 8.54903C5.81787 9.75403 6.79472 10.7309 7.99972 10.7309Z" stroke="white" stroke-width="1.5" stroke-linecap="round" stroke-linejoin="round"/>
</svg>
