<svg width="218" height="218" viewBox="0 0 218 218" fill="none" xmlns="http://www.w3.org/2000/svg">
<path d="M33.6129 63.2882C32.3991 49.3298 43.4024 37.3281 57.4135 37.3281H160.585C174.596 37.3281 185.6 49.3298 184.386 63.2882L176.595 152.877C175.522 165.223 165.187 174.698 152.795 174.698H65.2038C52.8117 174.698 42.4767 165.223 41.4032 152.877L33.6129 63.2882Z" fill="#272728"/>
<path d="M34.5897 75.3581C33.2956 61.7707 43.9804 50.02 57.6293 50.02H160.369C174.018 50.02 184.703 61.7707 183.409 75.3581L176.014 153.002C174.883 164.88 164.907 173.952 152.975 173.952H65.0239C53.0919 173.952 43.1156 164.88 41.9843 153.002L34.5897 75.3581Z" fill="#141414" stroke="#B0B0B8" stroke-width="1.49315"/>
<path fill-rule="evenodd" clip-rule="evenodd" d="M96.5438 88.7331V95.49H94.8546C91.1228 95.49 88.0977 98.5152 88.0977 102.247V118.013C88.0977 121.745 91.1228 124.77 94.8546 124.77H126.387C130.119 124.77 133.144 121.745 133.144 118.013V102.247C133.144 98.5152 130.119 95.49 126.387 95.49H124.698V88.7331C124.698 84.9997 123.214 81.4192 120.575 78.7793C117.935 76.1393 114.354 74.6562 110.621 74.6562C106.887 74.6562 103.307 76.1393 100.667 78.7793C98.0269 81.4192 96.5438 84.9997 96.5438 88.7331ZM110.621 80.287C108.381 80.287 106.232 81.1769 104.648 82.7608C103.064 84.3448 102.175 86.4931 102.175 88.7331V95.49H119.067V88.7331C119.067 86.4931 118.177 84.3448 116.593 82.7608C115.009 81.1769 112.861 80.287 110.621 80.287ZM115.126 106.751C115.126 108.419 114.219 109.875 112.872 110.654V115.761C112.872 117.005 111.864 118.013 110.62 118.013C109.376 118.013 108.367 117.005 108.367 115.761V110.653C107.022 109.874 106.116 108.418 106.116 106.751C106.116 104.264 108.133 102.247 110.621 102.247C113.109 102.247 115.126 104.264 115.126 106.751Z" fill="url(#paint0_linear_2049_85617)"/>
<rect x="10.4531" y="140.355" width="197.096" height="41.8082" rx="14.1103" fill="#272728"/>
<path d="M97.0586 179.176H122.442L110.116 194.107L97.0586 179.176Z" fill="#272728"/>
<path d="M36.4325 166.559L36.6385 161.17L31.8492 164.061L30.6133 162.003L35.66 159.504L30.6133 157.006L31.8492 154.948L36.6385 157.839L36.4325 152.449H38.9044L38.6984 157.839L43.4876 154.948L44.7236 157.006L39.6768 159.504L44.7236 162.003L43.4876 164.061L38.6984 161.17L38.9044 166.559H36.4325Z" fill="white"/>
<path d="M60.62 166.559L60.826 161.17L56.0367 164.061L54.8008 162.003L59.8475 159.504L54.8008 157.006L56.0367 154.948L60.826 157.839L60.62 152.449H63.0919L62.8859 157.839L67.6751 154.948L68.9111 157.006L63.8643 159.504L68.9111 162.003L67.6751 164.061L62.8859 161.17L63.0919 166.559H60.62Z" fill="white"/>
<path d="M84.8114 166.559L85.0174 161.17L80.2281 164.061L78.9922 162.003L84.0389 159.504L78.9922 157.006L80.2281 154.948L85.0174 157.839L84.8114 152.449H87.2833L87.0773 157.839L91.8665 154.948L93.1025 157.006L88.0557 159.504L93.1025 162.003L91.8665 164.061L87.0773 161.17L87.2833 166.559H84.8114Z" fill="white"/>
<path d="M108.999 166.559L109.205 161.17L104.416 164.061L103.18 162.003L108.226 159.504L103.18 157.006L104.416 154.948L109.205 157.839L108.999 152.449H111.471L111.265 157.839L116.054 154.948L117.29 157.006L112.243 159.504L117.29 162.003L116.054 164.061L111.265 161.17L111.471 166.559H108.999Z" fill="white"/>
<path d="M133.19 166.559L133.396 161.17L128.607 164.061L127.371 162.003L132.418 159.504L127.371 157.006L128.607 154.948L133.396 157.839L133.19 152.449H135.662L135.456 157.839L140.245 154.948L141.481 157.006L136.435 159.504L141.481 162.003L140.245 164.061L135.456 161.17L135.662 166.559H133.19Z" fill="white"/>
<path d="M157.378 166.559L157.584 161.17L152.795 164.061L151.559 162.003L156.605 159.504L151.559 157.006L152.795 154.948L157.584 157.839L157.378 152.449H159.85L159.644 157.839L164.433 154.948L165.669 157.006L160.622 159.504L165.669 162.003L164.433 164.061L159.644 161.17L159.85 166.559H157.378Z" fill="white"/>
<path d="M181.565 166.559L181.771 161.17L176.982 164.061L175.746 162.003L180.793 159.504L175.746 157.006L176.982 154.948L181.771 157.839L181.565 152.449H184.037L183.831 157.839L188.62 154.948L189.856 157.006L184.81 159.504L189.856 162.003L188.62 164.061L183.831 161.17L184.037 166.559H181.565Z" fill="white"/>
<defs>
<linearGradient id="paint0_linear_2049_85617" x1="110.621" y1="58.2316" x2="110.621" y2="144.45" gradientUnits="userSpaceOnUse">
<stop stop-color="#B0B0B8"/>
<stop offset="1" stop-color="#B0B0B8" stop-opacity="0"/>
</linearGradient>
</defs>
</svg>
