<svg width="25" height="24" viewBox="0 0 25 24" fill="none" xmlns="http://www.w3.org/2000/svg">
    <path stroke="currentColor" d="M12.8749 20.25H4.97182C4.87667 20.2513 4.78223 20.2334 4.69408 20.1976C4.60593 20.1618 4.52585 20.1087 4.45856 20.0414C4.39128 19.9741 4.33815 19.894 4.30232 19.8059C4.26649 19.7177 4.24868 19.6233 4.24994 19.5281V11.625C4.24994 9.33751 5.15864 7.14371 6.77614 5.5262C8.39365 3.9087 10.5874 3 12.8749 3V3C14.0076 3 15.1292 3.22309 16.1756 3.65654C17.222 4.08999 18.1728 4.7253 18.9737 5.5262C19.7746 6.32711 20.41 7.27792 20.8434 8.32436C21.2768 9.37079 21.4999 10.4923 21.4999 11.625V11.625C21.4999 12.7577 21.2768 13.8792 20.8434 14.9256C20.41 15.9721 19.7746 16.9229 18.9737 17.7238C18.1728 18.5247 17.222 19.16 16.1756 19.5935C15.1292 20.0269 14.0076 20.25 12.8749 20.25V20.25Z" stroke-width="1.5" stroke-linecap="round" stroke-linejoin="round"/>
    <path stroke="currentColor" d="M12.875 13.125C13.4963 13.125 14 12.6213 14 12C14 11.3787 13.4963 10.875 12.875 10.875C12.2537 10.875 11.75 11.3787 11.75 12C11.75 12.6213 12.2537 13.125 12.875 13.125Z" fill="currentColor"/>
    <path stroke="currentColor" d="M8.375 13.125C8.99632 13.125 9.5 12.6213 9.5 12C9.5 11.3787 8.99632 10.875 8.375 10.875C7.75368 10.875 7.25 11.3787 7.25 12C7.25 12.6213 7.75368 13.125 8.375 13.125Z" fill="currentColor"/>
    <path stroke="currentColor" d="M17.375 13.125C17.9963 13.125 18.5 12.6213 18.5 12C18.5 11.3787 17.9963 10.875 17.375 10.875C16.7537 10.875 16.25 11.3787 16.25 12C16.25 12.6213 16.7537 13.125 17.375 13.125Z" fill="currentColor"/>
</svg>
