<svg width="485" height="535" viewBox="0 0 485 535" fill="none" xmlns="http://www.w3.org/2000/svg">
<g style="mix-blend-mode:color-dodge">
<path d="M250.504 396C360.134 396 449 307.381 449 198.004C449 88.6265 360.134 0 250.504 0C140.874 0 52 88.65 52 198.004C52 307.358 140.874 396 250.504 396Z" fill="url(#paint0_radial_2049_100723)"/>
</g>
<g style="mix-blend-mode:color-dodge">
<path d="M250.503 333C325.338 333 386 272.578 386 198.003C386 123.427 325.338 63 250.503 63C175.667 63 115 123.443 115 198.003C115 272.562 175.667 333 250.503 333Z" fill="url(#paint1_radial_2049_100723)"/>
<path d="M250.503 333C325.338 333 386 272.578 386 198.003C386 123.427 325.338 63 250.503 63C175.667 63 115 123.443 115 198.003C115 272.562 175.667 333 250.503 333Z" stroke="#272728" stroke-width="1.63723" stroke-miterlimit="10"/>
</g>
<path fill-rule="evenodd" clip-rule="evenodd" d="M239 534.953H290V296.953H239V534.953Z" fill="url(#paint2_linear_2049_100723)"/>
<path fill-rule="evenodd" clip-rule="evenodd" d="M181.828 124.164C144.265 124.164 113.811 154.577 113.811 192.094V296.743H249.846V192.094C249.846 154.577 219.394 124.164 181.828 124.164Z" fill="url(#paint3_radial_2049_100723)"/>
<path fill-rule="evenodd" clip-rule="evenodd" d="M280.938 165.039V252.772C280.938 258.906 275.919 263.916 269.78 263.916H108.933C102.791 263.916 97.8027 258.906 97.8027 252.772V165.039L189.369 218.959L280.938 165.039Z" fill="#F79831"/>
<path fill-rule="evenodd" clip-rule="evenodd" d="M277.842 260.426L218.908 201.566L189.371 218.96L159.821 201.559L100.883 260.423C102.911 262.564 105.76 263.917 108.932 263.917H269.779C272.953 263.917 275.807 262.566 277.842 260.426Z" fill="url(#paint4_linear_2049_100723)"/>
<path fill-rule="evenodd" clip-rule="evenodd" d="M189.371 226.993L225.597 208.245L218.908 201.566L189.371 218.96L159.821 201.559L153.193 208.18L189.371 226.993Z" fill="#F79831"/>
<path fill-rule="evenodd" clip-rule="evenodd" d="M97.8027 165.039H280.938L189.371 218.959L97.8027 165.039Z" fill="#F9B630"/>
<path fill-rule="evenodd" clip-rule="evenodd" d="M354.625 124.164H181.828C219.394 124.164 249.842 154.575 249.842 192.09V296.739H422.659V192.09C422.659 154.575 392.19 124.164 354.625 124.164Z" fill="url(#paint5_linear_2049_100723)"/>
<path fill-rule="evenodd" clip-rule="evenodd" d="M114 297H423V289H114V297Z" fill="url(#paint6_linear_2049_100723)"/>
<g filter="url(#filter0_d_2049_100723)">
<path fill-rule="evenodd" clip-rule="evenodd" d="M226.068 88.0285C226.068 90.8051 223.815 93.0552 221.033 93.0552C218.253 93.0552 216 90.8051 216 88.0285C216 85.252 218.253 83 221.033 83C223.815 83 226.068 85.252 226.068 88.0285Z" fill="#00CDB4"/>
</g>
<path fill-rule="evenodd" clip-rule="evenodd" d="M430.625 206.805C430.625 203.046 427.575 200 423.812 200C420.048 200 417 203.046 417 206.805C417 210.561 420.048 213.607 423.812 213.607C427.575 213.607 430.625 210.561 430.625 206.805Z" fill="#00CDB4"/>
<g filter="url(#filter1_d_2049_100723)">
<path fill-rule="evenodd" clip-rule="evenodd" d="M391.357 379.67C391.357 375.986 388.366 373 384.676 373C380.99 373 378 375.986 378 379.67C378 383.355 380.99 386.341 384.676 386.341C388.366 386.341 391.357 383.355 391.357 379.67Z" fill="#00CDB4"/>
</g>
<path fill-rule="evenodd" clip-rule="evenodd" d="M205.011 324.264C205.011 321.066 202.415 318.473 199.213 318.473C196.01 318.473 193.416 321.066 193.416 324.264C193.416 327.46 196.01 330.053 199.213 330.053C202.415 330.053 205.011 327.46 205.011 324.264Z" fill="#00CDB4"/>
<g filter="url(#filter2_d_2049_100723)">
<path fill-rule="evenodd" clip-rule="evenodd" d="M32.4656 238.224C32.4656 234.786 29.6761 232 26.2337 232C22.7914 232 20 234.786 20 238.224C20 241.662 22.7914 244.45 26.2337 244.45C29.6761 244.45 32.4656 241.662 32.4656 238.224Z" fill="#00CDB4"/>
</g>
<g filter="url(#filter3_d_2049_100723)">
<path fill-rule="evenodd" clip-rule="evenodd" d="M136.284 130.388C136.284 98.3172 110.253 72.3203 78.1429 72.3203C46.0324 72.3203 20 98.3172 20 130.388C20 162.457 46.0324 188.454 78.1429 188.454C110.253 188.454 136.284 162.457 136.284 130.388Z" fill="url(#paint7_radial_2049_100723)"/>
</g>
<path fill-rule="evenodd" clip-rule="evenodd" d="M102.359 148.498C102.337 151.615 99.7873 154.124 96.6658 154.103L56.6482 153.813C53.5267 153.792 51.0129 151.246 51.0373 148.127L51.2418 114.559C51.2643 111.441 53.8137 108.931 56.9352 108.953L96.9528 109.242C100.074 109.264 102.588 111.81 102.564 114.928L102.359 148.498ZM103.534 108.257C101.607 106.302 99.0337 105.218 96.2873 105.197L57.5885 104.918C51.9607 104.918 47.3478 109.493 47.3065 115.117L47.1077 147.514C47.0889 150.255 48.1394 152.841 50.0679 154.797C51.9945 156.749 54.5683 157.835 57.3147 157.856C57.3147 157.856 96.0134 158.133 96.0153 158.133C101.641 158.133 106.252 153.562 106.295 147.936L106.492 115.541C106.513 112.798 105.463 110.211 103.534 108.257Z" fill="white"/>
<path fill-rule="evenodd" clip-rule="evenodd" d="M69.7465 143.013L87.8306 134.262C89.1062 133.644 89.1193 131.832 87.8512 131.195L69.8984 122.184C68.7654 121.616 67.426 122.433 67.4166 123.699L67.2871 141.462C67.2796 142.73 68.6059 143.566 69.7465 143.013Z" fill="white"/>
<g filter="url(#filter4_d_2049_100723)">
<path fill-rule="evenodd" clip-rule="evenodd" d="M376.282 307.926C376.282 279.495 353.202 256.445 324.735 256.445C296.267 256.445 273.188 279.495 273.188 307.926C273.188 336.358 296.267 359.408 324.735 359.408C353.202 359.408 376.282 336.358 376.282 307.926Z" fill="url(#paint8_radial_2049_100723)"/>
</g>
<path fill-rule="evenodd" clip-rule="evenodd" d="M297.59 329.195L297.486 287.41L352.937 287.273L353.04 329.059L297.59 329.195ZM356.247 286.888C356.243 285.271 354.924 283.961 353.305 283.965L297.102 284.103C295.483 284.109 294.174 285.422 294.178 287.039L294.281 329.578C294.285 331.194 295.602 332.504 297.222 332.5L353.426 332.36C355.044 332.356 356.354 331.041 356.35 329.424L356.247 286.888Z" fill="white"/>
<path fill-rule="evenodd" clip-rule="evenodd" d="M349.61 306.751L343.991 301.855L331.582 312.78L324.999 307.671L318.707 313.835L307.994 302.796L300.916 309.338L300.925 313.737L307.994 307.201L318.707 318.243L324.999 312.079L329.085 315.249L326.091 318.224H330.511L331.567 317.19V317.173L331.582 317.185L343.991 306.262L349.61 311.159V306.751Z" fill="white"/>
<path fill-rule="evenodd" clip-rule="evenodd" d="M318.319 302.795C316.514 302.795 315.051 301.336 315.051 299.533C315.051 297.729 316.514 296.27 318.319 296.27C320.123 296.27 321.587 297.729 321.587 299.533C321.587 301.336 320.123 302.795 318.319 302.795ZM318.318 293.355C314.904 293.355 312.133 296.119 312.133 299.532C312.133 302.942 314.904 305.708 318.318 305.708C321.732 305.708 324.503 302.942 324.503 299.532C324.503 296.119 321.732 293.355 318.318 293.355Z" fill="white"/>
<g filter="url(#filter5_d_2049_100723)">
<path fill-rule="evenodd" clip-rule="evenodd" d="M464.704 139.583C464.704 112.505 442.724 90.5547 415.611 90.5547C388.498 90.5547 366.518 112.505 366.518 139.583C366.518 166.661 388.498 188.613 415.611 188.613C442.724 188.613 464.704 166.661 464.704 139.583Z" fill="url(#paint9_radial_2049_100723)"/>
</g>
<path fill-rule="evenodd" clip-rule="evenodd" d="M403.561 119.818L403.557 120.404L403.527 124.41L403.371 145.914C400.739 145.047 397.308 145.245 393.986 146.705C388.289 149.208 385.085 154.442 386.829 158.403C388.572 162.36 394.603 163.54 400.298 161.037C404.955 158.991 407.941 155.119 407.926 151.611H407.93L408.134 123.589L430.177 119.657L430.019 141.603C427.387 140.736 423.956 140.934 420.634 142.394C414.936 144.897 411.732 150.133 413.475 154.09C415.22 158.047 421.249 159.227 426.944 156.726C431.6 154.68 434.589 150.808 434.572 147.3H434.578L434.784 118.836L434.801 116.127L434.816 114.242L403.561 119.818Z" fill="white"/>
<defs>
<filter id="filter0_d_2049_100723" x="196" y="63" width="50.0684" height="50.0547" filterUnits="userSpaceOnUse" color-interpolation-filters="sRGB">
<feFlood flood-opacity="0" result="BackgroundImageFix"/>
<feColorMatrix in="SourceAlpha" type="matrix" values="0 0 0 0 0 0 0 0 0 0 0 0 0 0 0 0 0 0 127 0" result="hardAlpha"/>
<feOffset/>
<feGaussianBlur stdDeviation="10"/>
<feComposite in2="hardAlpha" operator="out"/>
<feColorMatrix type="matrix" values="0 0 0 0 0 0 0 0 0 0.803922 0 0 0 0 0.705882 0 0 0 0.6 0"/>
<feBlend mode="normal" in2="BackgroundImageFix" result="effect1_dropShadow_2049_100723"/>
<feBlend mode="normal" in="SourceGraphic" in2="effect1_dropShadow_2049_100723" result="shape"/>
</filter>
<filter id="filter1_d_2049_100723" x="358" y="353" width="53.3574" height="53.3398" filterUnits="userSpaceOnUse" color-interpolation-filters="sRGB">
<feFlood flood-opacity="0" result="BackgroundImageFix"/>
<feColorMatrix in="SourceAlpha" type="matrix" values="0 0 0 0 0 0 0 0 0 0 0 0 0 0 0 0 0 0 127 0" result="hardAlpha"/>
<feOffset/>
<feGaussianBlur stdDeviation="10"/>
<feComposite in2="hardAlpha" operator="out"/>
<feColorMatrix type="matrix" values="0 0 0 0 0 0 0 0 0 0.803922 0 0 0 0 0.705882 0 0 0 0.6 0"/>
<feBlend mode="normal" in2="BackgroundImageFix" result="effect1_dropShadow_2049_100723"/>
<feBlend mode="normal" in="SourceGraphic" in2="effect1_dropShadow_2049_100723" result="shape"/>
</filter>
<filter id="filter2_d_2049_100723" x="0" y="212" width="52.4648" height="52.4492" filterUnits="userSpaceOnUse" color-interpolation-filters="sRGB">
<feFlood flood-opacity="0" result="BackgroundImageFix"/>
<feColorMatrix in="SourceAlpha" type="matrix" values="0 0 0 0 0 0 0 0 0 0 0 0 0 0 0 0 0 0 127 0" result="hardAlpha"/>
<feOffset/>
<feGaussianBlur stdDeviation="10"/>
<feComposite in2="hardAlpha" operator="out"/>
<feColorMatrix type="matrix" values="0 0 0 0 0 0 0 0 0 0.803922 0 0 0 0 0.705882 0 0 0 0.6 0"/>
<feBlend mode="normal" in2="BackgroundImageFix" result="effect1_dropShadow_2049_100723"/>
<feBlend mode="normal" in="SourceGraphic" in2="effect1_dropShadow_2049_100723" result="shape"/>
</filter>
<filter id="filter3_d_2049_100723" x="0" y="52.3203" width="156.283" height="156.133" filterUnits="userSpaceOnUse" color-interpolation-filters="sRGB">
<feFlood flood-opacity="0" result="BackgroundImageFix"/>
<feColorMatrix in="SourceAlpha" type="matrix" values="0 0 0 0 0 0 0 0 0 0 0 0 0 0 0 0 0 0 127 0" result="hardAlpha"/>
<feOffset/>
<feGaussianBlur stdDeviation="10"/>
<feComposite in2="hardAlpha" operator="out"/>
<feColorMatrix type="matrix" values="0 0 0 0 0 0 0 0 0 0.803922 0 0 0 0 0.705882 0 0 0 0.6 0"/>
<feBlend mode="normal" in2="BackgroundImageFix" result="effect1_dropShadow_2049_100723"/>
<feBlend mode="normal" in="SourceGraphic" in2="effect1_dropShadow_2049_100723" result="shape"/>
</filter>
<filter id="filter4_d_2049_100723" x="253.188" y="236.445" width="143.094" height="142.965" filterUnits="userSpaceOnUse" color-interpolation-filters="sRGB">
<feFlood flood-opacity="0" result="BackgroundImageFix"/>
<feColorMatrix in="SourceAlpha" type="matrix" values="0 0 0 0 0 0 0 0 0 0 0 0 0 0 0 0 0 0 127 0" result="hardAlpha"/>
<feOffset/>
<feGaussianBlur stdDeviation="10"/>
<feComposite in2="hardAlpha" operator="out"/>
<feColorMatrix type="matrix" values="0 0 0 0 0 0 0 0 0 0.803922 0 0 0 0 0.705882 0 0 0 0.6 0"/>
<feBlend mode="normal" in2="BackgroundImageFix" result="effect1_dropShadow_2049_100723"/>
<feBlend mode="normal" in="SourceGraphic" in2="effect1_dropShadow_2049_100723" result="shape"/>
</filter>
<filter id="filter5_d_2049_100723" x="346.518" y="70.5547" width="138.188" height="138.059" filterUnits="userSpaceOnUse" color-interpolation-filters="sRGB">
<feFlood flood-opacity="0" result="BackgroundImageFix"/>
<feColorMatrix in="SourceAlpha" type="matrix" values="0 0 0 0 0 0 0 0 0 0 0 0 0 0 0 0 0 0 127 0" result="hardAlpha"/>
<feOffset/>
<feGaussianBlur stdDeviation="10"/>
<feComposite in2="hardAlpha" operator="out"/>
<feColorMatrix type="matrix" values="0 0 0 0 0 0 0 0 0 0.803922 0 0 0 0 0.705882 0 0 0 0.6 0"/>
<feBlend mode="normal" in2="BackgroundImageFix" result="effect1_dropShadow_2049_100723"/>
<feBlend mode="normal" in="SourceGraphic" in2="effect1_dropShadow_2049_100723" result="shape"/>
</filter>
<radialGradient id="paint0_radial_2049_100723" cx="0" cy="0" r="1" gradientUnits="userSpaceOnUse" gradientTransform="translate(250.5 198) rotate(90) scale(279.168 279.873)">
<stop offset="0.505208" stop-color="#070707" stop-opacity="0"/>
<stop offset="1" stop-color="white"/>
</radialGradient>
<radialGradient id="paint1_radial_2049_100723" cx="0" cy="0" r="1" gradientUnits="userSpaceOnUse" gradientTransform="translate(250.5 198) rotate(90) scale(190.342 191.047)">
<stop offset="0.46875" stop-color="#070707" stop-opacity="0"/>
<stop offset="1" stop-color="white"/>
</radialGradient>
<linearGradient id="paint2_linear_2049_100723" x1="268.578" y1="475.5" x2="268.578" y2="306.5" gradientUnits="userSpaceOnUse">
<stop stop-color="#0D0D0D" stop-opacity="0"/>
<stop offset="1"/>
</linearGradient>
<radialGradient id="paint3_radial_2049_100723" cx="0" cy="0" r="1" gradientUnits="userSpaceOnUse" gradientTransform="translate(234 199.5) rotate(177.298) scale(222.748 184.606)">
<stop offset="0.41055" stop-color="#0D0D0D"/>
<stop offset="1" stop-color="#07C5AE"/>
</radialGradient>
<linearGradient id="paint4_linear_2049_100723" x1="189.362" y1="227.5" x2="189.362" y2="263.917" gradientUnits="userSpaceOnUse">
<stop stop-color="#F9B630"/>
<stop offset="1" stop-color="#F9B630" stop-opacity="0"/>
</linearGradient>
<linearGradient id="paint5_linear_2049_100723" x1="321.5" y1="291.5" x2="197" y2="54.5" gradientUnits="userSpaceOnUse">
<stop offset="0.266792" stop-color="#0D0D0D"/>
<stop offset="1" stop-color="#07C5AE"/>
</linearGradient>
<linearGradient id="paint6_linear_2049_100723" x1="257" y1="302" x2="257" y2="282.5" gradientUnits="userSpaceOnUse">
<stop offset="0.193713" stop-color="#0D0D0D"/>
<stop offset="1" stop-color="#07C5AE"/>
</linearGradient>
<radialGradient id="paint7_radial_2049_100723" cx="0" cy="0" r="1" gradientUnits="userSpaceOnUse" gradientTransform="translate(64.589 168.584) rotate(-46.1145) scale(125.651 108.107)">
<stop offset="0.400003" stop-color="#0D0D0D"/>
<stop offset="1" stop-color="#07C5AE"/>
</radialGradient>
<radialGradient id="paint8_radial_2049_100723" cx="0" cy="0" r="1" gradientUnits="userSpaceOnUse" gradientTransform="translate(312.719 341.791) rotate(-46.115) scale(111.399 95.8457)">
<stop offset="0.400003" stop-color="#0D0D0D"/>
<stop offset="1" stop-color="#07C5AE"/>
</radialGradient>
<radialGradient id="paint9_radial_2049_100723" cx="0" cy="0" r="1" gradientUnits="userSpaceOnUse" gradientTransform="translate(404.167 171.835) rotate(-46.1139) scale(106.095 91.2816)">
<stop offset="0.400003" stop-color="#0D0D0D"/>
<stop offset="1" stop-color="#07C5AE"/>
</radialGradient>
</defs>
</svg>
