<svg width="24" height="24" viewBox="0 0 24 24" fill="none" xmlns="http://www.w3.org/2000/svg">
<g clip-path="url(#clip0_4604_32039)">
<path d="M4.22814 18.3736C4.25213 18.4722 4.29564 18.565 4.35609 18.6465C4.41654 18.728 4.49272 18.7966 4.58011 18.8481C4.66751 18.8997 4.76435 18.9332 4.86492 18.9467C4.96548 18.9602 5.06774 18.9534 5.16564 18.9267C9.63469 17.6893 14.356 17.6893 18.825 18.9267C18.9229 18.9534 19.0252 18.9602 19.1257 18.9467C19.2263 18.9332 19.3232 18.8997 19.4105 18.8481C19.4979 18.7966 19.5741 18.728 19.6346 18.6465C19.695 18.565 19.7385 18.4722 19.7625 18.3736L22.1531 8.2205C22.186 8.0846 22.1801 7.94223 22.1364 7.80946C22.0926 7.67669 22.0125 7.5588 21.9053 7.46911C21.798 7.37942 21.6678 7.32148 21.5294 7.30185C21.391 7.28222 21.2498 7.30167 21.1219 7.358L16.3781 9.46738C16.2063 9.54306 16.0124 9.55236 15.8341 9.49349C15.6558 9.43462 15.5056 9.31176 15.4125 9.14863L12.6563 4.17988C12.5914 4.06265 12.4963 3.96494 12.3809 3.8969C12.2655 3.82885 12.134 3.79297 12 3.79297C11.866 3.79297 11.7345 3.82885 11.6191 3.8969C11.5037 3.96494 11.4086 4.06265 11.3438 4.17988L8.58752 9.14863C8.49447 9.31176 8.34427 9.43462 8.16593 9.49349C7.9876 9.55236 7.79377 9.54306 7.62189 9.46738L2.87814 7.358C2.75019 7.30167 2.60903 7.28222 2.47061 7.30185C2.33218 7.32148 2.20201 7.37942 2.09476 7.46911C1.98752 7.5588 1.90748 7.67669 1.86368 7.80946C1.81988 7.94223 1.81407 8.0846 1.84689 8.2205L4.22814 18.3736Z" stroke="#B0B0B8" stroke-width="1.5" stroke-linecap="round" stroke-linejoin="round"/>
<path d="M9 15.1578C10.9942 14.9422 13.0058 14.9422 15 15.1578" stroke="#B0B0B8" stroke-width="1.5" stroke-linecap="round" stroke-linejoin="round"/>
</g>
<defs>
<clipPath id="clip0_4604_32039">
<rect width="24" height="24" fill="white"/>
</clipPath>
</defs>
</svg>
