<svg width="338" height="125" viewBox="0 0 338 125" fill="none" xmlns="http://www.w3.org/2000/svg">
    <rect width="338" height="125" fill="#141414" />
    <g opacity="0.1">
        <path
            d="M191.912 46.8302C189.207 42.0637 181.764 39 168.232 39C162.836 39 151.44 41.1942 147.601 44.7878C141.627 50.3775 142.187 67.2547 145.232 72.0212C148.276 76.7878 154.365 78.8302 160.453 80.5331C166.542 82.2334 178.382 87 178.382 87L175.678 81.2122C175.678 81.2122 185.148 80.8727 191.914 73.0424C198.678 65.2122 194.619 51.5942 191.912 46.8302ZM177.183 63.2727C172.564 66.6707 164.727 71.8797 164.727 68.1524V54.0559C164.727 47.7331 172.84 53.9299 177.424 57.935C179.07 59.3756 178.944 61.9788 177.183 63.2727Z"
            fill="#828282" />
        <g opacity="0.2">
            <path
                d="M191.912 46.8302C189.207 42.0637 181.764 39 168.232 39C162.836 39 151.44 41.1942 147.601 44.7878C141.627 50.3775 142.187 67.2547 145.232 72.0212C148.276 76.7878 154.365 78.8302 160.453 80.5331C166.542 82.2334 178.382 87 178.382 87L175.678 81.2122C175.678 81.2122 185.148 80.8727 191.914 73.0424C198.678 65.2122 194.619 51.5942 191.912 46.8302ZM177.183 63.2727C172.564 66.6707 164.727 71.8797 164.727 68.1524V54.0559C164.727 47.7331 172.84 53.9299 177.424 57.935C179.07 59.3756 178.944 61.9788 177.183 63.2727Z"
                fill="white" />
        </g>
    </g>
</svg>