<svg width="376" height="716" viewBox="0 0 376 716" fill="none" xmlns="http://www.w3.org/2000/svg">
    <rect width="376" height="716" fill="#141414" />
    <g opacity="0.1">
        <path
            d="M225.519 331.05C221.012 323.106 208.606 318 186.053 318C177.059 318 158.067 321.657 151.669 327.646C141.712 336.962 142.645 365.091 147.719 373.035C152.793 380.98 162.941 384.384 173.089 387.222C183.237 390.056 202.97 398 202.97 398L198.463 388.354C198.463 388.354 214.247 387.788 225.524 374.737C236.796 361.687 230.031 338.99 225.519 331.05ZM200.972 358.454C193.274 364.118 180.212 372.8 180.212 366.587V343.093C180.212 332.555 193.734 342.883 201.373 349.558C204.116 351.959 203.907 356.298 200.972 358.454Z"
            fill="#828282" />
        <g opacity="0.2">
            <path
                d="M225.519 331.05C221.012 323.106 208.606 318 186.053 318C177.059 318 158.067 321.657 151.669 327.646C141.712 336.962 142.645 365.091 147.719 373.035C152.793 380.98 162.941 384.384 173.089 387.222C183.237 390.056 202.97 398 202.97 398L198.463 388.354C198.463 388.354 214.247 387.788 225.524 374.737C236.796 361.687 230.031 338.99 225.519 331.05ZM200.972 358.454C193.274 364.118 180.212 372.8 180.212 366.587V343.093C180.212 332.555 193.734 342.883 201.373 349.558C204.116 351.959 203.907 356.298 200.972 358.454Z"
                fill="white" />
        </g>
    </g>
</svg>