<svg
  width="61"
  height="60"
  viewBox="0 0 61 60"
  fill="none"
  xmlns="http://www.w3.org/2000/svg"
>
<path
    fill-rule="evenodd"
    clip-rule="evenodd"
    d="M55.5002 30C55.5002 37.5335 52.1682 44.2885 46.8972 48.872C42.508 52.689 36.774 55 30.5002 55C24.2265 55 18.4926 52.689 14.1032 48.872C8.83237 44.2885 5.50024 37.5335 5.50024 30C5.50024 16.1929 16.6931 5 30.5002 5C44.3072 5 55.5002 16.1929 55.5002 30ZM38.0002 22.5C38.0002 18.3579 34.6425 15 30.5002 15C26.358 15 23.0002 18.3579 23.0002 22.5C23.0002 26.6423 26.358 30 30.5002 30C34.6425 30 38.0002 26.6423 38.0002 22.5ZM30.5002 35C34.782 35 37.5977 37.2915 39.5832 39.8388C41.0645 41.7393 40.5547 44.5268 38.4057 45.6168C36.0312 46.8213 33.345 47.5 30.5002 47.5C27.6555 47.5 24.9693 46.8213 22.5947 45.6168C20.4458 44.5268 19.9359 41.739 21.4172 39.8388C23.4026 37.2915 26.2185 35 30.5002 35Z"
    fill="#009DFD"
  />
<g clip-path="url(#clip0_3361_84236)">
<rect x="0.5" width="60" height="60" rx="30" fill="#717278" />
<rect x="18.5" y="10" width="24" height="24" rx="12" fill="#B0B0B8" />
<rect x="-14.5" y="40" width="90" height="90" rx="45" fill="#B0B0B8" />
</g>
<defs>
<clipPath id="clip0_3361_84236">
<rect x="0.5" width="60" height="60" rx="30" fill="white" />
</clipPath>
</defs>
</svg>
