<svg width="375" height="198" viewBox="0 0 375 198" fill="none" xmlns="http://www.w3.org/2000/svg">
    <rect width="375" height="198" fill="#141414"/>
    <g opacity="0.1">
    <path d="M218.216 77.4403C214.61 71.0849 204.685 67 186.642 67C179.448 67 164.254 69.9256 159.135 74.717C151.17 82.17 151.916 104.673 155.975 111.028C160.035 117.384 168.153 120.107 176.271 122.377C184.389 124.645 200.176 131 200.176 131L196.57 123.283C196.57 123.283 209.198 122.83 218.219 112.39C227.237 101.95 221.825 83.7923 218.216 77.4403ZM198.578 99.3636C192.419 103.894 181.97 110.84 181.97 105.87V87.0746C181.97 78.6442 192.787 86.9065 198.898 92.2467C201.093 94.1674 200.926 97.6384 198.578 99.3636Z" fill="#828282"/>
    <g opacity="0.2">
    <path d="M218.216 77.4403C214.61 71.0849 204.685 67 186.642 67C179.448 67 164.254 69.9256 159.135 74.717C151.17 82.17 151.916 104.673 155.975 111.028C160.035 117.384 168.153 120.107 176.271 122.377C184.389 124.645 200.176 131 200.176 131L196.57 123.283C196.57 123.283 209.198 122.83 218.219 112.39C227.237 101.95 221.825 83.7923 218.216 77.4403ZM198.578 99.3636C192.419 103.894 181.97 110.84 181.97 105.87V87.0746C181.97 78.6442 192.787 86.9065 198.898 92.2467C201.093 94.1674 200.926 97.6384 198.578 99.3636Z" fill="white"/>
    </g>
    </g>
    </svg>
    