<svg width="24" height="24" viewBox="0 0 24 24" fill="none" xmlns="http://www.w3.org/2000/svg">
<path d="M4 6.59961H5.8H20.2" stroke="currentColor" stroke-width="1.5" stroke-linecap="round" stroke-linejoin="round"/>
<path d="M8.50005 6.6V4.8C8.50005 4.32261 8.68969 3.86477 9.02726 3.52721C9.36482 3.18964 9.82266 3 10.3 3H13.9C14.3774 3 14.8353 3.18964 15.1728 3.52721C15.5104 3.86477 15.7 4.32261 15.7 4.8V6.6M18.4 6.6V19.2C18.4 19.6774 18.2104 20.1352 17.8728 20.4728C17.5353 20.8104 17.0774 21 16.6 21H7.60005C7.12266 21 6.66482 20.8104 6.32726 20.4728C5.98969 20.1352 5.80005 19.6774 5.80005 19.2V6.6H18.4Z" stroke="currentColor" stroke-width="1.5" stroke-linecap="round" stroke-linejoin="round"/>
<path d="M10.3 11.0996V16.4996" stroke="currentColor" stroke-width="1.5" stroke-linecap="round" stroke-linejoin="round"/>
<path d="M13.8999 11.0996V16.4996" stroke="currentColor" stroke-width="1.5" stroke-linecap="round" stroke-linejoin="round"/>
</svg>
