<svg width="20" height="20" viewBox="0 0 20 20" fill="none" xmlns="http://www.w3.org/2000/svg">
<path d="M14.6168 1.92391C14.8552 1.68549 15.1383 1.49636 15.4498 1.36732C15.7613 1.23829 16.0952 1.17188 16.4324 1.17188C16.7696 1.17187 17.1035 1.23829 17.415 1.36732C17.7265 1.49636 18.0095 1.68549 18.248 1.92391C18.4864 2.16234 18.6755 2.44539 18.8046 2.7569C18.9336 3.06842 19 3.4023 19 3.73949C19 4.07667 18.9336 4.41055 18.8046 4.72207C18.6755 5.03359 18.4864 5.31664 18.248 5.55506L5.99283 17.8102L1 19.1719L2.36168 14.179L14.6168 1.92391Z" stroke="currentColor" stroke-width="1.5" stroke-linecap="round" stroke-linejoin="round"/>
</svg>
