<svg width="48" height="48" viewBox="0 0 48 48" fill="none" xmlns="http://www.w3.org/2000/svg">
<path d="M0 24C0 10.7452 10.7452 0 24 0C37.2548 0 48 10.7452 48 24C48 37.2548 37.2548 48 24 48C10.7452 48 0 37.2548 0 24Z" fill="#3B5998"/>
<rect width="48" height="48" rx="24" fill="#3B5998"/>
<path d="M26.7774 37.2008V23.9992H30.6825L31.2 19.4499H26.7774L26.7841 17.1729C26.7841 15.9864 26.9049 15.3506 28.7311 15.3506H31.1724V10.8008H27.2667C22.5755 10.8008 20.9242 13.0077 20.9242 16.719V19.4504H18V23.9998H20.9242V37.2008H26.7774Z" fill="white"/>
</svg>
