<svg width="24" height="24" viewBox="0 0 24 24" fill="none" xmlns="http://www.w3.org/2000/svg">
<path d="M19.5 2V6H15.5" stroke="currentColor" stroke-width="1.5" stroke-linecap="round" stroke-linejoin="round"/>
<path d="M20.5 14.9907C19.8697 16.831 18.6751 18.4108 17.0962 19.492C15.5172 20.5732 13.6395 21.0972 11.7459 20.9851C9.85227 20.873 8.04537 20.1308 6.59744 18.8704C5.1495 17.61 4.13897 15.8996 3.7181 13.997C3.29722 12.0944 3.48882 10.1026 4.264 8.32177C5.03919 6.54091 6.35598 5.06746 8.01596 4.12343C9.67594 3.17941 11.5892 2.81593 13.4674 3.08779C15.3457 3.35964 17.0872 4.25209 18.4295 5.63067" stroke="currentColor" stroke-width="1.5" stroke-linecap="round" stroke-linejoin="round"/>
<path d="M8.63504 15.5H9.8948V8.4541H8.63992L6.7991 9.74805V10.9346L8.55203 9.69434H8.63504V15.5ZM14.4958 15.6758C16.1706 15.6758 17.1862 14.2549 17.1862 11.9795V11.9697C17.1862 9.69434 16.1706 8.27832 14.4958 8.27832C12.821 8.27832 11.8152 9.69434 11.8152 11.9697V11.9795C11.8152 14.2549 12.821 15.6758 14.4958 15.6758ZM14.4958 14.6553C13.5974 14.6553 13.0847 13.6494 13.0847 11.9795V11.9697C13.0847 10.2998 13.5974 9.30371 14.4958 9.30371C15.3943 9.30371 15.9167 10.2998 15.9167 11.9697V11.9795C15.9167 13.6494 15.3943 14.6553 14.4958 14.6553Z" fill="currentColor"/>
</svg>
