<svg width="24" height="24" viewBox="0 0 24 24" fill="none" xmlns="http://www.w3.org/2000/svg">
    <path d="M4.5 2V6H8.5" stroke="currentColor" stroke-width="1.5" stroke-linecap="round" stroke-linejoin="round" />
    <path d="M3.5 14.9907C4.13028 16.831 5.32489 18.4108 6.90383 19.492C8.48277 20.5732 10.3605 21.0972 12.2541 20.9851C14.1477 20.873 15.9546 20.1308 17.4026 18.8704C18.8505 17.61 19.861 15.8996 20.2819 13.997C20.7028 12.0944 20.5112 10.1026 19.736 8.32177C18.9608 6.54091 17.644 5.06746 15.984 4.12343C14.3241 3.17941 12.4108 2.81593 10.5326 3.08779C8.65431 3.35964 6.91283 4.25209 5.57049 5.63067" stroke="currentColor" stroke-width="1.5" stroke-linecap="round" stroke-linejoin="round" />
    <path d="M8.63504 15.5H9.8948V8.4541H8.63992L6.7991 9.74805V10.9346L8.55203 9.69434H8.63504V15.5ZM14.4958 15.6758C16.1706 15.6758 17.1862 14.2549 17.1862 11.9795V11.9697C17.1862 9.69434 16.1706 8.27832 14.4958 8.27832C12.821 8.27832 11.8152 9.69434 11.8152 11.9697V11.9795C11.8152 14.2549 12.821 15.6758 14.4958 15.6758ZM14.4958 14.6553C13.5974 14.6553 13.0847 13.6494 13.0847 11.9795V11.9697C13.0847 10.2998 13.5974 9.30371 14.4958 9.30371C15.3943 9.30371 15.9167 10.2998 15.9167 11.9697V11.9795C15.9167 13.6494 15.3943 14.6553 14.4958 14.6553Z" fill="currentColor" />
</svg>