<svg width="24" height="24" viewBox="0 0 24 24" fill="none" xmlns="http://www.w3.org/2000/svg">
<g clip-path="url(#clip0_22_4495)">
<path d="M16.2938 4.82813C15.1272 3.59754 13.8143 2.51448 12.3844 1.60313C12.2682 1.53376 12.1353 1.49714 12 1.49714C11.8647 1.49714 11.7318 1.53376 11.6156 1.60313C10.1857 2.51448 8.87282 3.59754 7.70625 4.82813C5.11875 7.54688 3.75 10.5469 3.75 13.5C3.75 15.688 4.61919 17.7865 6.16637 19.3336C7.71354 20.8808 9.81196 21.75 12 21.75C14.188 21.75 16.2865 20.8808 17.8336 19.3336C19.3808 17.7865 20.25 15.688 20.25 13.5C20.25 10.5469 18.8813 7.54688 16.2938 4.82813ZM9 17.25C9 14.6531 11.1094 12.8156 12 12.1594C12.8906 12.8156 15 14.6531 15 17.25C15 18.0456 14.6839 18.8087 14.1213 19.3713C13.5587 19.9339 12.7956 20.25 12 20.25C11.2044 20.25 10.4413 19.9339 9.87868 19.3713C9.31607 18.8087 9 18.0456 9 17.25Z" fill="#fff"/>
</g>
</svg>
