<svg width="24" height="24" viewBox="0 0 24 24" fill="none" xmlns="http://www.w3.org/2000/svg">
    <g clip-path="url(#clip0_2049_86644)">
        <path
            d="M16.2938 4.82708C15.1272 3.5965 13.8143 2.51343 12.3844 1.60208C12.2682 1.53272 12.1353 1.49609 12 1.49609C11.8647 1.49609 11.7318 1.53272 11.6156 1.60208C10.1857 2.51343 8.87282 3.5965 7.70625 4.82708C5.11875 7.54583 3.75 10.5458 3.75 13.499C3.75 15.687 4.61919 17.7854 6.16637 19.3326C7.71354 20.8798 9.81196 21.749 12 21.749C14.188 21.749 16.2865 20.8798 17.8336 19.3326C19.3808 17.7854 20.25 15.687 20.25 13.499C20.25 10.5458 18.8813 7.54583 16.2938 4.82708ZM9 17.249C9 14.6521 11.1094 12.8146 12 12.1583C12.8906 12.8146 15 14.6521 15 17.249C15 18.0446 14.6839 18.8077 14.1213 19.3703C13.5587 19.9329 12.7956 20.249 12 20.249C11.2044 20.249 10.4413 19.9329 9.87868 19.3703C9.31607 18.8077 9 18.0446 9 17.249Z"
            fill="#B0B0B8" />
    </g>
    <defs>
        <clipPath id="clip0_2049_86644">
            <rect width="24" height="24" fill="#B0B0B8" />
        </clipPath>
    </defs>
</svg>
