<svg width="48" height="48" viewBox="0 0 48 48" fill="none" xmlns="http://www.w3.org/2000/svg">
<path d="M0 24C0 10.7452 10.7452 0 24 0C37.2548 0 48 10.7452 48 24C48 37.2548 37.2548 48 24 48C10.7452 48 0 37.2548 0 24Z" fill="white"/>
<path d="M23.9996 16.6402C26.2531 16.6402 27.7731 17.6135 28.6398 18.4269L32.0266 15.1201C29.9465 13.1867 27.2398 12 23.9996 12C19.3062 12 15.2527 14.6934 13.2793 18.6135L17.1594 21.627C18.1328 18.7336 20.8262 16.6402 23.9996 16.6402Z" fill="#EA4335"/>
<path d="M35.5204 24.2669C35.5204 23.2802 35.4404 22.5602 35.267 21.8135H24V26.267H30.6135C30.4802 27.3737 29.7602 29.0404 28.1601 30.1604L31.9469 33.0938C34.2137 31.0004 35.5204 27.9203 35.5204 24.2669Z" fill="#4285F4"/>
<path d="M17.1725 26.3735C16.9192 25.6268 16.7725 24.8268 16.7725 24.0001C16.7725 23.1734 16.9192 22.3734 17.1592 21.6267L13.2791 18.6133C12.4657 20.24 11.999 22.0667 11.999 24.0001C11.999 25.9335 12.4657 27.7602 13.2791 29.387L17.1725 26.3735Z" fill="#FBBC05"/>
<path d="M24 36C27.2401 36 29.9602 34.9333 31.9469 33.0933L28.1601 30.1598C27.1468 30.8665 25.7867 31.3599 24 31.3599C20.8265 31.3599 18.1331 29.2665 17.1731 26.373L13.293 29.3865C15.2664 33.3066 19.3065 36 24 36Z" fill="#34A853"/>
</svg>
