<svg width="30" height="30" viewBox="0 0 30 30" fill="none" xmlns="http://www.w3.org/2000/svg">
<path d="M15 30C23.2843 30 30 23.2843 30 15C30 6.71573 23.2843 0 15 0C6.71573 0 0 6.71573 0 15C0 23.2843 6.71573 30 15 30Z" fill="url(#paint0_linear_2049_81963)"/>
<path d="M22.7416 15C23.2971 15 23.7519 15.4544 23.6845 16.0058C23.4453 17.9613 22.562 19.7908 21.1612 21.1917C19.5223 22.8305 17.3079 23.75 15 23.75C12.6921 23.75 10.4777 22.8305 8.83884 21.1917C7.43796 19.7908 6.55466 17.9613 6.3155 16.0058C6.24805 15.4544 6.70286 15 7.25843 15H22.7416Z" fill="#F7FCFF"/>
<path d="M10.625 12.5C11.6606 12.5 12.5 11.6605 12.5 10.625C12.5 9.58947 11.6606 8.75 10.625 8.75C9.5895 8.75 8.75003 9.58947 8.75003 10.625C8.75003 11.6605 9.5895 12.5 10.625 12.5Z" fill="#333333"/>
<path d="M19.375 12.5C20.4106 12.5 21.25 11.6605 21.25 10.625C21.25 9.58947 20.4106 8.75 19.375 8.75C18.3395 8.75 17.5 9.58947 17.5 10.625C17.5 11.6605 18.3395 12.5 19.375 12.5Z" fill="#333333"/>
<defs>
<linearGradient id="paint0_linear_2049_81963" x1="15" y1="4.375" x2="15" y2="34.375" gradientUnits="userSpaceOnUse">
<stop stop-color="#FFC10E"/>
<stop offset="1" stop-color="#FF900E"/>
</linearGradient>
</defs>
</svg>
