<svg width="24" height="24" viewBox="0 0 22 18" fill="none" xmlns="http://www.w3.org/2000/svg">
<path d="M15.5 6.44236e-08C14.6267 6.44236e-08 13.7655 0.203316 12.9844 0.593847C12.2034 0.984378 11.524 1.5514 11 2.25C10.2916 1.30553 9.30408 0.607875 8.17719 0.255861C7.0503 -0.096152 5.84122 -0.0846785 4.72122 0.288657C3.60121 0.661992 2.62707 1.37826 1.93676 2.336C1.24646 3.29375 0.875 4.44441 0.875 5.625C0.875 12.3656 10.2406 17.6812 10.6344 17.9062C10.7459 17.969 10.872 18.0013 11 18C11.1281 18.0022 11.2544 17.9698 11.3656 17.9062C13.0903 16.898 14.708 15.7169 16.1937 14.3812C19.4656 11.4375 21.125 8.49375 21.125 5.625C21.125 4.13316 20.5324 2.70242 19.4775 1.64752C18.4226 0.592632 16.9918 6.44236e-08 15.5 6.44236e-08Z" fill="currentColor"/>
</svg>
