<svg width="12" height="13" viewBox="0 0 12 13" fill="none" xmlns="http://www.w3.org/2000/svg">
<path d="M8.25 2C7.81337 2 7.38274 2.10166 6.99221 2.29692C6.60168 2.49219 6.26198 2.7757 6 3.125C5.64582 2.65276 5.15204 2.30394 4.5886 2.12793C4.02515 1.95192 3.42061 1.95766 2.86061 2.14433C2.30061 2.331 1.81353 2.68913 1.46838 3.168C1.12323 3.64687 0.9375 4.22221 0.9375 4.8125C0.9375 8.18281 5.62031 10.8406 5.81719 10.9531C5.87297 10.9845 5.93601 11.0006 6 11C6.06404 11.0011 6.1272 10.9849 6.18281 10.9531C7.04517 10.449 7.85402 9.85844 8.59687 9.19062C10.2328 7.71875 11.0625 6.24687 11.0625 4.8125C11.0625 4.06658 10.7662 3.35121 10.2387 2.82376C9.71129 2.29632 8.99592 2 8.25 2Z" fill="#FF3B30"/>
<path d="M8.25 2C7.81337 2 7.38274 2.10166 6.99221 2.29692C6.60168 2.49219 6.26198 2.7757 6 3.125C5.64582 2.65276 5.15204 2.30394 4.5886 2.12793C4.02515 1.95192 3.42061 1.95766 2.86061 2.14433C2.30061 2.331 1.81353 2.68913 1.46838 3.168C1.12323 3.64687 0.9375 4.22221 0.9375 4.8125C0.9375 8.18281 5.62031 10.8406 5.81719 10.9531C5.87297 10.9845 5.93601 11.0006 6 11C6.06404 11.0011 6.1272 10.9849 6.18281 10.9531C7.04517 10.449 7.85402 9.85844 8.59687 9.19062C10.2328 7.71875 11.0625 6.24687 11.0625 4.8125C11.0625 4.06658 10.7662 3.35121 10.2387 2.82376C9.71129 2.29632 8.99592 2 8.25 2Z" fill="url(#paint0_linear_6600_803)"/>
<defs>
<linearGradient id="paint0_linear_6600_803" x1="6" y1="2" x2="6" y2="11.0001" gradientUnits="userSpaceOnUse">
<stop stop-color="#FF8181"/>
<stop offset="1" stop-color="#E83131"/>
</linearGradient>
</defs>
</svg>
