<svg width="64" height="64" viewBox="0 0 64 64" fill="none"
    xmlns="http://www.w3.org/2000/svg">
    <path d="M36 14.7467V6.71416C36 6.2582 35.8012 5.8228 35.4525 5.50054C35.1037 5.17827 34.6238 5 34.125 5H7.875C6.84 5 6 5.76795 6 6.71416V14.7467C6 18.8676 7.755 22.7416 10.9425 25.6557L14.5987 28.9983L10.9425 32.3409C7.755 35.2584 6 39.129 6 43.2498V51.2858C6 51.7418 6.19875 52.1772 6.5475 52.4995C6.89625 52.8217 7.37625 53 7.875 53L34.125 52.9966C35.16 52.9966 36 52.2286 36 51.2824V43.2464C36 39.1256 34.245 35.2516 31.0575 32.3375L27.4012 28.9983L31.0575 25.6522C34.245 22.7416 36 18.8676 36 14.7467Z" fill="url(#paint0_linear_7860_90157)" fill-opacity="0.24" stroke="#141414" stroke-width="2"/>
    <rect x="4" y="6" width="33" height="2" rx="1" fill="#8A8B93"/>
    <rect x="4" y="50" width="33" height="2" rx="1" fill="#8A8B93"/>
    <path d="M12 13V15.529C12 18.334 13.092 20.968 15.075 22.954C15.075 22.954 21 27.604 21 28C21 27.604 26.925 22.951 26.925 22.951C28.908 20.968 30 18.331 30 15.529V13H12Z" fill="currentColor"/>
    <path d="M12 45V42.6396C12 40.0216 13.092 37.5632 15.075 35.7096C15.075 35.7124 21 31.3696 21 31C21 31.3696 26.925 35.7124 26.925 35.7124C28.908 37.5632 30 40.0244 30 42.6424V45H12Z" fill="#8A8B93"/>
    <path d="M45 61C54.3888 61 62 53.3888 62 44C62 34.6112 54.3888 27 45 27C35.6112 27 28 34.6112 28 44C28 53.3888 35.6112 61 45 61Z" fill="#47474D" stroke="#141414" stroke-width="2"/>
    <path d="M44 36V45.2903L51 51" stroke="white" stroke-width="2" stroke-linecap="round"/>
    <defs>
        <linearGradient id="paint0_linear_7860_90157" x1="21" y1="6.14833" x2="21" y2="63.009" gradientUnits="userSpaceOnUse">
            <stop stop-color="white"/>
            <stop offset="1"/>
        </linearGradient>
    </defs>
</svg>
