<svg width="610" height="476" viewBox="0 0 610 476" fill="none"
    xmlns="http://www.w3.org/2000/svg">
    <g style="mix-blend-mode:color-dodge" filter="url(#filter0_b_2049_99958)">
        <rect y="136" width="160" height="160" rx="79.9999" fill="#45FFE9" fill-opacity="0.4"/>
    </g>
    <path d="M57.1563 237.364H59.6165V244.92C59.6165 245.769 59.4139 246.511 59.0086 247.148C58.6071 247.784 58.0446 248.28 57.3211 248.636C56.5976 248.989 55.7548 249.165 54.7927 249.165C53.8268 249.165 52.9821 248.989 52.2586 248.636C51.5351 248.28 50.9726 247.784 50.5711 247.148C50.1696 246.511 49.9688 245.769 49.9688 244.92V237.364H52.429V244.71C52.429 245.153 52.5256 245.547 52.7188 245.892C52.9158 246.237 53.1923 246.508 53.5484 246.705C53.9044 246.902 54.3192 247 54.7927 247C55.27 247 55.6847 246.902 56.037 246.705C56.3931 246.508 56.6677 246.237 56.8609 245.892C57.0578 245.547 57.1563 245.153 57.1563 244.71V237.364ZM61.2327 249V237.364H65.8236C66.7062 237.364 67.4581 237.532 68.0793 237.869C68.7005 238.203 69.174 238.667 69.4997 239.261C69.8293 239.852 69.9941 240.534 69.9941 241.307C69.9941 242.08 69.8274 242.761 69.4941 243.352C69.1607 243.943 68.6778 244.403 68.0452 244.733C67.4164 245.062 66.655 245.227 65.7611 245.227H62.835V243.256H65.3634C65.8369 243.256 66.227 243.174 66.5338 243.011C66.8444 242.845 67.0755 242.616 67.227 242.324C67.3823 242.028 67.46 241.689 67.46 241.307C67.46 240.92 67.3823 240.583 67.227 240.295C67.0755 240.004 66.8444 239.778 66.5338 239.619C66.2232 239.456 65.8293 239.375 65.352 239.375H63.6929V249H61.2327ZM71.1841 249V237.364H73.6443V246.972H78.6329V249H71.1841ZM90.0943 243.182C90.0943 244.451 89.8537 245.53 89.3727 246.42C88.8954 247.311 88.2439 247.991 87.4181 248.46C86.5961 248.926 85.6719 249.159 84.6454 249.159C83.6113 249.159 82.6833 248.924 81.8613 248.455C81.0393 247.985 80.3897 247.305 79.9124 246.415C79.4352 245.525 79.1965 244.447 79.1965 243.182C79.1965 241.913 79.4352 240.833 79.9124 239.943C80.3897 239.053 81.0393 238.375 81.8613 237.909C82.6833 237.439 83.6113 237.205 84.6454 237.205C85.6719 237.205 86.5961 237.439 87.4181 237.909C88.2439 238.375 88.8954 239.053 89.3727 239.943C89.8537 240.833 90.0943 241.913 90.0943 243.182ZM87.5999 243.182C87.5999 242.36 87.4768 241.667 87.2306 241.102C86.9882 240.538 86.6454 240.11 86.2022 239.818C85.759 239.527 85.2401 239.381 84.6454 239.381C84.0507 239.381 83.5318 239.527 83.0886 239.818C82.6454 240.11 82.3007 240.538 82.0545 241.102C81.8121 241.667 81.6908 242.36 81.6908 243.182C81.6908 244.004 81.8121 244.697 82.0545 245.261C82.3007 245.826 82.6454 246.254 83.0886 246.545C83.5318 246.837 84.0507 246.983 84.6454 246.983C85.2401 246.983 85.759 246.837 86.2022 246.545C86.6454 246.254 86.9882 245.826 87.2306 245.261C87.4768 244.697 87.5999 244.004 87.5999 243.182ZM92.8581 249H90.2218L94.2388 237.364H97.4093L101.421 249H98.7843L95.8695 240.023H95.7786L92.8581 249ZM92.6934 244.426H98.9206V246.347H92.6934V244.426ZM106.538 249H102.413V237.364H106.572C107.743 237.364 108.75 237.597 109.595 238.062C110.44 238.525 111.089 239.189 111.544 240.057C112.002 240.924 112.231 241.962 112.231 243.17C112.231 244.383 112.002 245.424 111.544 246.295C111.089 247.167 110.436 247.835 109.584 248.301C108.735 248.767 107.72 249 106.538 249ZM104.873 246.892H106.436C107.163 246.892 107.775 246.763 108.271 246.506C108.771 246.244 109.146 245.841 109.396 245.295C109.65 244.746 109.777 244.038 109.777 243.17C109.777 242.311 109.65 241.608 109.396 241.062C109.146 240.517 108.773 240.116 108.277 239.858C107.781 239.6 107.169 239.472 106.442 239.472H104.873V246.892Z" fill="#00CDB4"/>
    <g filter="url(#filter1_d_2049_99958)">
        <path fill-rule="evenodd" clip-rule="evenodd" d="M97.9085 187.714H98.075C98.3203 187.714 98.5556 187.812 98.7291 187.986C98.9025 188.16 99 188.397 99 188.643V205.357C99 205.603 98.9025 205.84 98.7291 206.014C98.5556 206.188 98.3203 206.286 98.075 206.286H97.9085C97.4232 206.284 96.9581 206.09 96.6135 205.747L89.9812 200.714V206.286C89.9812 207.271 89.5914 208.216 88.8975 208.912C88.2037 209.609 87.2625 210 86.2812 210H65.7C64.7187 210 63.7776 209.609 63.0837 208.912C62.3898 208.216 62 207.271 62 206.286V187.714C62 186.729 62.3898 185.784 63.0837 185.088C63.7776 184.391 64.7187 184 65.7 184H86.2812C87.2625 184 88.2037 184.391 88.8975 185.088C89.5914 185.784 89.9812 186.729 89.9812 187.714V193.286L96.6135 188.253C96.9581 187.91 97.4232 187.716 97.9085 187.714ZM76.9742 192.127C76.9742 191.453 76.4307 190.908 75.7602 190.908C75.0897 190.908 74.5461 191.453 74.5461 192.127V195.783H70.9039C70.2334 195.783 69.6899 196.328 69.6899 197.002C69.6899 197.675 70.2334 198.22 70.9039 198.22H74.5461V201.877C74.5461 202.55 75.0897 203.095 75.7602 203.095C76.4307 203.095 76.9742 202.55 76.9742 201.877V198.22H80.6164C81.2869 198.22 81.8305 197.675 81.8305 197.002C81.8305 196.328 81.2869 195.783 80.6164 195.783H76.9742V192.127Z" fill="#00CDB4"/>
    </g>
    <g style="mix-blend-mode:color-dodge" filter="url(#filter2_b_2049_99958)">
        <rect x="420" y="86" width="147" height="147" rx="73.5" fill="url(#paint0_linear_2049_99958)" fill-opacity="0.6"/>
    </g>
    <path fill-rule="evenodd" clip-rule="evenodd" d="M478.667 132.336C476.642 132.336 475 133.978 475 136.003V150.669C475 152.694 476.642 154.336 478.667 154.336H504.333C506.358 154.336 508 152.694 508 150.669V136.003C508 133.978 506.358 132.336 504.333 132.336H478.667ZM487.834 138.634C487.834 138.004 488.551 137.623 489.097 137.964L496.624 142.666C497.126 142.98 497.126 143.692 496.624 144.006L489.097 148.708C488.551 149.049 487.834 148.668 487.834 148.038V138.634Z" fill="#DE5F57"/>
    <path fill-rule="evenodd" clip-rule="evenodd" d="M478.666 127.753C478.666 127.246 479.076 126.836 479.583 126.836H503.416C503.922 126.836 504.333 127.246 504.333 127.753C504.333 128.259 503.922 128.669 503.416 128.669H479.583C479.076 128.669 478.666 128.259 478.666 127.753Z" fill="#DE5F57"/>
    <path fill-rule="evenodd" clip-rule="evenodd" d="M484.166 124.085C484.166 123.578 484.576 123.168 485.083 123.168L497.916 123.168C498.422 123.168 498.833 123.578 498.833 124.085C498.833 124.591 498.422 125.001 497.916 125.001L485.083 125.001C484.576 125.001 484.166 124.591 484.166 124.085Z" fill="#DE5F57"/>
    <path d="M461.914 195.688V184.051H469.619V186.08H464.374V188.852H469.107V190.881H464.374V195.688H461.914ZM481.559 189.869C481.559 191.138 481.318 192.218 480.837 193.108C480.36 193.998 479.708 194.678 478.883 195.148C478.061 195.614 477.136 195.847 476.11 195.847C475.076 195.847 474.148 195.612 473.326 195.142C472.504 194.672 471.854 193.992 471.377 193.102C470.9 192.212 470.661 191.134 470.661 189.869C470.661 188.6 470.9 187.521 471.377 186.631C471.854 185.741 472.504 185.062 473.326 184.597C474.148 184.127 475.076 183.892 476.11 183.892C477.136 183.892 478.061 184.127 478.883 184.597C479.708 185.062 480.36 185.741 480.837 186.631C481.318 187.521 481.559 188.6 481.559 189.869ZM479.064 189.869C479.064 189.047 478.941 188.354 478.695 187.79C478.453 187.225 478.11 186.797 477.667 186.506C477.223 186.214 476.705 186.068 476.11 186.068C475.515 186.068 474.996 186.214 474.553 186.506C474.11 186.797 473.765 187.225 473.519 187.79C473.276 188.354 473.155 189.047 473.155 189.869C473.155 190.691 473.276 191.384 473.519 191.949C473.765 192.513 474.11 192.941 474.553 193.233C474.996 193.525 475.515 193.67 476.11 193.67C476.705 193.67 477.223 193.525 477.667 193.233C478.11 192.941 478.453 192.513 478.695 191.949C478.941 191.384 479.064 190.691 479.064 189.869ZM482.973 195.688V184.051H485.433V193.659H490.422V195.688H482.973ZM491.643 195.688V184.051H494.103V193.659H499.092V195.688H491.643ZM510.553 189.869C510.553 191.138 510.313 192.218 509.832 193.108C509.355 193.998 508.703 194.678 507.877 195.148C507.055 195.614 506.131 195.847 505.105 195.847C504.07 195.847 503.142 195.612 502.32 195.142C501.499 194.672 500.849 193.992 500.372 193.102C499.894 192.212 499.656 191.134 499.656 189.869C499.656 188.6 499.894 187.521 500.372 186.631C500.849 185.741 501.499 185.062 502.32 184.597C503.142 184.127 504.07 183.892 505.105 183.892C506.131 183.892 507.055 184.127 507.877 184.597C508.703 185.062 509.355 185.741 509.832 186.631C510.313 187.521 510.553 188.6 510.553 189.869ZM508.059 189.869C508.059 189.047 507.936 188.354 507.69 187.79C507.447 187.225 507.105 186.797 506.661 186.506C506.218 186.214 505.699 186.068 505.105 186.068C504.51 186.068 503.991 186.214 503.548 186.506C503.105 186.797 502.76 187.225 502.514 187.79C502.271 188.354 502.15 189.047 502.15 189.869C502.15 190.691 502.271 191.384 502.514 191.949C502.76 192.513 503.105 192.941 503.548 193.233C503.991 193.525 504.51 193.67 505.105 193.67C505.699 193.67 506.218 193.525 506.661 193.233C507.105 192.941 507.447 192.513 507.69 191.949C507.936 191.384 508.059 190.691 508.059 189.869ZM514.15 195.688L510.82 184.051H513.508L515.434 192.136H515.53L517.655 184.051H519.957L522.076 192.153H522.178L524.104 184.051H526.792L523.462 195.688H521.064L518.849 188.08H518.758L516.547 195.688H514.15Z" fill="#DE5F57"/>
    <g style="mix-blend-mode:color-dodge" filter="url(#filter3_b_2049_99958)">
        <rect x="172" y="245" width="192" height="190.666" rx="95.3332" fill="#F5A623" fill-opacity="0.6"/>
    </g>
    <path d="M235.463 362.438H232.975C232.929 362.116 232.836 361.83 232.696 361.58C232.556 361.326 232.376 361.11 232.157 360.932C231.937 360.754 231.683 360.617 231.395 360.523C231.111 360.428 230.802 360.381 230.469 360.381C229.867 360.381 229.342 360.53 228.895 360.83C228.448 361.125 228.102 361.557 227.855 362.125C227.609 362.689 227.486 363.375 227.486 364.182C227.486 365.011 227.609 365.708 227.855 366.273C228.105 366.837 228.454 367.263 228.901 367.551C229.348 367.839 229.865 367.983 230.452 367.983C230.782 367.983 231.086 367.939 231.367 367.852C231.651 367.765 231.903 367.638 232.122 367.472C232.342 367.301 232.524 367.095 232.668 366.852C232.816 366.61 232.918 366.333 232.975 366.023L235.463 366.034C235.399 366.568 235.238 367.083 234.98 367.58C234.727 368.072 234.384 368.513 233.952 368.903C233.524 369.29 233.013 369.597 232.418 369.824C231.827 370.047 231.158 370.159 230.412 370.159C229.374 370.159 228.446 369.924 227.628 369.455C226.814 368.985 226.17 368.305 225.696 367.415C225.227 366.525 224.992 365.447 224.992 364.182C224.992 362.913 225.23 361.833 225.708 360.943C226.185 360.053 226.833 359.375 227.651 358.909C228.469 358.439 229.389 358.205 230.412 358.205C231.086 358.205 231.711 358.299 232.287 358.489C232.867 358.678 233.38 358.955 233.827 359.318C234.274 359.678 234.638 360.119 234.918 360.642C235.202 361.165 235.384 361.763 235.463 362.438ZM247.513 364.182C247.513 365.451 247.272 366.53 246.791 367.42C246.314 368.311 245.662 368.991 244.837 369.46C244.015 369.926 243.09 370.159 242.064 370.159C241.03 370.159 240.102 369.924 239.28 369.455C238.458 368.985 237.808 368.305 237.331 367.415C236.854 366.525 236.615 365.447 236.615 364.182C236.615 362.913 236.854 361.833 237.331 360.943C237.808 360.053 238.458 359.375 239.28 358.909C240.102 358.439 241.03 358.205 242.064 358.205C243.09 358.205 244.015 358.439 244.837 358.909C245.662 359.375 246.314 360.053 246.791 360.943C247.272 361.833 247.513 362.913 247.513 364.182ZM245.018 364.182C245.018 363.36 244.895 362.667 244.649 362.102C244.407 361.538 244.064 361.11 243.621 360.818C243.178 360.527 242.659 360.381 242.064 360.381C241.469 360.381 240.95 360.527 240.507 360.818C240.064 361.11 239.719 361.538 239.473 362.102C239.231 362.667 239.109 363.36 239.109 364.182C239.109 365.004 239.231 365.697 239.473 366.261C239.719 366.826 240.064 367.254 240.507 367.545C240.95 367.837 241.469 367.983 242.064 367.983C242.659 367.983 243.178 367.837 243.621 367.545C244.064 367.254 244.407 366.826 244.649 366.261C244.895 365.697 245.018 365.004 245.018 364.182ZM248.927 358.364H251.961L255.166 366.182H255.302L258.507 358.364H261.541V370H259.154V362.426H259.058L256.046 369.943H254.421L251.41 362.398H251.314V370H248.927V358.364ZM263.16 358.364H266.194L269.398 366.182H269.535L272.739 358.364H275.773V370H273.387V362.426H273.29L270.279 369.943H268.654L265.643 362.398H265.546V370H263.16V358.364ZM277.392 370V358.364H285.233V360.392H279.853V363.165H284.83V365.193H279.853V367.972H285.256V370H277.392ZM296.514 358.364V370H294.389L289.327 362.676H289.242V370H286.781V358.364H288.94L293.963 365.682H294.065V358.364H296.514ZM297.696 360.392V358.364H307.253V360.392H303.69V370H301.258V360.392H297.696Z" fill="#F5A623"/>
    <path d="M286.171 305.352H282.538V318.674C282.538 320.013 281.454 321.097 280.115 321.097H266.948L261.41 325.941H272.461L280.623 331.771C280.987 332.032 281.469 332.072 281.881 331.863C282.285 331.656 282.538 331.24 282.538 330.786V325.941H286.171C286.84 325.941 287.382 325.399 287.382 324.73V306.563C287.382 305.894 286.84 305.352 286.171 305.352Z" fill="#F5A623"/>
    <path d="M278.904 295.668H249.836C249.166 295.668 248.625 296.209 248.625 296.879V317.469C248.625 318.139 249.166 318.68 249.836 318.68H254.681V325.947C254.681 326.423 254.958 326.853 255.392 327.049C255.817 327.244 256.328 327.174 256.689 326.859L266.037 318.68H278.904C279.574 318.68 280.115 318.139 280.115 317.469V296.879C280.115 296.209 279.574 295.668 278.904 295.668Z" fill="#F5A623"/>
    <g style="mix-blend-mode:color-dodge" filter="url(#filter4_b_2049_99958)">
        <rect x="172" width="236" height="233" rx="116.5" fill="url(#paint1_linear_2049_99958)" fill-opacity="0.4"/>
    </g>
    <path d="M269.428 159.793V148.157H271.888V157.765H276.877V159.793H269.428ZM280.558 148.157V159.793H278.098V148.157H280.558ZM282.175 159.793V148.157H284.635V153.287H284.788L288.976 148.157H291.925L287.606 153.367L291.976 159.793H289.032L285.845 155.009L284.635 156.486V159.793H282.175ZM292.798 159.793V148.157H300.639V150.185H295.258V152.958H300.235V154.986H295.258V157.765H300.661V159.793H292.798Z" fill="#51BDFF"/>
    <g filter="url(#filter5_d_2049_99958)">
        <path d="M268.91 122.043H262.099C260.056 122.043 258.693 120.786 258.693 118.9V90.6048C258.693 88.7185 260.056 87.4609 262.099 87.4609H268.91C270.953 87.4609 272.315 88.7185 272.315 90.6048V118.9C272.315 120.786 270.953 122.043 268.91 122.043Z" fill="#51BDFF"/>
        <path d="M316.518 84.0043H300.533V74.4939C300.533 69.1047 297.336 61.8134 292.541 58.9603C290.303 58.0093 287.745 59.2773 287.745 61.8134V74.4939L278.154 85.9064V118.876L279.113 119.193C282.63 121.095 286.786 122.046 290.942 122.046H313.321C316.838 122.046 319.715 119.193 319.715 115.706L322.912 90.3446C322.912 86.8574 320.035 84.0043 316.518 84.0043Z" fill="#51BDFF"/>
    </g>
    <g style="mix-blend-mode:screen" filter="url(#filter6_b_2049_99958)">
        <path fill-rule="evenodd" clip-rule="evenodd" d="M376 360.5C376 296.711 427.711 245 491.5 245H494.481C558.269 245 609.981 296.711 609.981 360.5V360.5C609.981 424.289 558.27 476 494.481 476H491.5C427.711 476 376 424.289 376 360.5V360.5Z" fill="#010101" fill-opacity="0.15"/>
    </g>
    <path d="M472.796 394.71C472.751 394.252 472.556 393.896 472.211 393.642C471.866 393.388 471.398 393.261 470.807 393.261C470.406 393.261 470.067 393.318 469.79 393.432C469.514 393.542 469.302 393.695 469.154 393.892C469.01 394.089 468.938 394.312 468.938 394.562C468.931 394.771 468.974 394.953 469.069 395.108C469.167 395.263 469.302 395.398 469.472 395.511C469.643 395.621 469.84 395.718 470.063 395.801C470.287 395.881 470.525 395.949 470.779 396.006L471.825 396.256C472.332 396.369 472.798 396.521 473.222 396.71C473.646 396.9 474.014 397.133 474.325 397.409C474.635 397.686 474.876 398.011 475.046 398.386C475.22 398.761 475.309 399.191 475.313 399.676C475.309 400.388 475.128 401.006 474.768 401.528C474.412 402.047 473.896 402.451 473.222 402.739C472.552 403.023 471.743 403.165 470.796 403.165C469.857 403.165 469.039 403.021 468.342 402.733C467.648 402.445 467.107 402.019 466.717 401.455C466.33 400.886 466.128 400.184 466.109 399.347H468.489C468.516 399.737 468.628 400.062 468.825 400.324C469.025 400.581 469.292 400.777 469.626 400.909C469.963 401.038 470.343 401.102 470.768 401.102C471.184 401.102 471.546 401.042 471.853 400.92C472.164 400.799 472.404 400.631 472.575 400.415C472.745 400.199 472.83 399.951 472.83 399.67C472.83 399.409 472.753 399.189 472.597 399.011C472.446 398.833 472.222 398.682 471.927 398.557C471.635 398.432 471.277 398.318 470.853 398.216L469.586 397.898C468.605 397.659 467.83 397.286 467.262 396.778C466.694 396.271 466.412 395.587 466.415 394.727C466.412 394.023 466.599 393.407 466.978 392.881C467.361 392.354 467.885 391.943 468.552 391.648C469.218 391.352 469.976 391.205 470.825 391.205C471.688 391.205 472.442 391.352 473.086 391.648C473.734 391.943 474.237 392.354 474.597 392.881C474.957 393.407 475.143 394.017 475.154 394.71H472.796ZM476.56 403V391.364H479.02V396.165H484.015V391.364H486.469V403H484.015V398.193H479.02V403H476.56ZM490.095 403H487.459L491.476 391.364H494.646L498.658 403H496.021L493.107 394.023H493.016L490.095 403ZM489.93 398.426H496.158V400.347H489.93V398.426ZM499.65 403V391.364H504.241C505.12 391.364 505.87 391.521 506.491 391.835C507.116 392.146 507.592 392.587 507.917 393.159C508.247 393.727 508.412 394.396 508.412 395.165C508.412 395.937 508.245 396.602 507.912 397.159C507.578 397.712 507.095 398.136 506.463 398.432C505.834 398.727 505.073 398.875 504.179 398.875H501.105V396.898H503.781C504.251 396.898 504.641 396.833 504.951 396.705C505.262 396.576 505.493 396.383 505.645 396.125C505.8 395.867 505.878 395.547 505.878 395.165C505.878 394.778 505.8 394.453 505.645 394.188C505.493 393.922 505.26 393.722 504.946 393.585C504.635 393.445 504.243 393.375 503.77 393.375H502.11V403H499.65ZM505.934 397.705L508.826 403H506.11L503.281 397.705H505.934ZM509.742 403V391.364H517.583V393.392H512.202V396.165H517.18V398.193H512.202V400.972H517.606V403H509.742Z" fill="#DFDFDF"/>
    <path d="M511.62 352.74C509.355 352.74 507.313 353.623 505.763 355.044L484.526 342.61C484.69 341.937 484.794 341.234 484.794 340.515C484.794 339.797 484.69 339.094 484.526 338.421L505.539 326.106C507.134 327.602 509.265 328.53 511.62 328.53C516.553 328.53 520.562 324.505 520.562 319.552C520.562 314.599 516.553 310.574 511.62 310.574C506.687 310.574 502.678 314.599 502.678 319.552C502.678 320.27 502.782 320.974 502.946 321.647L481.933 333.962C480.338 332.465 478.207 331.537 475.852 331.537C470.919 331.537 466.91 335.563 466.91 340.515C466.91 345.468 470.919 349.493 475.852 349.493C478.207 349.493 480.338 348.565 481.933 347.069L503.17 359.503C503.021 360.132 502.931 360.79 502.931 361.464C502.931 366.282 506.821 370.187 511.62 370.187C516.419 370.187 520.308 366.282 520.308 361.464C520.308 356.646 516.419 352.74 511.62 352.74V352.74Z" fill="#DFDFDF"/>
    <defs>
        <filter id="filter0_b_2049_99958" x="-60" y="76" width="280" height="280" filterUnits="userSpaceOnUse" color-interpolation-filters="sRGB">
            <feFlood flood-opacity="0" result="BackgroundImageFix"/>
            <feGaussianBlur in="BackgroundImageFix" stdDeviation="30"/>
            <feComposite in2="SourceAlpha" operator="in" result="effect1_backgroundBlur_2049_99958"/>
            <feBlend mode="normal" in="SourceGraphic" in2="effect1_backgroundBlur_2049_99958" result="shape"/>
        </filter>
        <filter id="filter1_d_2049_99958" x="14" y="136" width="133" height="122" filterUnits="userSpaceOnUse" color-interpolation-filters="sRGB">
            <feFlood flood-opacity="0" result="BackgroundImageFix"/>
            <feColorMatrix in="SourceAlpha" type="matrix" values="0 0 0 0 0 0 0 0 0 0 0 0 0 0 0 0 0 0 127 0" result="hardAlpha"/>
            <feOffset/>
            <feGaussianBlur stdDeviation="24"/>
            <feComposite in2="hardAlpha" operator="out"/>
            <feColorMatrix type="matrix" values="0 0 0 0 0.146632 0 0 0 0 0.858333 0 0 0 0 0.687525 0 0 0 1 0"/>
            <feBlend mode="normal" in2="BackgroundImageFix" result="effect1_dropShadow_2049_99958"/>
            <feBlend mode="normal" in="SourceGraphic" in2="effect1_dropShadow_2049_99958" result="shape"/>
        </filter>
        <filter id="filter2_b_2049_99958" x="360" y="26" width="267" height="267" filterUnits="userSpaceOnUse" color-interpolation-filters="sRGB">
            <feFlood flood-opacity="0" result="BackgroundImageFix"/>
            <feGaussianBlur in="BackgroundImageFix" stdDeviation="30"/>
            <feComposite in2="SourceAlpha" operator="in" result="effect1_backgroundBlur_2049_99958"/>
            <feBlend mode="normal" in="SourceGraphic" in2="effect1_backgroundBlur_2049_99958" result="shape"/>
        </filter>
        <filter id="filter3_b_2049_99958" x="112" y="185" width="312" height="310.668" filterUnits="userSpaceOnUse" color-interpolation-filters="sRGB">
            <feFlood flood-opacity="0" result="BackgroundImageFix"/>
            <feGaussianBlur in="BackgroundImageFix" stdDeviation="30"/>
            <feComposite in2="SourceAlpha" operator="in" result="effect1_backgroundBlur_2049_99958"/>
            <feBlend mode="normal" in="SourceGraphic" in2="effect1_backgroundBlur_2049_99958" result="shape"/>
        </filter>
        <filter id="filter4_b_2049_99958" x="112" y="-60" width="356" height="353" filterUnits="userSpaceOnUse" color-interpolation-filters="sRGB">
            <feFlood flood-opacity="0" result="BackgroundImageFix"/>
            <feGaussianBlur in="BackgroundImageFix" stdDeviation="30"/>
            <feComposite in2="SourceAlpha" operator="in" result="effect1_backgroundBlur_2049_99958"/>
            <feBlend mode="normal" in="SourceGraphic" in2="effect1_backgroundBlur_2049_99958" result="shape"/>
        </filter>
        <filter id="filter5_d_2049_99958" x="210.693" y="10.6445" width="160.219" height="159.402" filterUnits="userSpaceOnUse" color-interpolation-filters="sRGB">
            <feFlood flood-opacity="0" result="BackgroundImageFix"/>
            <feColorMatrix in="SourceAlpha" type="matrix" values="0 0 0 0 0 0 0 0 0 0 0 0 0 0 0 0 0 0 127 0" result="hardAlpha"/>
            <feOffset/>
            <feGaussianBlur stdDeviation="24"/>
            <feComposite in2="hardAlpha" operator="out"/>
            <feColorMatrix type="matrix" values="0 0 0 0 0.191667 0 0 0 0 0.693391 0 0 0 0 1 0 0 0 1 0"/>
            <feBlend mode="normal" in2="BackgroundImageFix" result="effect1_dropShadow_2049_99958"/>
            <feBlend mode="normal" in="SourceGraphic" in2="effect1_dropShadow_2049_99958" result="shape"/>
        </filter>
        <filter id="filter6_b_2049_99958" x="316" y="185" width="353.98" height="351" filterUnits="userSpaceOnUse" color-interpolation-filters="sRGB">
            <feFlood flood-opacity="0" result="BackgroundImageFix"/>
            <feGaussianBlur in="BackgroundImageFix" stdDeviation="30"/>
            <feComposite in2="SourceAlpha" operator="in" result="effect1_backgroundBlur_2049_99958"/>
            <feBlend mode="normal" in="SourceGraphic" in2="effect1_backgroundBlur_2049_99958" result="shape"/>
        </filter>
        <linearGradient id="paint0_linear_2049_99958" x1="493.5" y1="97.443" x2="493.5" y2="344.787" gradientUnits="userSpaceOnUse">
            <stop stop-color="#FF6C2D"/>
            <stop offset="1" stop-color="#FF782D" stop-opacity="0"/>
        </linearGradient>
        <linearGradient id="paint1_linear_2049_99958" x1="393.5" y1="-26.4622" x2="249.825" y2="253.804" gradientUnits="userSpaceOnUse">
            <stop stop-color="#1CE4FF"/>
            <stop offset="1" stop-color="#1CE4FF" stop-opacity="0"/>
        </linearGradient>
    </defs>
</svg>
