<svg width="826" height="824" viewBox="0 0 826 824" fill="none"
    xmlns="http://www.w3.org/2000/svg">
    <g style="mix-blend-mode:color-dodge" opacity="0.6">
        <path d="M412.572 824C640.427 824 825.127 639.602 825.127 412.008C825.127 184.415 640.427 0 412.572 0C184.716 0 0 184.464 0 412.008C0 639.553 184.716 824 412.572 824Z" fill="url(#paint0_radial_2049_100083)"/>
    </g>
    <g style="mix-blend-mode:color-dodge" opacity="0.6">
        <path d="M412.569 693.242C568.208 693.242 694.369 567.367 694.369 412.005C694.369 256.644 568.208 130.758 412.569 130.758C256.93 130.758 130.758 256.678 130.758 412.005C130.758 567.333 256.93 693.242 412.569 693.242Z" fill="url(#paint1_radial_2049_100083)"/>
        <path d="M412.569 693.242C568.208 693.242 694.369 567.367 694.369 412.005C694.369 256.644 568.208 130.758 412.569 130.758C256.93 130.758 130.758 256.678 130.758 412.005C130.758 567.333 256.93 693.242 412.569 693.242Z" stroke="#272728" stroke-width="1.63723" stroke-miterlimit="10"/>
    </g>
    <path d="M405.104 135.146C405.104 128.427 410.633 123.024 417.351 123.179L663.493 128.873C669.995 129.023 675.187 134.337 675.187 140.84V371.167C675.187 378.061 669.379 383.53 662.498 383.116L416.356 368.312C410.035 367.932 405.104 362.695 405.104 356.363V135.146Z" fill="url(#paint2_linear_2049_100083)" fill-opacity="0.12" stroke="white" stroke-width="2.25445"/>
    <path d="M421.627 155.818C421.627 150.271 426.216 145.825 431.76 145.999L651.67 152.939C656.972 153.107 661.183 157.453 661.183 162.758V291.563C661.183 297.191 656.464 301.668 650.844 301.373L430.934 289.806C425.717 289.532 421.627 285.221 421.627 279.996V155.818Z" fill="url(#paint3_linear_2049_100083)"/>
    <path d="M525.016 209.713C525.016 205.941 529.61 203.641 533.151 205.64L560.341 220.989C563.673 222.87 563.673 227.254 560.341 229.135L533.151 244.484C529.61 246.483 525.016 244.183 525.016 240.411V209.713Z" fill="#8A8B93"/>
    <path d="M453.464 329.349C453.086 338.198 445.807 345.073 437.204 344.707C428.602 344.34 421.935 336.87 422.312 328.021C422.69 319.173 429.97 312.297 438.572 312.664C447.174 313.03 453.842 320.501 453.464 329.349Z" fill="url(#paint4_linear_2049_100083)"/>
    <path d="M462.983 315.233C463.019 314.39 463.712 313.735 464.531 313.77L655.149 321.894C655.968 321.929 656.603 322.641 656.568 323.483L656.144 333.402C656.108 334.244 655.415 334.899 654.596 334.864L463.978 326.74C463.159 326.705 462.524 325.994 462.56 325.151L462.983 315.233Z" fill="url(#paint5_linear_2049_100083)"/>
    <path d="M462.169 334.306C462.205 333.463 462.898 332.808 463.717 332.843L582.39 337.901C583.209 337.936 583.844 338.648 583.808 339.49L583.385 349.408C583.349 350.251 582.656 350.906 581.836 350.871L463.164 345.813C462.345 345.778 461.71 345.067 461.746 344.224L462.169 334.306Z" fill="url(#paint6_linear_2049_100083)"/>
    <path d="M324.677 346.822C324.677 340.103 319.148 334.699 312.43 334.855L182.284 337.866C175.782 338.016 170.59 343.33 170.59 349.833V470.682C170.59 477.576 176.398 483.045 183.279 482.631L313.426 474.804C319.746 474.423 324.677 469.187 324.677 462.855V346.822Z" fill="url(#paint7_linear_2049_100083)" fill-opacity="0.24" stroke="white" stroke-width="2.25445"/>
    <g filter="url(#filter0_d_2049_100083)">
        <path d="M315.67 357.298C315.67 351.752 311.081 347.305 305.537 347.48L187.66 351.2C182.358 351.367 178.147 355.714 178.147 361.018V426.498C178.147 432.126 182.866 436.603 188.486 436.308L306.363 430.108C311.58 429.834 315.67 425.523 315.67 420.298V357.298Z" fill="url(#paint8_radial_2049_100083)"/>
    </g>
    <path d="M237.549 379.862C237.549 377.033 240.918 375.308 243.515 376.807L263.454 388.319C265.898 389.73 265.898 393.017 263.454 394.428L243.515 405.94C240.918 407.44 237.549 405.715 237.549 402.885V379.862Z" fill="white"/>
    <path d="M199.038 456.812C199.257 461.892 195.431 466.181 190.493 466.393C185.554 466.606 181.374 462.66 181.155 457.58C180.937 452.501 184.763 448.211 189.701 447.999C194.64 447.787 198.82 451.732 199.038 456.812Z" fill="url(#paint9_linear_2049_100083)"/>
    <path d="M203.79 448.271C203.769 447.787 204.133 447.379 204.604 447.359L314.031 442.658C314.501 442.637 314.899 443.013 314.92 443.497L315.165 449.191C315.186 449.674 314.822 450.083 314.351 450.103L204.924 454.804C204.454 454.824 204.056 454.448 204.035 453.965L203.79 448.271Z" fill="url(#paint10_linear_2049_100083)"/>
    <path d="M204.261 459.22C204.24 458.737 204.604 458.328 205.075 458.308L273.201 455.381C273.671 455.361 274.069 455.737 274.09 456.221L274.335 461.914C274.356 462.398 273.991 462.806 273.521 462.827L205.395 465.753C204.925 465.773 204.527 465.398 204.506 464.914L204.261 459.22Z" fill="url(#paint11_linear_2049_100083)"/>
    <g filter="url(#filter1_d_2049_100083)">
        <path d="M733.714 465.574L739.709 456.258L735.776 445.961C735.327 444.786 736.376 443.572 737.556 443.904L747.872 446.819L756.151 439.623C757.095 438.806 758.521 439.447 758.565 440.713L758.948 451.832L767.999 457.685C769.029 458.353 768.862 459.966 767.712 460.418L757.631 464.377L754.943 475.191C754.636 476.424 753.108 476.773 752.353 475.787L745.739 467.115L735.029 467.945C733.808 468.03 733.034 466.634 733.714 465.574Z" fill="#D21F3C"/>
    </g>
    <g filter="url(#filter2_d_2049_100083)">
        <path d="M141.674 538.879L134.493 526.149L119.106 524.415C117.351 524.216 116.606 522.242 117.843 521.076L128.687 510.811L125.713 496.711C125.376 495.105 127.17 493.837 128.748 494.563L142.634 500.951L156.183 493.975C157.728 493.182 159.583 494.369 159.323 495.99L157.055 510.198L168.402 519.981C169.693 521.096 169.048 523.101 167.304 523.372L152.022 525.766L145.487 538.792C144.748 540.28 142.49 540.331 141.674 538.879Z" fill="#D21F3C"/>
    </g>
    <path d="M315.724 181.543C306.527 181.542 297.488 183.935 289.498 188.486C281.507 193.037 274.841 199.589 270.154 207.497C265.468 215.405 262.923 224.396 262.771 233.585C262.619 242.774 264.864 251.845 269.285 259.904L264.957 275.169C264.553 276.56 264.531 278.034 264.892 279.436C265.252 280.839 265.983 282.119 267.008 283.143C268.033 284.168 269.314 284.898 270.718 285.258C272.122 285.619 273.596 285.596 274.988 285.193L290.264 280.868C297.343 284.745 305.216 286.954 313.28 287.325C321.345 287.696 329.387 286.22 336.793 283.009C344.199 279.798 350.772 274.938 356.01 268.8C361.249 262.662 365.013 255.408 367.017 247.593C369.02 239.778 369.208 231.609 367.568 223.71C365.928 215.811 362.502 208.392 357.553 202.018C352.604 195.645 346.262 190.487 339.012 186.938C331.762 183.39 323.797 181.544 315.724 181.543Z" fill="url(#paint12_radial_2049_100083)"/>
    <path d="M296.905 244.634C301.833 244.634 305.828 240.642 305.828 235.717C305.828 230.793 301.833 226.801 296.905 226.801C291.977 226.801 287.982 230.793 287.982 235.717C287.982 240.642 291.977 244.634 296.905 244.634Z" stroke="#D21F3C" stroke-width="2.45584" stroke-linecap="round" stroke-linejoin="round"/>
    <path d="M328.135 264.696C333.063 264.696 337.058 260.704 337.058 255.78C337.058 250.855 333.063 246.863 328.135 246.863C323.208 246.863 319.213 250.855 319.213 255.78C319.213 260.704 323.208 264.696 328.135 264.696Z" stroke="#D21F3C" stroke-width="2.45584" stroke-linecap="round" stroke-linejoin="round"/>
    <path d="M328.135 224.571C333.063 224.571 337.058 220.579 337.058 215.655C337.058 210.73 333.063 206.738 328.135 206.738C323.208 206.738 319.213 210.73 319.213 215.655C319.213 220.579 323.208 224.571 328.135 224.571Z" stroke="#D21F3C" stroke-width="2.45584" stroke-linecap="round" stroke-linejoin="round"/>
    <path d="M320.634 220.477L304.406 230.898" stroke="#D21F3C" stroke-width="2.45584" stroke-linecap="round" stroke-linejoin="round"/>
    <path d="M304.406 240.539L320.634 250.96" stroke="#D21F3C" stroke-width="2.45584" stroke-linecap="round" stroke-linejoin="round"/>
    <path d="M538.583 588.41C531.576 588.41 524.689 590.233 518.601 593.7C512.513 597.167 507.434 602.159 503.863 608.184C500.293 614.209 498.354 621.06 498.238 628.061C498.122 635.063 499.832 641.974 503.201 648.114L499.904 659.744C499.596 660.804 499.579 661.927 499.854 662.996C500.128 664.064 500.685 665.04 501.466 665.82C502.247 666.6 503.223 667.157 504.293 667.431C505.362 667.706 506.486 667.689 507.546 667.381L519.185 664.086C524.579 667.04 530.577 668.723 536.721 669.006C542.866 669.289 548.993 668.164 554.636 665.718C560.278 663.271 565.287 659.568 569.278 654.892C573.269 650.215 576.137 644.688 577.663 638.734C579.189 632.78 579.333 626.556 578.084 620.538C576.834 614.519 574.224 608.866 570.453 604.011C566.682 599.155 561.85 595.225 556.327 592.521C550.803 589.817 544.734 588.411 538.583 588.41Z" fill="url(#paint13_radial_2049_100083)"/>
    <path d="M536.207 618.871C536.207 618.871 538.271 614.407 543.684 613.443C548.512 612.582 552.533 616.066 553.34 620.817C554.274 626.317 550.849 633.633 540.039 641.385C527.305 637.831 521.663 632.134 520.725 626.633C519.916 621.882 522.548 617.209 527.376 616.348C532.791 615.387 536.207 618.871 536.207 618.871Z" fill="#B0B0B8"/>
    <g filter="url(#filter3_d_2049_100083)">
        <path d="M627.191 425.198C627.191 425.198 633.752 421.695 641.162 425.463C647.771 428.824 649.443 436.691 646.081 443.156C642.191 450.642 631.384 456.345 611.272 455.848C599.155 439.957 597.546 427.945 601.433 420.456C604.792 413.987 612.231 410.748 618.84 414.109C626.249 417.884 627.191 425.198 627.191 425.198Z" fill="#D21F3C"/>
    </g>
    <path d="M198.463 166.422C191.237 166.421 184.135 168.301 177.857 171.877C171.579 175.453 166.341 180.601 162.659 186.814C158.976 193.027 156.977 200.092 156.857 207.312C156.738 214.532 158.502 221.659 161.976 227.991L158.575 239.985C158.258 241.078 158.24 242.236 158.523 243.338C158.807 244.44 159.381 245.446 160.186 246.251C160.992 247.055 161.998 247.629 163.101 247.913C164.204 248.196 165.363 248.178 166.457 247.861L178.459 244.463C184.021 247.509 190.207 249.245 196.543 249.536C202.879 249.828 209.199 248.668 215.017 246.145C220.836 243.622 226.001 239.804 230.117 234.981C234.233 230.158 237.191 224.459 238.765 218.318C240.338 212.178 240.487 205.76 239.198 199.553C237.909 193.347 235.218 187.517 231.329 182.51C227.44 177.502 222.457 173.449 216.761 170.661C211.065 167.873 204.806 166.423 198.463 166.422Z" fill="url(#paint14_radial_2049_100083)"/>
    <path d="M198.459 229.783H178.488C178.248 229.786 178.009 229.741 177.787 229.65C177.564 229.56 177.361 229.426 177.191 229.256C177.021 229.086 176.887 228.884 176.797 228.661C176.706 228.438 176.661 228.2 176.664 227.96V208.003C176.664 202.226 178.96 196.686 183.048 192.602C187.135 188.517 192.679 186.223 198.459 186.223V186.223C201.321 186.223 204.155 186.786 206.799 187.881C209.444 188.975 211.846 190.579 213.87 192.602C215.894 194.624 217.499 197.025 218.594 199.668C219.69 202.31 220.253 205.142 220.253 208.003V208.003C220.253 210.863 219.69 213.695 218.594 216.337C217.499 218.98 215.894 221.381 213.87 223.403C211.846 225.426 209.444 227.03 206.799 228.125C204.155 229.219 201.321 229.783 198.459 229.783V229.783Z" stroke="#B0B0B8" stroke-width="2.45584" stroke-linecap="round" stroke-linejoin="round"/>
    <path d="M190.877 205.16H205.091" stroke="#B0B0B8" stroke-width="2.45584" stroke-linecap="round" stroke-linejoin="round"/>
    <path d="M190.877 212.738H205.091" stroke="#B0B0B8" stroke-width="2.45584" stroke-linecap="round" stroke-linejoin="round"/>
    <path d="M249.556 561.359C241.454 561.359 233.491 563.467 226.452 567.476C219.413 571.485 213.54 577.257 209.411 584.223C205.283 591.19 203.041 599.111 202.907 607.206C202.773 615.301 204.75 623.292 208.646 630.391L204.833 643.839C204.477 645.065 204.457 646.363 204.775 647.599C205.093 648.834 205.737 649.962 206.639 650.865C207.542 651.767 208.671 652.41 209.908 652.728C211.144 653.045 212.443 653.025 213.67 652.67L227.127 648.86C233.364 652.275 240.299 654.221 247.403 654.548C254.507 654.875 261.592 653.575 268.117 650.746C274.641 647.918 280.432 643.636 285.046 638.228C289.661 632.821 292.978 626.431 294.742 619.546C296.507 612.662 296.673 605.465 295.228 598.507C293.783 591.548 290.765 585.012 286.405 579.397C282.045 573.783 276.458 569.239 270.072 566.112C263.685 562.986 256.668 561.36 249.556 561.359Z" fill="url(#paint15_radial_2049_100083)"/>
    <path d="M252.357 588.831L252.358 588.831C262.838 589.251 270.996 598.091 270.571 608.57C270.147 619.049 261.311 627.199 250.826 626.775C240.341 626.35 232.187 617.514 232.612 607.035C233.036 596.556 241.873 588.406 252.357 588.831Z" stroke="#B0B0B8" stroke-width="1.63723"/>
    <path d="M240.882 610.508C240.647 616.353 245.193 621.283 251.041 621.517C256.889 621.751 261.817 617.208 262.051 611.363L240.882 610.508Z" fill="#B0B0B8"/>
    <g filter="url(#filter4_d_2049_100083)">
        <path d="M326.452 431.051C341.845 400.065 370.737 399.696 383.258 403.385C402.316 356.169 452.891 355.43 475.797 360.963C520.509 375.719 531.687 416.911 531.687 435.662C553.676 443.777 562.838 467.018 562.838 479.006C562.838 517.433 530.771 530.649 516.111 532.494H326.452C281.557 524.194 277.893 491.917 277.893 479.006C277.893 441.196 310.877 433.818 326.452 431.051Z" fill="url(#paint16_linear_2049_100083)"/>
        <path fill-rule="evenodd" clip-rule="evenodd" d="M436.099 461.146C428.352 467.03 415.204 476.057 415.204 469.597V445.176C415.204 434.223 428.811 444.959 436.499 451.899C439.261 454.391 439.055 458.903 436.099 461.146ZM460.808 432.655C456.267 424.398 443.783 419.09 421.089 419.09C412.032 419.09 392.918 422.888 386.476 429.117C376.455 438.802 377.398 468.041 382.504 476.298C387.611 484.555 397.826 488.093 408.036 491.044C418.251 493.991 438.111 502.248 438.111 502.248L433.573 492.224C433.573 492.224 449.46 491.633 460.808 478.068C472.155 464.503 465.346 440.912 460.808 432.655Z" fill="#141414"/>
    </g>
    <path d="M691.43 110.983C692.928 110.986 694.393 110.545 695.64 109.715C696.886 108.885 697.858 107.704 698.433 106.322C699.007 104.939 699.158 103.417 698.866 101.949C698.574 100.481 697.852 99.1326 696.792 98.0747C695.732 97.0168 694.382 96.2971 692.913 96.0068C691.443 95.7165 689.921 95.8687 688.538 96.4441C687.155 97.0195 685.974 97.9921 685.145 99.2388C684.316 100.486 683.876 101.95 683.881 103.447C683.887 105.445 684.685 107.359 686.099 108.772C687.514 110.184 689.43 110.979 691.43 110.983Z" fill="#D21F3C"/>
    <g filter="url(#filter5_d_2049_100083)">
        <path d="M198.159 323.536C197.096 323.249 195.971 323.284 194.927 323.636C193.883 323.989 192.968 324.643 192.296 325.516C191.625 326.389 191.228 327.441 191.156 328.54C191.083 329.639 191.339 330.734 191.891 331.687C192.442 332.641 193.264 333.409 194.253 333.895C195.242 334.38 196.352 334.562 197.444 334.416C198.537 334.27 199.561 333.804 200.387 333.076C201.214 332.348 201.805 331.391 202.087 330.327C202.463 328.906 202.261 327.394 201.525 326.122C200.789 324.849 199.579 323.92 198.159 323.536Z" fill="#D21F3C"/>
    </g>
    <path d="M631.769 584.963C632.768 584.965 633.744 584.67 634.575 584.117C635.407 583.564 636.055 582.777 636.437 581.855C636.82 580.933 636.921 579.919 636.726 578.94C636.531 577.961 636.05 577.062 635.344 576.357C634.637 575.652 633.737 575.172 632.758 574.978C631.778 574.785 630.763 574.886 629.841 575.27C628.919 575.654 628.132 576.302 627.579 577.133C627.027 577.964 626.733 578.941 626.736 579.939C626.741 581.271 627.272 582.547 628.215 583.488C629.158 584.43 630.436 584.96 631.769 584.963Z" fill="#D21F3C"/>
    <path d="M278.949 703.322C279.947 703.324 280.924 703.03 281.755 702.477C282.586 701.923 283.234 701.136 283.617 700.214C284 699.293 284.101 698.278 283.906 697.299C283.711 696.321 283.23 695.422 282.524 694.716C281.817 694.011 280.917 693.531 279.937 693.338C278.958 693.144 277.943 693.246 277.021 693.629C276.099 694.013 275.312 694.661 274.759 695.493C274.206 696.324 273.913 697.3 273.916 698.298C273.92 699.63 274.452 700.906 275.395 701.848C276.338 702.789 277.616 703.319 278.949 703.322Z" fill="#D21F3C"/>
    <path d="M597.086 524.963C598.584 524.967 600.049 524.525 601.296 523.695C602.542 522.866 603.515 521.685 604.089 520.302C604.663 518.92 604.814 517.398 604.522 515.93C604.23 514.462 603.508 513.113 602.448 512.055C601.389 510.997 600.039 510.278 598.569 509.987C597.1 509.697 595.577 509.849 594.194 510.425C592.811 511 591.631 511.973 590.802 513.219C589.972 514.466 589.532 515.931 589.537 517.427C589.543 519.426 590.341 521.34 591.756 522.752C593.17 524.164 595.087 524.959 597.086 524.963Z" fill="#B0B0B8"/>
    <path d="M714.13 121.056C715.129 121.058 716.106 120.764 716.937 120.211C717.768 119.658 718.416 118.87 718.799 117.949C719.182 117.027 719.282 116.013 719.087 115.034C718.893 114.055 718.412 113.156 717.705 112.451C716.999 111.746 716.099 111.266 715.119 111.072C714.139 110.879 713.124 110.98 712.202 111.364C711.28 111.747 710.493 112.396 709.941 113.227C709.388 114.058 709.095 115.034 709.098 116.032C709.102 117.364 709.634 118.641 710.577 119.582C711.52 120.524 712.797 121.054 714.13 121.056Z" fill="#272728"/>
    <path d="M174.435 288.685C173.471 288.424 172.451 288.456 171.505 288.775C170.559 289.095 169.729 289.688 169.121 290.479C168.512 291.27 168.152 292.224 168.087 293.22C168.022 294.216 168.253 295.208 168.753 296.072C169.253 296.936 169.998 297.633 170.894 298.073C171.79 298.513 172.797 298.678 173.787 298.546C174.777 298.414 175.705 297.991 176.454 297.331C177.203 296.671 177.74 295.804 177.995 294.839C178.336 293.551 178.153 292.181 177.486 291.028C176.819 289.875 175.722 289.032 174.435 288.685Z" fill="#272728"/>
    <path d="M690.179 143.743C690.928 143.745 691.66 143.524 692.284 143.109C692.907 142.695 693.393 142.104 693.68 141.413C693.967 140.722 694.043 139.961 693.897 139.227C693.751 138.492 693.39 137.818 692.86 137.289C692.33 136.76 691.655 136.4 690.92 136.255C690.186 136.11 689.424 136.186 688.733 136.474C688.041 136.762 687.451 137.248 687.037 137.871C686.622 138.495 686.402 139.227 686.404 139.975C686.407 140.975 686.806 141.932 687.514 142.638C688.221 143.344 689.179 143.741 690.179 143.743Z" fill="#717278"/>
    <path d="M232.411 281.118C231.45 280.859 230.434 280.89 229.49 281.209C228.547 281.527 227.72 282.118 227.114 282.907C226.507 283.695 226.148 284.646 226.083 285.639C226.018 286.632 226.249 287.621 226.747 288.482C227.245 289.344 227.988 290.038 228.881 290.477C229.775 290.915 230.778 291.079 231.765 290.948C232.752 290.816 233.677 290.395 234.424 289.737C235.17 289.079 235.705 288.215 235.96 287.253C236.299 285.969 236.117 284.604 235.452 283.454C234.787 282.304 233.694 281.465 232.411 281.118Z" fill="#717278"/>
    <path d="M730.523 85.7825C731.272 85.7841 732.004 85.5634 732.627 85.1485C733.251 84.7336 733.737 84.1431 734.024 83.4518C734.311 82.7606 734.386 81.9997 734.24 81.2656C734.094 80.5316 733.734 79.8573 733.204 79.3284C732.674 78.7994 731.999 78.4396 731.264 78.2944C730.529 78.1493 729.768 78.2254 729.077 78.5131C728.385 78.8008 727.795 79.2871 727.38 79.9104C726.966 80.5338 726.746 81.2661 726.748 82.0145C726.751 83.0136 727.15 83.9707 727.857 84.6768C728.565 85.3829 729.523 85.7804 730.523 85.7825Z" fill="#D21F3C"/>
    <path d="M152.348 313.994C151.306 313.713 150.204 313.747 149.181 314.092C148.159 314.437 147.262 315.078 146.604 315.933C145.946 316.789 145.557 317.82 145.486 318.896C145.416 319.973 145.666 321.046 146.207 321.98C146.747 322.914 147.552 323.666 148.521 324.142C149.49 324.618 150.578 324.796 151.648 324.653C152.718 324.511 153.721 324.054 154.531 323.34C155.341 322.627 155.921 321.69 156.197 320.647C156.565 319.255 156.367 317.774 155.646 316.527C154.925 315.28 153.739 314.37 152.348 313.994Z" fill="#D21F3C"/>
    <path d="M164.009 266.088C162.983 265.811 161.899 265.844 160.892 266.184C159.886 266.524 159.003 267.154 158.356 267.996C157.709 268.838 157.326 269.852 157.257 270.911C157.187 271.971 157.434 273.027 157.965 273.946C158.497 274.864 159.289 275.605 160.242 276.073C161.196 276.542 162.266 276.717 163.319 276.576C164.372 276.436 165.359 275.986 166.156 275.284C166.953 274.582 167.523 273.66 167.795 272.634C168.158 271.264 167.963 269.807 167.253 268.58C166.544 267.353 165.377 266.457 164.009 266.088Z" fill="#D21F3C"/>
    <g filter="url(#filter6_d_2049_100083)">
        <path d="M331.53 101.375C331.53 101.375 334.35 93.9773 342.938 91.8281C350.597 89.9099 357.443 95.0603 359.265 102.602C361.377 111.332 356.687 123.462 340.185 137.113C319.338 132.815 309.643 124.291 307.526 115.56C305.698 108.018 309.407 100.22 317.066 98.3016C325.658 96.1584 331.53 101.375 331.53 101.375Z" fill="#D21F3C"/>
    </g>
    <defs>
        <filter id="filter0_d_2049_100083" x="164.62" y="333.95" width="164.577" height="115.897" filterUnits="userSpaceOnUse" color-interpolation-filters="sRGB">
            <feFlood flood-opacity="0" result="BackgroundImageFix"/>
            <feColorMatrix in="SourceAlpha" type="matrix" values="0 0 0 0 0 0 0 0 0 0 0 0 0 0 0 0 0 0 127 0" result="hardAlpha"/>
            <feOffset/>
            <feGaussianBlur stdDeviation="6.76334"/>
            <feComposite in2="hardAlpha" operator="out"/>
            <feColorMatrix type="matrix" values="0 0 0 0 0 0 0 0 0 0.803922 0 0 0 0 0.705882 0 0 0 0.8 0"/>
            <feBlend mode="normal" in2="BackgroundImageFix" result="effect1_dropShadow_2049_100083"/>
            <feBlend mode="normal" in="SourceGraphic" in2="effect1_dropShadow_2049_100083" result="shape"/>
        </filter>
        <filter id="filter1_d_2049_100083" x="688.372" y="394.169" width="125.399" height="127.279" filterUnits="userSpaceOnUse" color-interpolation-filters="sRGB">
            <feFlood flood-opacity="0" result="BackgroundImageFix"/>
            <feColorMatrix in="SourceAlpha" type="matrix" values="0 0 0 0 0 0 0 0 0 0 0 0 0 0 0 0 0 0 127 0" result="hardAlpha"/>
            <feOffset/>
            <feGaussianBlur stdDeviation="22.5445"/>
            <feComposite in2="hardAlpha" operator="out"/>
            <feColorMatrix type="matrix" values="0 0 0 0 0 0 0 0 0 0.803922 0 0 0 0 0.705882 0 0 0 0.6 0"/>
            <feBlend mode="normal" in2="BackgroundImageFix" result="effect1_dropShadow_2049_100083"/>
            <feBlend mode="normal" in="SourceGraphic" in2="effect1_dropShadow_2049_100083" result="shape"/>
        </filter>
        <filter id="filter2_d_2049_100083" x="103.704" y="480.196" width="78.9049" height="73.2682" filterUnits="userSpaceOnUse" color-interpolation-filters="sRGB">
            <feFlood flood-opacity="0" result="BackgroundImageFix"/>
            <feColorMatrix in="SourceAlpha" type="matrix" values="0 0 0 0 0 0 0 0 0 0 0 0 0 0 0 0 0 0 127 0" result="hardAlpha"/>
            <feOffset/>
            <feGaussianBlur stdDeviation="6.76334"/>
            <feComposite in2="hardAlpha" operator="out"/>
            <feColorMatrix type="matrix" values="0 0 0 0 0 0 0 0 0 0.803922 0 0 0 0 0.705882 0 0 0 0.8 0"/>
            <feBlend mode="normal" in2="BackgroundImageFix" result="effect1_dropShadow_2049_100083"/>
            <feBlend mode="normal" in="SourceGraphic" in2="effect1_dropShadow_2049_100083" result="shape"/>
        </filter>
        <filter id="filter3_d_2049_100083" x="554.464" y="367.673" width="138.395" height="133.295" filterUnits="userSpaceOnUse" color-interpolation-filters="sRGB">
            <feFlood flood-opacity="0" result="BackgroundImageFix"/>
            <feColorMatrix in="SourceAlpha" type="matrix" values="0 0 0 0 0 0 0 0 0 0 0 0 0 0 0 0 0 0 127 0" result="hardAlpha"/>
            <feOffset/>
            <feGaussianBlur stdDeviation="22.5445"/>
            <feComposite in2="hardAlpha" operator="out"/>
            <feColorMatrix type="matrix" values="0 0 0 0 0 0 0 0 0 0.803922 0 0 0 0 0.705882 0 0 0 0.6 0"/>
            <feBlend mode="normal" in2="BackgroundImageFix" result="effect1_dropShadow_2049_100083"/>
            <feBlend mode="normal" in="SourceGraphic" in2="effect1_dropShadow_2049_100083" result="shape"/>
        </filter>
        <filter id="filter4_d_2049_100083" x="215.895" y="305.638" width="408.94" height="297.87" filterUnits="userSpaceOnUse" color-interpolation-filters="sRGB">
            <feFlood flood-opacity="0" result="BackgroundImageFix"/>
            <feColorMatrix in="SourceAlpha" type="matrix" values="0 0 0 0 0 0 0 0 0 0 0 0 0 0 0 0 0 0 127 0" result="hardAlpha"/>
            <feOffset dy="9.01778"/>
            <feGaussianBlur stdDeviation="30.9986"/>
            <feComposite in2="hardAlpha" operator="out"/>
            <feColorMatrix type="matrix" values="0 0 0 0 0 0 0 0 0 0.803922 0 0 0 0 0.705882 0 0 0 0.8 0"/>
            <feBlend mode="normal" in2="BackgroundImageFix" result="effect1_dropShadow_2049_100083"/>
            <feBlend mode="normal" in="SourceGraphic" in2="effect1_dropShadow_2049_100083" result="shape"/>
        </filter>
        <filter id="filter5_d_2049_100083" x="177.618" y="309.817" width="38.1803" height="38.1744" filterUnits="userSpaceOnUse" color-interpolation-filters="sRGB">
            <feFlood flood-opacity="0" result="BackgroundImageFix"/>
            <feColorMatrix in="SourceAlpha" type="matrix" values="0 0 0 0 0 0 0 0 0 0 0 0 0 0 0 0 0 0 127 0" result="hardAlpha"/>
            <feOffset/>
            <feGaussianBlur stdDeviation="6.76334"/>
            <feComposite in2="hardAlpha" operator="out"/>
            <feColorMatrix type="matrix" values="0 0 0 0 0 0 0 0 0 0.803922 0 0 0 0 0.705882 0 0 0 0.8 0"/>
            <feBlend mode="normal" in2="BackgroundImageFix" result="effect1_dropShadow_2049_100083"/>
            <feBlend mode="normal" in="SourceGraphic" in2="effect1_dropShadow_2049_100083" result="shape"/>
        </filter>
        <filter id="filter6_d_2049_100083" x="261.977" y="46.3369" width="142.852" height="135.865" filterUnits="userSpaceOnUse" color-interpolation-filters="sRGB">
            <feFlood flood-opacity="0" result="BackgroundImageFix"/>
            <feColorMatrix in="SourceAlpha" type="matrix" values="0 0 0 0 0 0 0 0 0 0 0 0 0 0 0 0 0 0 127 0" result="hardAlpha"/>
            <feOffset/>
            <feGaussianBlur stdDeviation="22.5445"/>
            <feComposite in2="hardAlpha" operator="out"/>
            <feColorMatrix type="matrix" values="0 0 0 0 0 0 0 0 0 0.803922 0 0 0 0 0.705882 0 0 0 0.6 0"/>
            <feBlend mode="normal" in2="BackgroundImageFix" result="effect1_dropShadow_2049_100083"/>
            <feBlend mode="normal" in="SourceGraphic" in2="effect1_dropShadow_2049_100083" result="shape"/>
        </filter>
        <radialGradient id="paint0_radial_2049_100083" cx="0" cy="0" r="1" gradientUnits="userSpaceOnUse" gradientTransform="translate(412.564 412) rotate(90) scale(580.894 581.689)">
            <stop offset="0.505208" stop-color="#070707" stop-opacity="0"/>
            <stop offset="1" stop-color="white"/>
        </radialGradient>
        <radialGradient id="paint1_radial_2049_100083" cx="0" cy="0" r="1" gradientUnits="userSpaceOnUse" gradientTransform="translate(412.564 412) rotate(90) scale(396.534 397.329)">
            <stop offset="0.46875" stop-color="#070707" stop-opacity="0"/>
            <stop offset="1" stop-color="white"/>
        </radialGradient>
        <linearGradient id="paint2_linear_2049_100083" x1="540.145" y1="128.042" x2="540.145" y2="390.117" gradientUnits="userSpaceOnUse">
            <stop stop-color="white"/>
            <stop offset="1" stop-color="white" stop-opacity="0"/>
        </linearGradient>
        <linearGradient id="paint3_linear_2049_100083" x1="541.405" y1="166.833" x2="541.405" y2="331.407" gradientUnits="userSpaceOnUse">
            <stop stop-color="#0A0A0A"/>
            <stop offset="1" stop-color="#0A0A0A" stop-opacity="0"/>
        </linearGradient>
        <linearGradient id="paint4_linear_2049_100083" x1="539.814" y1="316.979" x2="538.449" y2="349.022" gradientUnits="userSpaceOnUse">
            <stop stop-color="#717171"/>
            <stop offset="1" stop-color="#696969" stop-opacity="0"/>
        </linearGradient>
        <linearGradient id="paint5_linear_2049_100083" x1="539.814" y1="316.979" x2="538.449" y2="349.022" gradientUnits="userSpaceOnUse">
            <stop stop-color="#717171"/>
            <stop offset="1" stop-color="#696969" stop-opacity="0"/>
        </linearGradient>
        <linearGradient id="paint6_linear_2049_100083" x1="539.814" y1="316.979" x2="538.449" y2="349.022" gradientUnits="userSpaceOnUse">
            <stop stop-color="#717171"/>
            <stop offset="1" stop-color="#696969" stop-opacity="0"/>
        </linearGradient>
        <linearGradient id="paint7_linear_2049_100083" x1="247.634" y1="337.035" x2="247.634" y2="516.114" gradientUnits="userSpaceOnUse">
            <stop stop-color="white"/>
            <stop offset="1"/>
        </linearGradient>
        <radialGradient id="paint8_radial_2049_100083" cx="0" cy="0" r="1" gradientUnits="userSpaceOnUse" gradientTransform="translate(246.908 392.006) rotate(90) scale(50.431 77.3254)">
            <stop stop-color="#D8FBF7"/>
            <stop offset="0.0001" stop-color="#D8FBF7"/>
            <stop offset="1" stop-color="#00CDB4"/>
        </radialGradient>
        <linearGradient id="paint9_linear_2049_100083" x1="247.988" y1="430.29" x2="248.61" y2="463.897" gradientUnits="userSpaceOnUse">
            <stop stop-color="#717171"/>
            <stop offset="1" stop-color="#696969" stop-opacity="0"/>
        </linearGradient>
        <linearGradient id="paint10_linear_2049_100083" x1="247.988" y1="430.29" x2="248.61" y2="463.897" gradientUnits="userSpaceOnUse">
            <stop stop-color="#717171"/>
            <stop offset="1" stop-color="#696969" stop-opacity="0"/>
        </linearGradient>
        <linearGradient id="paint11_linear_2049_100083" x1="247.988" y1="430.29" x2="248.61" y2="463.897" gradientUnits="userSpaceOnUse">
            <stop stop-color="#717171"/>
            <stop offset="1" stop-color="#696969" stop-opacity="0"/>
        </linearGradient>
        <radialGradient id="paint12_radial_2049_100083" cx="0" cy="0" r="1" gradientUnits="userSpaceOnUse" gradientTransform="translate(306.604 202.903) rotate(75.5297) scale(108.266 108.339)">
            <stop offset="0.530801" stop-color="#181818"/>
            <stop offset="1" stop-color="#0B8879"/>
        </radialGradient>
        <radialGradient id="paint13_radial_2049_100083" cx="0" cy="0" r="1" gradientUnits="userSpaceOnUse" gradientTransform="translate(547.81 659.46) rotate(-108.199) scale(86.6203 86.6786)">
            <stop offset="0.530801" stop-color="#141414"/>
            <stop offset="1" stop-color="#0B8879"/>
        </radialGradient>
        <radialGradient id="paint14_radial_2049_100083" cx="0" cy="0" r="1" gradientUnits="userSpaceOnUse" gradientTransform="translate(191.298 183.205) rotate(75.5297) scale(85.0663 85.1235)">
            <stop offset="0.530801" stop-color="#151515"/>
            <stop offset="1" stop-color="#0B8879"/>
        </radialGradient>
        <radialGradient id="paint15_radial_2049_100083" cx="0" cy="0" r="1" gradientUnits="userSpaceOnUse" gradientTransform="translate(238.677 638.645) rotate(-46.1322) scale(100.849 86.766)">
            <stop offset="0.400003" stop-color="#0D0D0D"/>
            <stop offset="1" stop-color="#07C5AE"/>
        </radialGradient>
        <linearGradient id="paint16_linear_2049_100083" x1="420.365" y1="330.898" x2="420.365" y2="603.052" gradientUnits="userSpaceOnUse">
            <stop stop-color="white"/>
            <stop offset="1" stop-color="#1A8376"/>
        </linearGradient>
    </defs>
</svg>
