<svg width="664" height="663" viewBox="0 0 664 663" fill="none"
    xmlns="http://www.w3.org/2000/svg">
    <g style="mix-blend-mode:color-dodge" opacity="0.6">
        <path d="M332.007 662.906C515.368 662.906 664 514.558 664 331.46C664 148.361 515.368 0 332.007 0C148.646 0 0 148.401 0 331.46C0 514.518 148.646 662.906 332.007 662.906Z" fill="url(#paint0_radial_2049_100158)"/>
    </g>
    <g style="mix-blend-mode:color-dodge" opacity="0.6">
        <path d="M332.004 546.951C451.324 546.951 548.045 450.501 548.045 331.457C548.045 212.412 451.324 115.953 332.004 115.953C212.683 115.953 115.953 212.438 115.953 331.457C115.953 450.475 212.683 546.951 332.004 546.951Z" fill="url(#paint1_radial_2049_100158)"/>
    </g>
    <path opacity="0.3" d="M344.585 615.869C501.665 615.869 628.994 488.574 628.994 331.46C628.994 174.346 501.665 47.0391 344.585 47.0391C187.505 47.0391 60.1641 174.38 60.1641 331.46C60.1641 488.54 187.505 615.869 344.585 615.869Z" stroke="#272728" stroke-width="1.0939" stroke-miterlimit="10"/>
    <g filter="url(#filter0_d_2049_100158)">
        <path d="M445.904 113.539C453.615 121.31 457.947 131.849 457.947 142.839L457.945 535.609C457.945 546.599 453.613 557.138 445.902 564.909C438.19 572.68 427.732 577.045 416.826 577.045H266.305C260.905 577.045 255.558 575.974 250.569 573.891C245.58 571.809 241.047 568.757 237.229 564.909C233.411 561.061 230.382 556.493 228.316 551.466C226.249 546.439 225.186 541.051 225.186 535.609V142.838C225.186 137.397 226.249 132.008 228.316 126.981C230.382 121.954 233.411 117.386 237.229 113.538C241.048 109.691 245.581 106.639 250.57 104.556C255.558 102.474 260.905 101.402 266.305 101.402H416.828C427.733 101.402 438.192 105.768 445.904 113.539Z" fill="black"/>
        <path d="M445.904 113.539C453.615 121.31 457.947 131.849 457.947 142.839L457.945 535.609C457.945 546.599 453.613 557.138 445.902 564.909C438.19 572.68 427.732 577.045 416.826 577.045H266.305C260.905 577.045 255.558 575.974 250.569 573.891C245.58 571.809 241.047 568.757 237.229 564.909C233.411 561.061 230.382 556.493 228.316 551.466C226.249 546.439 225.186 541.051 225.186 535.609V142.838C225.186 137.397 226.249 132.008 228.316 126.981C230.382 121.954 233.411 117.386 237.229 113.538C241.048 109.691 245.581 106.639 250.57 104.556C255.558 102.474 260.905 101.402 266.305 101.402H416.828C427.733 101.402 438.192 105.768 445.904 113.539Z" stroke="#D21F3C" stroke-width="2.18781"/>
    </g>
    <path opacity="0.6" d="M451.321 102.485C459.425 110.636 463.978 121.692 463.978 133.22L463.976 545.228C463.976 556.756 459.423 567.811 451.319 575.963C443.215 584.114 432.223 588.694 420.762 588.694H262.575C256.9 588.694 251.28 587.57 246.038 585.385C240.795 583.201 236.031 579.999 232.018 575.963C228.005 571.927 224.822 567.135 222.651 561.862C220.479 556.588 219.361 550.936 219.361 545.228V133.219C219.361 127.511 220.479 121.859 222.651 116.586C224.823 111.312 228.006 106.52 232.019 102.484C236.031 98.4482 240.795 95.2466 246.038 93.0623C251.281 90.878 256.9 89.7538 262.575 89.7539H420.765C432.225 89.7539 443.217 94.3333 451.321 102.485Z" stroke="#00CDB4" stroke-opacity="0.6" stroke-width="1.0939"/>
    <path opacity="0.4" d="M456.542 91.4308C465.032 99.9629 469.802 111.535 469.802 123.601L469.8 554.847C469.8 566.913 465.03 578.485 456.54 587.017C448.05 595.549 436.535 600.342 424.529 600.342H258.808C252.863 600.342 246.976 599.165 241.484 596.879C235.991 594.593 231 591.242 226.797 587.017C222.593 582.792 219.258 577.777 216.983 572.257C214.708 566.737 213.537 560.821 213.537 554.847V123.6C213.537 117.626 214.708 111.71 216.983 106.19C219.259 100.67 222.593 95.6549 226.797 91.4303C231.001 87.2057 235.992 83.8546 241.484 81.5683C246.977 79.2821 252.864 78.1054 258.809 78.1055H424.531C436.538 78.1055 448.052 82.8987 456.542 91.4308Z" stroke="#00CDB4" stroke-opacity="0.4" stroke-width="1.0939"/>
    <path d="M447.828 142.549V535.892C447.827 544.121 444.595 552.012 438.842 557.83C433.09 563.649 425.288 566.919 417.152 566.922H266.003C257.863 566.924 250.057 563.655 244.301 557.836C238.544 552.017 235.309 544.124 235.307 535.892V142.549C235.309 134.318 238.544 126.425 244.3 120.606C250.057 114.787 257.862 111.518 266.001 111.52H284.337C283.436 113.759 283.094 116.187 283.339 118.591C283.584 120.996 284.409 123.303 285.742 125.309C287.075 127.315 288.875 128.959 290.984 130.097C293.092 131.235 295.445 131.832 297.835 131.835H384.008C386.398 131.832 388.751 131.235 390.859 130.097C392.968 128.959 394.768 127.315 396.101 125.309C397.434 123.303 398.259 120.996 398.504 118.591C398.749 116.187 398.406 113.759 397.506 111.52H417.146C425.282 111.521 433.085 114.79 438.838 120.607C444.591 126.425 447.825 134.315 447.828 142.543V142.549Z" fill="url(#paint2_linear_2049_100158)" fill-opacity="0.3"/>
    <path d="M281.385 386.782H286.485V368.278H286.636L294.03 386.782H297.633L305.008 368.278H305.178V386.782H310.278V359.424H303.662L295.888 379.085H295.775L288.001 359.424H281.385V386.782Z" fill="white"/>
    <path d="M319.093 393.475C323.605 393.475 326.335 391.939 327.928 387.142L334.904 366.458H329.065L324.761 382.346H324.61L320.325 366.458H314.239L321.425 386.782L321.178 387.446C320.685 388.83 319.775 389.304 318.126 389.304C317.311 389.304 316.666 389.19 316.268 389.114V393.228C316.912 393.342 318.012 393.475 319.093 393.475Z" fill="white"/>
    <path d="M346.961 387.199C352.383 387.199 355.891 383.824 356.156 379.388V379.274H350.999L350.98 379.445C350.601 381.492 349.217 382.858 346.999 382.858C344.269 382.858 342.562 380.601 342.562 376.62V376.601C342.562 372.714 344.269 370.383 346.98 370.383C349.274 370.383 350.62 371.861 350.961 373.795L350.999 373.966H356.137V373.833C355.928 369.435 352.421 366.041 346.904 366.041C340.818 366.041 336.932 370.079 336.932 376.582V376.601C336.932 383.161 340.761 387.199 346.961 387.199Z" fill="white"/>
    <path d="M360.515 386.782H366.051V359.424H360.515V386.782Z" fill="white"/>
    <path d="M374.221 363.842C375.889 363.842 377.178 362.533 377.178 360.96C377.178 359.386 375.889 358.078 374.221 358.078C372.552 358.078 371.263 359.386 371.263 360.96C371.263 362.533 372.552 363.842 374.221 363.842ZM371.453 386.782H376.989V366.458H371.453V386.782Z" fill="white"/>
    <path d="M382.258 393.418H387.794V383.313H387.908C389.007 385.72 391.301 387.199 394.202 387.199C399.283 387.199 402.43 383.218 402.43 376.62V376.601C402.43 369.984 399.283 366.041 394.126 366.041C391.245 366.041 389.026 367.539 387.927 370.003H387.794V366.458H382.258V393.418ZM392.306 382.611C389.614 382.611 387.775 380.298 387.775 376.639V376.62C387.775 372.942 389.614 370.629 392.306 370.629C395.055 370.629 396.799 372.885 396.799 376.601V376.62C396.799 380.317 395.055 382.611 392.306 382.611Z" fill="white"/>
    <g filter="url(#filter1_d_2049_100158)">
        <path fill-rule="evenodd" clip-rule="evenodd" d="M353.193 303.07C346.376 308.198 334.808 316.065 334.808 310.436V289.153C334.808 279.607 346.78 288.964 353.545 295.012C355.975 297.183 355.793 301.116 353.193 303.07ZM374.933 278.239C370.938 271.044 359.953 266.418 339.985 266.418C332.016 266.418 315.198 269.728 309.53 275.156C300.713 283.597 301.542 309.078 306.035 316.274C310.528 323.47 319.516 326.553 328.5 329.125C337.488 331.693 354.962 338.889 354.962 338.889L350.969 330.153C350.969 330.153 364.948 329.638 374.933 317.817C384.917 305.995 378.925 285.435 374.933 278.239Z" fill="#D21F3C"/>
    </g>
    <path d="M174.453 132.181V130.968C174.453 126.725 174.453 122.486 174.453 118.251C174.453 117.668 174.498 117.295 175.132 117.044C179.987 115.136 184.808 113.182 189.646 111.245C189.839 111.185 190.036 111.138 190.235 111.105V130.938C190.272 131.952 189.992 132.95 189.436 133.783C188.879 134.615 188.077 135.236 187.151 135.553C186.182 135.99 185.113 136.13 184.07 135.955C183.027 135.78 182.053 135.299 181.265 134.567C180.734 133.984 180.415 133.228 180.363 132.427C180.31 131.626 180.528 130.832 180.979 130.18C181.622 129.265 182.5 128.557 183.513 128.138C184.525 127.719 185.63 127.601 186.703 127.8C187.034 127.87 187.359 127.952 187.746 128.039V118.409C187.488 118.471 187.234 118.547 186.983 118.636C183.911 119.861 180.856 121.109 177.772 122.299C177.481 122.366 177.224 122.546 177.055 122.801C176.883 123.054 176.811 123.364 176.853 123.67C176.892 127.38 176.853 131.084 176.886 134.794C176.972 135.754 176.771 136.718 176.309 137.553C175.847 138.389 175.148 139.055 174.308 139.461C173.434 139.985 172.439 140.249 171.432 140.225C170.422 140.201 169.438 139.893 168.584 139.332C168.178 139.084 167.828 138.748 167.558 138.347C167.28 137.951 167.089 137.497 166.997 137.017C166.913 136.535 166.924 136.041 167.031 135.564C167.143 135.09 167.35 134.645 167.636 134.258C168.33 133.336 169.261 132.639 170.321 132.245C171.381 131.852 172.526 131.779 173.624 132.035C173.87 132.07 174.095 132.117 174.453 132.181Z" fill="black"/>
    <path d="M174.453 132.181V130.968C174.453 126.725 174.453 122.486 174.453 118.251C174.453 117.668 174.498 117.295 175.132 117.044C179.987 115.136 184.808 113.182 189.646 111.245C189.839 111.185 190.036 111.138 190.235 111.105V130.938C190.272 131.952 189.992 132.95 189.436 133.783C188.879 134.615 188.077 135.236 187.151 135.553C186.182 135.99 185.113 136.13 184.07 135.955C183.027 135.78 182.053 135.299 181.265 134.567C180.734 133.984 180.415 133.228 180.363 132.427C180.31 131.626 180.528 130.832 180.979 130.18C181.622 129.265 182.5 128.557 183.513 128.138C184.525 127.719 185.63 127.601 186.703 127.8C187.034 127.87 187.359 127.952 187.746 128.039V118.409C187.488 118.471 187.234 118.547 186.983 118.636C183.911 119.861 180.856 121.109 177.772 122.299C177.481 122.366 177.224 122.546 177.055 122.801C176.883 123.054 176.811 123.364 176.853 123.67C176.892 127.38 176.853 131.084 176.886 134.794C176.972 135.754 176.771 136.718 176.309 137.553C175.847 138.389 175.148 139.055 174.308 139.461C173.434 139.985 172.439 140.249 171.432 140.225C170.422 140.201 169.438 139.893 168.584 139.332C168.178 139.084 167.828 138.748 167.558 138.347C167.28 137.951 167.089 137.497 166.997 137.017C166.913 136.535 166.924 136.041 167.031 135.564C167.143 135.09 167.35 134.645 167.636 134.258C168.33 133.336 169.261 132.639 170.321 132.245C171.381 131.852 172.526 131.779 173.624 132.035C173.87 132.07 174.095 132.117 174.453 132.181Z" fill="url(#paint3_linear_2049_100158)"/>
    <path d="M493.949 182.735C495.659 182.739 497.331 182.235 498.755 181.287C500.178 180.339 501.288 178.989 501.943 177.41C502.599 175.83 502.771 174.092 502.438 172.414C502.104 170.737 501.28 169.196 500.07 167.988C498.861 166.779 497.319 165.957 495.642 165.625C493.964 165.293 492.226 165.467 490.647 166.125C489.068 166.782 487.72 167.893 486.774 169.318C485.827 170.742 485.325 172.415 485.33 174.125C485.337 176.408 486.248 178.595 487.863 180.209C489.478 181.822 491.666 182.731 493.949 182.735Z" fill="#D21F3C"/>
    <path d="M540.159 129.513C541.019 129.513 541.86 129.258 542.576 128.78C543.291 128.302 543.848 127.623 544.178 126.828C544.507 126.033 544.593 125.158 544.425 124.314C544.257 123.47 543.843 122.695 543.235 122.087C542.626 121.478 541.851 121.064 541.007 120.896C540.164 120.728 539.289 120.814 538.494 121.144C537.699 121.473 537.02 122.031 536.542 122.746C536.064 123.461 535.809 124.303 535.809 125.163C535.809 126.317 536.267 127.423 537.083 128.239C537.899 129.055 539.005 129.513 540.159 129.513Z" fill="#00CDB4" fill-opacity="0.3"/>
    <circle cx="547.455" cy="254.769" r="50.4764" fill="url(#paint4_radial_2049_100158)"/>
    <path d="M548.426 276.121C560.756 276.121 570.752 266.125 570.752 253.795C570.752 241.464 560.756 231.469 548.426 231.469C536.095 231.469 526.1 241.464 526.1 253.795C526.1 266.125 536.095 276.121 548.426 276.121Z" stroke="#B0B0B8" stroke-width="1.64086"/>
    <path d="M537.758 256.707C537.5 262.887 542.5 268.099 548.933 268.346C555.366 268.594 560.787 263.791 561.045 257.611L537.758 256.707Z" fill="#B0B0B8"/>
    <circle cx="146.556" cy="224.674" r="51.4471" fill="url(#paint5_radial_2049_100158)"/>
    <path d="M167.104 247.768L167.104 200.608C167.104 199.425 166.144 198.465 164.96 198.465L126.375 198.465C125.191 198.465 124.231 199.425 124.231 200.608L124.231 247.768C124.231 248.952 125.191 249.912 126.375 249.912L164.96 249.912C166.144 249.912 167.104 248.952 167.104 247.768Z" stroke="#B0B0B8" stroke-width="1.64086" stroke-linecap="round" stroke-linejoin="round"/>
    <path d="M167.104 224.188L124.231 224.187" stroke="#B0B0B8" stroke-width="1.64086" stroke-linecap="round" stroke-linejoin="round"/>
    <path d="M158.529 198.465L158.529 249.912" stroke="#B0B0B8" stroke-width="1.64086" stroke-linecap="round" stroke-linejoin="round"/>
    <path d="M132.807 198.465L132.807 249.912" stroke="#B0B0B8" stroke-width="1.64086" stroke-linecap="round" stroke-linejoin="round"/>
    <path d="M167.104 211.328L158.529 211.328" stroke="#B0B0B8" stroke-width="1.64086" stroke-linecap="round" stroke-linejoin="round"/>
    <path d="M167.104 237.051L158.529 237.051" stroke="#B0B0B8" stroke-width="1.64086" stroke-linecap="round" stroke-linejoin="round"/>
    <path d="M132.807 211.328L124.232 211.328" stroke="#B0B0B8" stroke-width="1.64086" stroke-linecap="round" stroke-linejoin="round"/>
    <path d="M132.807 237.051L124.232 237.051" stroke="#B0B0B8" stroke-width="1.64086" stroke-linecap="round" stroke-linejoin="round"/>
    <circle cx="550.369" cy="403.283" r="32.0331" fill="url(#paint6_radial_2049_100158)"/>
    <path d="M543.574 391.966C543.574 389.423 546.404 387.872 548.585 389.22L565.332 399.567C567.384 400.835 567.384 403.79 565.332 405.058L548.585 415.405C546.404 416.753 543.574 415.202 543.574 412.659V391.966Z" stroke="#B0B0B8" stroke-width="2.18781" stroke-linecap="round" stroke-linejoin="round"/>
    <circle cx="171.797" cy="457.642" r="37.8573" fill="url(#paint7_radial_2049_100158)"/>
    <path d="M171.428 481.172C183.555 481.172 193.385 471.342 193.385 459.215C193.385 447.088 183.555 437.258 171.428 437.258C159.301 437.258 149.471 447.088 149.471 459.215C149.471 471.342 159.301 481.172 171.428 481.172Z" stroke="#B0B0B8" stroke-width="1.64086" stroke-linecap="round" stroke-linejoin="round"/>
    <path d="M158.393 476.891C161.652 471.496 166.249 467.035 171.739 463.937C177.228 460.84 183.424 459.212 189.727 459.211C190.962 459.211 192.175 459.28 193.387 459.394" stroke="#B0B0B8" stroke-width="1.64086" stroke-linecap="round" stroke-linejoin="round"/>
    <path d="M185.152 442.09C181.723 446.302 177.398 449.696 172.492 452.026C167.586 454.357 162.222 455.564 156.791 455.562C154.481 455.559 152.177 455.345 149.906 454.921" stroke="#B0B0B8" stroke-width="1.64086" stroke-linecap="round" stroke-linejoin="round"/>
    <path d="M161.799 439.48C168.607 443.494 173.938 449.597 177 456.882C180.061 464.168 180.69 472.247 178.793 479.918" stroke="#B0B0B8" stroke-width="1.64086" stroke-linecap="round" stroke-linejoin="round"/>
    <circle cx="499.891" cy="362.518" r="24.2675" fill="url(#paint8_radial_2049_100158)"/>
    <path d="M495.121 366.506V365.52C495.121 362.072 495.121 358.627 495.121 355.186C495.121 354.712 495.159 354.408 495.694 354.205C499.799 352.654 503.876 351.066 507.966 349.493C508.129 349.444 508.295 349.406 508.464 349.379V365.496C508.496 366.319 508.258 367.131 507.788 367.807C507.318 368.484 506.64 368.989 505.857 369.246C505.037 369.601 504.133 369.715 503.251 369.573C502.369 369.431 501.546 369.039 500.88 368.444C500.431 367.971 500.161 367.356 500.117 366.706C500.073 366.055 500.257 365.409 500.638 364.88C501.182 364.136 501.924 363.561 502.781 363.221C503.636 362.879 504.571 362.784 505.478 362.946C505.757 363.003 506.032 363.069 506.359 363.14V355.314C506.141 355.364 505.926 355.426 505.715 355.499C503.117 356.494 500.534 357.509 497.927 358.476C497.68 358.53 497.464 358.676 497.32 358.883C497.175 359.088 497.114 359.341 497.149 359.59C497.183 362.604 497.149 365.614 497.178 368.629C497.251 369.409 497.08 370.192 496.69 370.872C496.299 371.551 495.708 372.092 494.998 372.422C494.259 372.848 493.418 373.062 492.566 373.043C491.712 373.023 490.88 372.773 490.158 372.317C489.815 372.115 489.519 371.842 489.291 371.516C489.056 371.195 488.894 370.826 488.817 370.435C488.745 370.044 488.755 369.642 488.845 369.255C488.94 368.869 489.115 368.508 489.357 368.193C489.944 367.445 490.731 366.878 491.627 366.558C492.523 366.238 493.491 366.179 494.419 366.387C494.628 366.416 494.817 366.454 495.121 366.506Z" fill="white"/>
    <circle cx="173.736" cy="306.213" r="6.7949" fill="#8A8B93"/>
    <g style="mix-blend-mode:color-dodge" opacity="0.6">
        <path d="M332.004 546.951C451.324 546.951 548.045 450.501 548.045 331.457C548.045 212.412 451.324 115.953 332.004 115.953C212.683 115.953 115.953 212.438 115.953 331.457C115.953 450.475 212.683 546.951 332.004 546.951Z" fill="url(#paint9_radial_2049_100158)"/>
    </g>
    <defs>
        <filter id="filter0_d_2049_100158" x="177.054" y="53.2707" width="329.025" height="571.908" filterUnits="userSpaceOnUse" color-interpolation-filters="sRGB">
            <feFlood flood-opacity="0" result="BackgroundImageFix"/>
            <feColorMatrix in="SourceAlpha" type="matrix" values="0 0 0 0 0 0 0 0 0 0 0 0 0 0 0 0 0 0 127 0" result="hardAlpha"/>
            <feOffset/>
            <feGaussianBlur stdDeviation="23.5189"/>
            <feComposite in2="hardAlpha" operator="out"/>
            <feColorMatrix type="matrix" values="0 0 0 0 0 0 0 0 0 0.803922 0 0 0 0 0.705882 0 0 0 0.4 0"/>
            <feBlend mode="normal" in2="BackgroundImageFix" result="effect1_dropShadow_2049_100158"/>
            <feBlend mode="normal" in="SourceGraphic" in2="effect1_dropShadow_2049_100158" result="shape"/>
        </filter>
        <filter id="filter1_d_2049_100158" x="244.763" y="217.192" width="193.61" height="188.427" filterUnits="userSpaceOnUse" color-interpolation-filters="sRGB">
            <feFlood flood-opacity="0" result="BackgroundImageFix"/>
            <feColorMatrix in="SourceAlpha" type="matrix" values="0 0 0 0 0 0 0 0 0 0 0 0 0 0 0 0 0 0 127 0" result="hardAlpha"/>
            <feOffset dy="8.75124"/>
            <feGaussianBlur stdDeviation="28.9885"/>
            <feComposite in2="hardAlpha" operator="out"/>
            <feColorMatrix type="matrix" values="0 0 0 0 0 0 0 0 0 0.803922 0 0 0 0 0.705882 0 0 0 0.36 0"/>
            <feBlend mode="normal" in2="BackgroundImageFix" result="effect1_dropShadow_2049_100158"/>
            <feBlend mode="normal" in="SourceGraphic" in2="effect1_dropShadow_2049_100158" result="shape"/>
        </filter>
        <radialGradient id="paint0_radial_2049_100158" cx="0" cy="0" r="1" gradientUnits="userSpaceOnUse" gradientTransform="translate(332 331.453) rotate(90) scale(467.328 468.099)">
            <stop offset="0.505208" stop-color="#070707" stop-opacity="0"/>
            <stop offset="1" stop-color="white"/>
        </radialGradient>
        <radialGradient id="paint1_radial_2049_100158" cx="0" cy="0" r="1" gradientUnits="userSpaceOnUse" gradientTransform="translate(331.999 331.452) rotate(90) scale(303.84 304.612)">
            <stop offset="0.505208" stop-color="#070707" stop-opacity="0"/>
            <stop offset="1" stop-color="white"/>
        </radialGradient>
        <linearGradient id="paint2_linear_2049_100158" x1="341.567" y1="111.52" x2="341.567" y2="566.922" gradientUnits="userSpaceOnUse">
            <stop stop-color="#00CDB4"/>
            <stop offset="1" stop-color="white" stop-opacity="0"/>
        </linearGradient>
        <linearGradient id="paint3_linear_2049_100158" x1="188.28" y1="59.2423" x2="141.848" y2="103.981" gradientUnits="userSpaceOnUse">
            <stop stop-color="#1890FD"/>
            <stop offset="1" stop-color="#141414" stop-opacity="0"/>
        </linearGradient>
        <radialGradient id="paint4_radial_2049_100158" cx="0" cy="0" r="1" gradientUnits="userSpaceOnUse" gradientTransform="translate(571.565 239.567) rotate(126.384) scale(90.3598 90.3673)">
            <stop offset="0.530801" stop-color="#151515"/>
            <stop offset="1" stop-color="#0B8879"/>
        </radialGradient>
        <radialGradient id="paint5_radial_2049_100158" cx="0" cy="0" r="1" gradientUnits="userSpaceOnUse" gradientTransform="translate(57.9764 179.948) rotate(32.7565) scale(176.902 176.917)">
            <stop offset="0.530801" stop-color="#151515"/>
            <stop offset="1" stop-color="#0B8879"/>
        </radialGradient>
        <radialGradient id="paint6_radial_2049_100158" cx="0" cy="0" r="1" gradientUnits="userSpaceOnUse" gradientTransform="translate(642.669 470.377) rotate(-152.001) scale(175.926 148.264)">
            <stop offset="0.530801" stop-color="#151515"/>
            <stop offset="1" stop-color="#0B8879"/>
        </radialGradient>
        <radialGradient id="paint7_radial_2049_100158" cx="0" cy="0" r="1" gradientUnits="userSpaceOnUse" gradientTransform="translate(133.457 511.947) rotate(-37.1169) scale(152.273 152.286)">
            <stop offset="0.44324" stop-color="#151515"/>
            <stop offset="1" stop-color="#0B8879"/>
        </radialGradient>
        <radialGradient id="paint8_radial_2049_100158" cx="0" cy="0" r="1" gradientUnits="userSpaceOnUse" gradientTransform="translate(601.646 338.019) rotate(171.069) scale(155.026 155.039)">
            <stop offset="0.530801" stop-color="#151515"/>
            <stop offset="1" stop-color="#0B8879"/>
        </radialGradient>
        <radialGradient id="paint9_radial_2049_100158" cx="0" cy="0" r="1" gradientUnits="userSpaceOnUse" gradientTransform="translate(331.999 331.452) rotate(90) scale(303.84 304.612)">
            <stop offset="0.505208" stop-color="#070707" stop-opacity="0"/>
            <stop offset="1" stop-color="white"/>
        </radialGradient>
    </defs>
</svg>
