<svg width="57" height="114" viewBox="0 0 57 114" fill="none" xmlns="http://www.w3.org/2000/svg">
<path d="M55.8727 27.0907V27.5907H56.3727H56.5L56.4995 38.805H56.3722H55.8722V39.305V104.069C55.8722 106.57 54.876 108.968 53.1023 110.737C51.3286 112.506 48.9226 113.5 46.4136 113.5H9.95865C8.71633 113.5 7.48621 113.256 6.33853 112.782C5.19085 112.308 4.14814 111.613 3.26989 110.737C2.39164 109.861 1.69504 108.822 1.21981 107.677C0.744582 106.533 0.5 105.307 0.5 104.069V9.93115C0.50002 8.69281 0.74462 7.46656 1.21987 6.32241C1.69512 5.17826 2.39173 4.13857 3.27 3.26274C4.14826 2.38691 5.19099 1.6921 6.33867 1.21804C7.48636 0.743983 8.71648 0.49998 9.9588 0.5H46.4141C48.9231 0.5 51.3291 1.49399 53.1028 3.26285C54.8765 5.03167 55.8727 7.43041 55.8727 9.93131V27.0907Z" stroke="white"/>
<path d="M54 9.56309V105.437C53.9997 107.442 53.2089 109.366 51.8014 110.784C50.3939 112.202 48.485 112.999 46.4942 113H9.51071C7.51924 113 5.6092 112.204 4.2007 110.785C2.7922 109.367 2.00059 107.443 2 105.437V9.56309C2.00059 7.55686 2.79216 5.63302 4.20059 4.2147C5.60903 2.79638 7.51899 1.99974 9.51039 2H13.9967C13.7764 2.54575 13.6926 3.13766 13.7525 3.72371C13.8125 4.30975 14.0144 4.87199 14.3406 5.36099C14.6668 5.85 15.1072 6.2508 15.6231 6.52817C16.139 6.80555 16.7147 6.951 17.2995 6.95175H38.3844C38.9692 6.951 39.5449 6.80555 40.0608 6.52817C40.5767 6.2508 41.0171 5.85 41.3433 5.36099C41.6694 4.87199 41.8714 4.30975 41.9314 3.72371C41.9913 3.13766 41.9075 2.54575 41.6872 2H46.4928C48.4835 2.00034 50.3926 2.79708 51.8003 4.21504C53.2081 5.63301 53.9993 7.55614 54 9.56164V9.56309Z" fill="url(#paint0_linear_1966_75609)" fill-opacity="0.12"/>
<path d="M30.4438 42.8839C29.9112 42.7595 29.3621 42.6953 28.8063 42.6953C26.8956 42.6953 25.0632 43.4543 23.7122 44.8054C22.3611 46.1564 21.6021 47.9888 21.6021 49.8995C21.6021 58.3044 18 60.7058 18 60.7058H39.6126C39.6126 60.7058 37.0036 58.9665 36.2264 53.2673" stroke="#B0B0B8" stroke-linecap="round" stroke-linejoin="round"/>
<path d="M25.8993 65.2578L31.7134 65.2578" stroke="#B0B0B8" stroke-linecap="round" stroke-linejoin="round"/>
<circle cx="34" cy="47" r="3" fill="white"/>
<defs>
<linearGradient id="paint0_linear_1966_75609" x1="28" y1="2" x2="28" y2="113" gradientUnits="userSpaceOnUse">
<stop stop-color="white"/>
<stop offset="1" stop-color="white" stop-opacity="0"/>
</linearGradient>
</defs>
</svg>
