<svg width="24" height="24" viewBox="0 0 24 24" fill="none" xmlns="http://www.w3.org/2000/svg">
<g clip-path="url(#clip0_9132_95937)">
<path d="M21.8228 0.394336C21.6626 0.324888 21.4782 0.340747 21.3322 0.436523C21.1863 0.53235 21.0984 0.695188 21.0984 0.869792V4.40358C20.9646 4.37316 20.822 4.35678 20.6733 4.35678C19.8741 4.35678 19.248 4.82809 19.248 5.42974C19.248 6.03139 19.8741 6.5027 20.6733 6.5027C21.3663 6.5027 21.9288 6.14821 22.0661 5.66166C22.1229 5.28427 22.1385 4.48277 22.1349 1.78914C22.5396 2.10057 22.9632 2.56198 22.9632 3.12932C22.9632 3.41551 23.1953 3.64759 23.4814 3.64759C23.7676 3.64759 23.9997 3.41551 23.9997 3.12932C23.9998 1.35846 21.9117 0.432843 21.8228 0.394336Z" fill="#D21F3C"/>
<path d="M19.0147 7.46599C18.8148 6.79837 18.1885 6.33203 17.4916 6.33203C17.2395 6.33203 15.0509 6.33203 14.5339 6.33203C13.8259 6.33203 13.2137 6.78774 13.0107 7.46599L10.9539 14.3363C10.8193 14.7859 11.0747 15.2594 11.5243 15.394C11.9737 15.5286 12.4474 15.2732 12.582 14.8236L13.753 10.9123C13.753 10.9963 13.8246 10.5064 12.822 16.9763C12.774 17.286 13.0138 17.566 13.3274 17.566H13.7534V22.626C13.7534 23.1891 14.21 23.6456 14.7731 23.6456C15.3362 23.6456 15.7928 23.1891 15.7928 22.626V17.566H16.2331V22.626C16.2331 23.1891 16.6896 23.6456 17.2527 23.6456C17.8159 23.6456 18.2724 23.1891 18.2724 22.626V17.566H18.6795C18.9929 17.566 19.2329 17.2862 19.1849 16.9763C18.167 10.4075 18.254 11.0194 18.254 10.8506L19.4435 14.8236C19.5781 15.2733 20.0518 15.5286 20.5012 15.394C20.9508 15.2594 21.2062 14.7859 21.0716 14.3363L19.0147 7.46599Z" fill="#D21F3C"/>
<path d="M16.0131 5.77223C16.9857 5.77223 17.7742 4.98375 17.7742 4.01111C17.7742 3.03848 16.9857 2.25 16.0131 2.25C15.0404 2.25 14.252 3.03848 14.252 4.01111C14.252 4.98375 15.0404 5.77223 16.0131 5.77223Z" fill="#D21F3C"/>
<path d="M8.09671 7.46599C7.89687 6.79837 7.27055 6.33203 6.57359 6.33203C6.506 6.33203 6.46599 6.33203 3.61595 6.33203C2.90806 6.33203 2.29593 6.78769 2.09278 7.46599L0.0359388 14.3363C-0.0987063 14.7859 0.156694 15.2594 0.606289 15.394C1.05578 15.5286 1.52947 15.2732 1.66401 14.8236L2.83498 10.9123C2.83498 10.9963 2.90666 10.5064 1.90402 16.9763C1.85603 17.286 2.09583 17.566 2.40944 17.566H2.83545V22.626C2.83545 23.1891 3.29194 23.6456 3.85513 23.6456C4.41828 23.6456 4.87482 23.1891 4.87482 22.626V17.566H5.31514V22.626C5.31514 23.1891 5.77168 23.6456 6.33482 23.6456C6.89797 23.6456 7.35451 23.1891 7.35451 22.626V17.566H7.76155C8.07495 17.566 8.31495 17.2862 8.26696 16.9763C7.24904 10.4075 7.33601 11.0195 7.33601 10.8506L8.52547 14.8236C8.66012 15.2733 9.13376 15.5286 9.5832 15.394C10.0328 15.2594 10.2882 14.7859 10.1536 14.3363L8.09671 7.46599Z" fill="#D21F3C"/>
<path d="M5.0951 5.77223C6.06774 5.77223 6.85621 4.98375 6.85621 4.01111C6.85621 3.03848 6.06774 2.25 5.0951 2.25C4.12246 2.25 3.33398 3.03848 3.33398 4.01111C3.33398 4.98375 4.12246 5.77223 5.0951 5.77223Z" fill="#D21F3C"/>
</g>
<defs>
<clipPath id="clip0_9132_95937">
<rect width="24" height="24" fill="white"/>
</clipPath>
</defs>
</svg>
