<svg width="24" height="24" viewBox="0 0 24 24" fill="none"
    xmlns="http://www.w3.org/2000/svg">
    <path d="M1.4731 13.0693C1.34437 13.1592 1.25358 13.2936 1.21833 13.4466C1.18308 13.5996 1.20587 13.7602 1.2823 13.8973L2.8375 16.5901C2.9971 16.8661 3.3631 16.9801 3.6499 16.8397L8.3995 14.5393V22.8001H10.7995V13.3753L15.6847 11.0077L12.5407 5.5597L1.4731 13.0693ZM22.1479 3.6445C21.5012 2.52616 20.4369 1.71037 19.1889 1.37644C17.941 1.04252 16.6115 1.21777 15.4927 1.8637C14.4007 2.4937 13.6831 3.4945 13.3315 4.6105L16.9027 10.7977C18.0439 11.0521 19.2703 10.9297 20.3647 10.2997C21.4837 9.65362 22.3002 8.58949 22.6346 7.34141C22.969 6.09332 22.7939 4.7635 22.1479 3.6445Z" fill="currentColor"/>
</svg>
