<svg width="24" height="24" viewBox="0 0 24 24" fill="none" xmlns="http://www.w3.org/2000/svg">
<g clip-path="url(#clip0_9132_95884)">
<path d="M15.8725 13.3504L14.961 11.7274C14.8981 11.6075 14.8836 11.4681 14.9205 11.3379C15.158 10.4086 15.2137 9.44226 15.0845 8.49189C14.8837 7.10546 14.3021 5.80196 13.4044 4.72649C12.5068 3.65101 11.3282 2.84577 10 2.40039V6.17739C10.9532 6.72773 11.6982 7.57721 12.1194 8.5941C12.5406 9.61099 12.6145 10.7384 12.3296 11.8016C12.0448 12.8648 11.417 13.8042 10.5438 14.4743C9.67059 15.1443 8.60067 15.5075 7.5 15.5075C6.39933 15.5075 5.32941 15.1443 4.45619 14.4743C3.58297 13.8042 2.95525 12.8648 2.67037 11.8016C2.3855 10.7384 2.45939 9.61099 2.8806 8.5941C3.30181 7.57721 4.04679 6.72773 5 6.17739V2.45889C3.54043 2.97097 2.27567 3.92326 1.38013 5.18445C0.484591 6.44563 0.00238329 7.95359 0 9.50039C0.000373638 10.7551 0.31934 11.9892 0.927 13.0869C1.80279 14.6092 2.10767 16.3937 1.787 18.1204L1.0185 22.4124C1.00564 22.4843 1.0087 22.5582 1.02749 22.6289C1.04627 22.6995 1.08032 22.7652 1.12723 22.8213C1.17413 22.8773 1.23276 22.9224 1.29898 22.9534C1.3652 22.9843 1.4374 23.0004 1.5105 23.0004H7.5C7.62216 23.0004 7.74011 22.9558 7.83158 22.8748C7.92306 22.7938 7.98172 22.6822 7.9965 22.5609L8.3565 19.6109C8.437 19.6399 8.5155 19.6674 8.593 19.6929L9.9335 20.1349C10.2532 20.2454 10.5893 20.3009 10.9275 20.2989C11.6118 20.2994 12.2768 20.0714 12.8169 19.6512C13.357 19.2309 13.7413 18.6424 13.909 17.9789L14.5835 15.3084L15.55 14.6734C15.7609 14.5344 15.9114 14.3207 15.9712 14.0753C16.0311 13.8298 15.9958 13.5709 15.8725 13.3504Z" fill="#D21F3C"/>
<path d="M7.5 5.5C8.00876 5.49983 8.51457 5.57721 9 5.7295V2C9 1.73478 8.89464 1.48043 8.70711 1.29289C8.51957 1.10536 8.26522 1 8 1H7C6.73478 1 6.48043 1.10536 6.29289 1.29289C6.10536 1.48043 6 1.73478 6 2V5.7295C6.48543 5.57721 6.99124 5.49983 7.5 5.5Z" fill="#D21F3C"/>
<path d="M7.5 11.5C8.05228 11.5 8.5 11.0523 8.5 10.5C8.5 9.94772 8.05228 9.5 7.5 9.5C6.94772 9.5 6.5 9.94772 6.5 10.5C6.5 11.0523 6.94772 11.5 7.5 11.5Z" fill="#D21F3C"/>
<path d="M7.5 6.5C6.70888 6.5 5.93552 6.7346 5.27772 7.17412C4.61992 7.61365 4.10723 8.23836 3.80448 8.96927C3.50173 9.70017 3.42252 10.5044 3.57686 11.2804C3.7312 12.0563 4.11216 12.769 4.67157 13.3284C5.23098 13.8878 5.94372 14.2688 6.71964 14.4231C7.49556 14.5775 8.29983 14.4983 9.03074 14.1955C9.76164 13.8928 10.3864 13.3801 10.8259 12.7223C11.2654 12.0645 11.5 11.2911 11.5 10.5C11.5 9.43913 11.0786 8.42172 10.3284 7.67157C9.57828 6.92143 8.56087 6.5 7.5 6.5ZM7.5 12.5C7.10444 12.5 6.71776 12.3827 6.38886 12.1629C6.05996 11.9432 5.80362 11.6308 5.65224 11.2654C5.50087 10.8999 5.46126 10.4978 5.53843 10.1098C5.6156 9.72186 5.80608 9.36549 6.08579 9.08579C6.36549 8.80608 6.72186 8.6156 7.10982 8.53843C7.49778 8.46126 7.89992 8.50087 8.26537 8.65224C8.63082 8.80362 8.94318 9.05996 9.16294 9.38886C9.3827 9.71776 9.5 10.1044 9.5 10.5C9.5 11.0304 9.28929 11.5391 8.91422 11.9142C8.53914 12.2893 8.03044 12.5 7.5 12.5Z" fill="#D21F3C"/>
<path d="M21.75 19.4992C21.4973 19.4984 21.2456 19.4678 21 19.4082V22.2492C21 22.4481 21.079 22.6389 21.2197 22.7795C21.3603 22.9202 21.5511 22.9992 21.75 22.9992C21.9489 22.9992 22.1397 22.9202 22.2803 22.7795C22.421 22.6389 22.5 22.4481 22.5 22.2492V19.4082C22.2544 19.4678 22.0027 19.4984 21.75 19.4992Z" fill="#D21F3C"/>
<path d="M24 13.25C24 12.0074 22.9926 11 21.75 11C20.5074 11 19.5 12.0074 19.5 13.25V16.25C19.5 17.4926 20.5074 18.5 21.75 18.5C22.9926 18.5 24 17.4926 24 16.25V13.25Z" fill="#D21F3C"/>
</g>
<defs>
<clipPath id="clip0_9132_95884">
<rect width="24" height="24" fill="white"/>
</clipPath>
</defs>
</svg>
