<svg width="24" height="24" viewBox="0 0 24 24" fill="none" xmlns="http://www.w3.org/2000/svg">
<path d="M15.4203 19.3486V20.7062C15.4203 21.4191 14.8394 22 14.1266 22H10.7305C10.0155 22 9.43457 21.4191 9.43457 20.7062V19.3486C9.43457 18.6337 10.0155 18.0527 10.7305 18.0527H14.1266C14.8395 18.0527 15.4203 18.6337 15.4203 19.3486Z" fill="#D21F3C"/>
<path d="M22.8531 8.64746V10.0008C22.8531 10.7136 22.2722 11.2946 21.5572 11.2946H18.1611C17.4462 11.2946 16.8652 10.7136 16.8652 10.0008V8.64746C16.8652 7.93249 17.4462 7.35156 18.1611 7.35156H21.5572C22.2722 7.35156 22.8531 7.93244 22.8531 8.64746Z" fill="#D21F3C"/>
<path d="M22.8531 13.9971V15.3525C22.8531 16.0675 22.2722 16.6484 21.5572 16.6484H18.1611C17.4462 16.6484 16.8652 16.0675 16.8652 15.3525V13.9971C16.8652 13.2821 17.4462 12.7012 18.1611 12.7012H21.5572C22.2722 12.7012 22.8531 13.2821 22.8531 13.9971Z" fill="#D21F3C"/>
<path d="M22.8531 19.3486V20.7062C22.8531 21.4191 22.2722 22 21.5572 22H18.1611C17.4462 22 16.8652 21.4191 16.8652 20.7062V19.3486C16.8652 18.6337 17.4462 18.0527 18.1611 18.0527H21.5572C22.2722 18.0527 22.8531 18.6337 22.8531 19.3486Z" fill="#D21F3C"/>
<path d="M7.98997 19.3486V20.7062C7.98997 21.4191 7.40905 22 6.69408 22H3.29373C2.58088 22 2 21.4191 2 20.7062V19.3486C2 18.6337 2.58092 18.0527 3.29373 18.0527H6.69412C7.40909 18.0527 7.98997 18.6337 7.98997 19.3486Z" fill="#D21F3C"/>
<path d="M15.4203 3.29589V4.64712C15.4203 5.36208 14.8394 5.94301 14.1266 5.94301H10.7305C10.0155 5.94301 9.43457 5.36208 9.43457 4.64712V3.29589C9.43457 2.58092 10.0155 2 10.7305 2H14.1266C14.8395 2 15.4203 2.58092 15.4203 3.29589Z" fill="#D21F3C"/>
<path d="M7.98997 13.9971V15.3525C7.98997 16.0675 7.40905 16.6484 6.69408 16.6484H3.29373C2.58088 16.6484 2 16.0675 2 15.3525V13.9971C2 13.2821 2.58092 12.7012 3.29373 12.7012H6.69412C7.40909 12.7012 7.98997 13.2821 7.98997 13.9971Z" fill="#D21F3C"/>
<path d="M15.4203 8.64746V10.0008C15.4203 10.7136 14.8394 11.2946 14.1266 11.2946H10.7305C10.0155 11.2946 9.43457 10.7136 9.43457 10.0008V8.64746C9.43457 7.93249 10.0155 7.35156 10.7305 7.35156H14.1266C14.8395 7.35156 15.4203 7.93244 15.4203 8.64746Z" fill="#D21F3C"/>
<path d="M15.4203 13.9971V15.3525C15.4203 16.0675 14.8394 16.6484 14.1266 16.6484H10.7305C10.0155 16.6484 9.43457 16.0675 9.43457 15.3525V13.9971C9.43457 13.2821 10.0155 12.7012 10.7305 12.7012H14.1266C14.8395 12.7012 15.4203 13.2821 15.4203 13.9971Z" fill="#D21F3C"/>
</svg>
