<svg width="24" height="24" viewBox="0 0 24 24" fill="none" xmlns="http://www.w3.org/2000/svg">
<path d="M17.4 8.4C18.8911 8.4 20.1 7.19117 20.1 5.7C20.1 4.20883 18.8911 3 17.4 3C15.9088 3 14.7 4.20883 14.7 5.7C14.7 7.19117 15.9088 8.4 17.4 8.4Z" stroke="#B0B0B8" stroke-width="1.5" stroke-linecap="round" stroke-linejoin="round"/>
<path d="M6.5999 14.7008C8.09107 14.7008 9.2999 13.492 9.2999 12.0008C9.2999 10.5096 8.09107 9.30078 6.5999 9.30078C5.10873 9.30078 3.8999 10.5096 3.8999 12.0008C3.8999 13.492 5.10873 14.7008 6.5999 14.7008Z" stroke="#B0B0B8" stroke-width="1.5" stroke-linecap="round" stroke-linejoin="round"/>
<path d="M17.4 21.0016C18.8911 21.0016 20.1 19.7927 20.1 18.3016C20.1 16.8104 18.8911 15.6016 17.4 15.6016C15.9088 15.6016 14.7 16.8104 14.7 18.3016C14.7 19.7927 15.9088 21.0016 17.4 21.0016Z" stroke="#B0B0B8" stroke-width="1.5" stroke-linecap="round" stroke-linejoin="round"/>
<path d="M8.93066 13.3594L15.0777 16.9414" stroke="#B0B0B8" stroke-width="1.5" stroke-linecap="round" stroke-linejoin="round"/>
<path d="M15.0687 7.05859L8.93066 10.6406" stroke="#B0B0B8" stroke-width="1.5" stroke-linecap="round" stroke-linejoin="round"/>
</svg>
