<svg width="80%" height="80%" viewBox="0 0 32 30" fill="none" xmlns="http://www.w3.org/2000/svg">
    <path id="logo" fill-rule="evenodd" clip-rule="evenodd" d="M20.7897 15.1028C17.9807 17.2158 13.2139 20.4577 13.2139 18.1379V9.36776C13.2139 5.43446 18.1473 9.28996 20.9348 11.7822C21.9361 12.6769 21.8614 14.2974 20.7897 15.1028ZM29.7486 4.87132C28.1024 1.90609 23.5759 0 15.3475 0C12.0636 0 5.13357 1.36415 2.79779 3.60088C-0.835548 7.07888 -0.493769 17.5792 1.35768 20.5444C3.20913 23.5096 6.91289 24.7801 10.6149 25.8401C14.3187 26.8983 21.5192 29.8635 21.5192 29.8635L19.8739 26.2635C19.8739 26.2635 25.6343 26.0514 29.7486 21.1801C33.8628 16.3087 31.3939 7.83654 29.7486 4.87132Z" fill="currentColor"/>
</svg>
