<svg width="48" height="48" viewBox="0 0 48 48" fill="none" xmlns="http://www.w3.org/2000/svg">
<path d="M24 48C37.2548 48 48 37.2548 48 24C48 10.7452 37.2548 0 24 0C10.7452 0 0 10.7452 0 24C0 37.2548 10.7452 48 24 48Z" fill="white"/>
<path d="M14.8574 33.2411V38.3639L19.6475 35.6407C20.9827 36.0255 22.4021 36.2332 23.8727 36.2332C31.7557 36.2332 38.1452 30.2706 38.1452 22.9164C38.1452 15.5617 31.7557 9.59961 23.8727 9.59961C15.9901 9.59961 9.6001 15.5617 9.6001 22.9164C9.6001 27.081 11.649 30.7995 14.8574 33.2411Z" fill="url(#paint0_linear_1214_78318)"/>
<path d="M22.3485 19.2695L14.6514 27.4192L21.6564 23.5758L25.3164 27.4192L32.9701 19.2695L26.0428 23.0456L22.3485 19.2695Z" fill="white"/>
<defs>
<linearGradient id="paint0_linear_1214_78318" x1="11.1929" y1="11.5441" x2="11.1929" y2="37.0983" gradientUnits="userSpaceOnUse">
<stop stop-color="#00C6FF"/>
<stop offset="1" stop-color="#0068FF"/>
</linearGradient>
</defs>
</svg>
