<svg width="25" height="24" viewBox="0 0 25 24" fill="none" xmlns="http://www.w3.org/2000/svg">
<path d="M12.8751 20.25H4.97194C4.87679 20.2513 4.78236 20.2334 4.6942 20.1976C4.60605 20.1618 4.52597 20.1087 4.45869 20.0414C4.3914 19.9741 4.33828 19.894 4.30244 19.8059C4.26661 19.7177 4.2488 19.6233 4.25006 19.5281V11.625C4.25006 9.33751 5.15877 7.14371 6.77627 5.5262C8.39377 3.9087 10.5876 3 12.8751 3V3C14.0077 3 15.1293 3.22309 16.1757 3.65654C17.2221 4.08999 18.173 4.7253 18.9739 5.5262C19.7748 6.32711 20.4101 7.27792 20.8435 8.32436C21.277 9.37079 21.5001 10.4923 21.5001 11.625V11.625C21.5001 12.7577 21.277 13.8792 20.8435 14.9256C20.4101 15.9721 19.7748 16.9229 18.9739 17.7238C18.173 18.5247 17.2221 19.16 16.1757 19.5935C15.1293 20.0269 14.0077 20.25 12.8751 20.25V20.25Z" stroke="currentColor" stroke-width="1.5" stroke-linecap="round" stroke-linejoin="round"/>
<path d="M12.875 13.125C13.4963 13.125 14 12.6213 14 12C14 11.3787 13.4963 10.875 12.875 10.875C12.2537 10.875 11.75 11.3787 11.75 12C11.75 12.6213 12.2537 13.125 12.875 13.125Z" fill="currentColor"/>
<path d="M8.375 13.125C8.99632 13.125 9.5 12.6213 9.5 12C9.5 11.3787 8.99632 10.875 8.375 10.875C7.75368 10.875 7.25 11.3787 7.25 12C7.25 12.6213 7.75368 13.125 8.375 13.125Z" fill="currentColor"/>
<path d="M17.375 13.125C17.9963 13.125 18.5 12.6213 18.5 12C18.5 11.3787 17.9963 10.875 17.375 10.875C16.7537 10.875 16.25 11.3787 16.25 12C16.25 12.6213 16.7537 13.125 17.375 13.125Z" fill="currentColor"/>
</svg>
