<svg width="24" height="24" viewBox="0 0 24 24" fill="#fff" xmlns="http://www.w3.org/2000/svg">
<path fill-rule="evenodd" clip-rule="evenodd" d="M12.375 3.75C10.2864 3.75 8.28338 4.57968 6.80654 6.05653C5.32969 7.53338 4.5 9.53642 4.5 11.625V19.5H12.375C13.4092 19.5 14.4332 19.2963 15.3886 18.9006C16.3441 18.5048 17.2122 17.9247 17.9435 17.1935C18.6747 16.4622 19.2548 15.5941 19.6506 14.6386C20.0463 13.6832 20.25 12.6592 20.25 11.625C20.25 10.5908 20.0463 9.56681 19.6506 8.61137C19.2548 7.65593 18.6747 6.7878 17.9435 6.05653C17.2122 5.32527 16.3441 4.7452 15.3886 4.34945C14.4332 3.95369 13.4092 3.75 12.375 3.75ZM12.375 21H4.47606C4.2827 21.0018 4.09089 20.9652 3.91173 20.8924C3.73078 20.8189 3.56641 20.7098 3.4283 20.5717C3.29019 20.4336 3.18114 20.2692 3.10759 20.0883C3.03477 19.9091 2.99821 19.7174 3 19.524V11.625C3 9.1386 3.98772 6.75403 5.74588 4.99587C7.50403 3.23772 9.8886 2.25 12.375 2.25C13.6061 2.25 14.8252 2.49249 15.9627 2.96363C17.1001 3.43477 18.1336 4.12532 19.0041 4.99587C19.8747 5.86642 20.5652 6.89991 21.0364 8.03734C21.5075 9.17477 21.75 10.3939 21.75 11.625C21.75 12.8561 21.5075 14.0752 21.0364 15.2127C20.5652 16.3501 19.8747 17.3836 19.0041 18.2541C18.1336 19.1247 17.1001 19.8152 15.9627 20.2864C14.8252 20.7575 13.6061 21 12.375 21Z"/>
<path fill-rule="evenodd" clip-rule="evenodd" d="M4.47188 20.25H12.375C13.5077 20.25 14.6292 20.0269 15.6756 19.5935C16.7221 19.16 17.6729 18.5247 18.4738 17.7238C19.2747 16.9229 19.91 15.9721 20.3435 14.9256C20.7769 13.8792 21 12.7577 21 11.625C21 10.4923 20.7769 9.37079 20.3435 8.32436C19.91 7.27792 19.2747 6.32711 18.4738 5.5262C17.6729 4.7253 16.7221 4.08999 15.6756 3.65654C14.6292 3.22309 13.5077 3 12.375 3C10.0875 3 7.89371 3.9087 6.27621 5.5262C4.6587 7.14371 3.75 9.33751 3.75 11.625V19.5281C3.74874 19.6233 3.76655 19.7177 3.80238 19.8059C3.83821 19.894 3.89134 19.9741 3.95863 20.0414C4.02591 20.1087 4.10599 20.1618 4.19414 20.1976C4.28229 20.2334 4.37673 20.2513 4.47188 20.25ZM7.875 10.625C7.11561 10.625 6.5 11.2406 6.5 12C6.5 12.7594 7.11561 13.375 7.875 13.375C8.63439 13.375 9.25 12.7594 9.25 12C9.25 11.2406 8.63439 10.625 7.875 10.625ZM12.375 10.625C11.6156 10.625 11 11.2406 11 12C11 12.7594 11.6156 13.375 12.375 13.375C13.1344 13.375 13.75 12.7594 13.75 12C13.75 11.2406 13.1344 10.625 12.375 10.625ZM15.5 12C15.5 11.2406 16.1156 10.625 16.875 10.625C17.6344 10.625 18.25 11.2406 18.25 12C18.25 12.7594 17.6344 13.375 16.875 13.375C16.1156 13.375 15.5 12.7594 15.5 12Z"/>
</svg>
