<svg width="24" height="24" viewBox="0 0 24 24" fill="none" xmlns="http://www.w3.org/2000/svg">
    <path d="M12 5C11.1716 5 10.5 5.66435 10.5 6.48387C10.5 7.30339 11.1716 7.96774 12 7.96774C12.8284 7.96774 13.5 7.30339 13.5 6.48387C13.5 5.66435 12.8284 5 12 5Z" fill="currentColor" />
    <path d="M12 10.5161C11.1716 10.5161 10.5 11.1805 10.5 12C10.5 12.8195 11.1716 13.4839 12 13.4839C12.8284 13.4839 13.5 12.8195 13.5 12C13.5 11.1805 12.8284 10.5161 12 10.5161Z" fill="currentColor" />
    <path d="M12 16.0323C11.1716 16.0323 10.5 16.6966 10.5 17.5161C10.5 18.3356 11.1716 19 12 19C12.8284 19 13.5 18.3356 13.5 17.5161C13.5 16.6966 12.8284 16.0323 12 16.0323Z" fill="currentColor" />
</svg>