<svg width="64" height="64" viewBox="0 0 64 64" fill="none" xmlns="http://www.w3.org/2000/svg">
<circle cx="32" cy="32" r="32" fill="currentColor"/>
<path d="M46.5362 23.0566C44.7365 19.9791 39.7857 18 30.7853 18C27.1935 18 19.6142 19.4166 17.0599 21.7377C13.0865 25.3484 13.4596 36.2488 15.4851 39.3264C17.5105 42.4039 21.5607 43.7235 25.611 44.8227C29.6612 45.9218 37.5366 49 37.5366 49L35.7368 45.2623C35.7368 45.2623 42.0375 45.0425 46.5376 39.9858C51.0378 34.9292 48.3367 26.1349 46.5362 23.0566ZM36.7387 33.6778C33.6653 35.8713 28.4525 39.2363 28.4525 36.8284C28.4525 33.4143 28.4525 27.7242 28.4525 27.7242C28.4525 23.6417 33.8483 27.6436 36.8973 30.2303C37.9929 31.1601 37.9104 32.8416 36.7387 33.6778Z" fill="white"/>
</svg>
