<svg width="24" height="24" viewBox="0 0 24 24" fill="none" xmlns="http://www.w3.org/2000/svg">
<g clip-path="url(#clip0_2049_97697)">
<path fill-rule="evenodd" clip-rule="evenodd" d="M14.5311 12.1031C12.838 13.3767 9.96479 15.3308 9.96479 13.9325V8.64637C9.96479 6.27561 12.9384 8.59948 14.6185 10.1017C15.2221 10.6409 15.177 11.6177 14.5311 12.1031ZM19.9307 5.93614C18.9385 4.14888 16.2102 3 11.2505 3C9.27125 3 5.09422 3.82223 3.68634 5.1704C1.49638 7.26673 1.70238 13.5957 2.81833 15.383C3.93427 17.1702 6.16668 17.936 8.39806 18.5749C10.6305 19.2127 14.9705 21 14.9705 21L13.9788 18.8301C13.9788 18.8301 17.4509 18.7022 19.9307 15.7661C22.4105 12.83 20.9224 7.72341 19.9307 5.93614Z" stroke="#B0B0B8" stroke-width="1.5" stroke-linejoin="round"/>
</g>
<defs>
<clipPath id="clip0_2049_97697">
<rect width="24" height="24" fill="currentColor"/>
</clipPath>
</defs>
</svg>
