<svg width="20" height="20" viewBox="0 0 20 20" fill="none" xmlns="http://www.w3.org/2000/svg">
<g clip-path="url(#clip0_2049_99021)">
<path d="M9.99984 18.3307C14.6022 18.3307 18.3332 14.5998 18.3332 9.9974C18.3332 5.39502 14.6022 1.66406 9.99984 1.66406C5.39746 1.66406 1.6665 5.39502 1.6665 9.9974C1.6665 14.5998 5.39746 18.3307 9.99984 18.3307Z" stroke="#8A8B93" stroke-width="1.5" stroke-linecap="round" stroke-linejoin="round"/>
<path d="M7.57471 7.49852C7.77063 6.94158 8.15733 6.47194 8.66634 6.1728C9.17534 5.87365 9.77379 5.7643 10.3557 5.86411C10.9376 5.96393 11.4654 6.26646 11.8456 6.71813C12.2258 7.1698 12.4339 7.74146 12.433 8.33185C12.433 9.99852 9.93304 10.8319 9.93304 10.8319" stroke="#8A8B93" stroke-width="1.5" stroke-linecap="round" stroke-linejoin="round"/>
<path d="M10 14.1641H10.0083" stroke="#8A8B93" stroke-width="1.5" stroke-linecap="round" stroke-linejoin="round"/>
</g>
<defs>
<clipPath id="clip0_2049_99021">
<rect width="20" height="20" fill="white"/>
</clipPath>
</defs>
</svg>
