<svg width="12" height="12" viewBox="0 0 12 12" fill="none" xmlns="http://www.w3.org/2000/svg">
  <path d="M7.39628 1.11565C7.73263 0.780333 8.69584 1.19889 9.54836 2.0516C10.4009 2.90441 10.82 3.86795 10.484 4.20362C10.4671 4.22063 8.06711 5.98059 6.86369 6.86283C7.42717 7.65319 7.66739 8.33008 7.41667 8.58078C7.34962 8.64781 7.25218 8.68 7.12979 8.68C6.58335 8.68 5.54525 8.03952 4.55271 7.04702C3.33818 5.83253 2.65135 4.55042 3.0192 4.18321C3.086 4.1158 3.18394 4.08395 3.30608 4.08395C3.64021 4.08369 4.15861 4.32477 4.73665 4.73674C4.79911 4.65157 4.86596 4.56041 4.93628 4.46451C5.85933 3.20578 7.3802 1.13182 7.39628 1.11565Z" fill="currentColor"/>
  <path d="M1.05032 10.2354L3.5789 7.14401C3.71436 7.29548 3.85603 7.44659 4.0043 7.59481C4.14595 7.73659 4.29801 7.8796 4.456 8.02032L1.3641 10.5495C1.26888 10.6277 1.12809 10.6135 1.05032 10.5179C0.981971 10.4345 0.984497 10.316 1.05032 10.2354Z" fill="currentColor"/>
</svg>  