<svg width="24" height="24" viewBox="0 0 24 24" fill="none" xmlns="http://www.w3.org/2000/svg">
    <path
        d="M14.4358 3.22194C12.9942 2.88636 11.4934 2.93196 10.0736 3.35449C8.65821 3.77568 7.36923 4.55773 6.32608 5.62802L5.60061 6.32936L3.93122 4.61186C3.69115 4.36486 3.33387 4.28305 3.01463 4.40196C2.69539 4.52087 2.47184 4.81904 2.4411 5.1669L2.00403 10.1132C2.00245 10.1301 2.00134 10.147 2.00069 10.1639C2.00031 10.1737 2.00009 10.1834 2.00002 10.1932C1.99998 10.1986 1.99999 10.2041 2.00005 10.2096C2.00235 10.4273 2.08098 10.6448 2.23734 10.816C2.39182 10.9851 2.59484 11.0792 2.80326 11.0968C2.82893 11.0989 2.85469 11.0999 2.88045 11.0998C2.90801 11.0996 2.93556 11.0981 2.96302 11.0953L7.76672 10.646C8.10484 10.6144 8.39465 10.3844 8.51023 10.0559C8.62581 9.72749 8.54629 9.35991 8.30621 9.11292L6.83865 7.60307L7.53417 6.93068C7.54084 6.92424 7.5474 6.91769 7.55387 6.91103C8.38978 6.0506 9.42393 5.42205 10.5598 5.08402C11.6957 4.74599 12.8963 4.70951 14.0496 4.97798C15.2029 5.24645 16.2713 5.81112 17.1552 6.6193C18.039 7.42748 18.7094 8.45282 19.1039 9.59967C19.2651 10.0684 19.7651 10.3139 20.2206 10.148C20.6762 9.98215 20.9148 9.46775 20.7536 8.99905C20.2605 7.5655 19.4225 6.28381 18.3177 5.27359C17.213 4.26337 15.8775 3.55753 14.4358 3.22194Z"
        fill="currentColor" />
    <path
        d="M22.737 13.1571C22.7393 13.1593 22.7415 13.1616 22.7437 13.1639C22.7602 13.1808 22.7759 13.1983 22.7908 13.2164C22.916 13.3671 22.9846 13.5495 22.9977 13.7349C23.0011 13.7835 23.0008 13.8326 22.9964 13.8819L22.5589 18.8331C22.5282 19.181 22.3046 19.4791 21.9854 19.598C21.6661 19.717 21.3089 19.6351 21.0688 19.3881L19.3994 17.6706L18.6739 18.372C17.6307 19.4423 16.3418 20.2243 14.9264 20.6455C13.5065 21.068 12.0058 21.1136 10.5641 20.7781C9.12251 20.4425 7.78701 19.7366 6.68224 18.7264C5.57747 17.7162 4.73945 16.4345 4.24637 15.0009C4.08516 14.5323 4.32379 14.0178 4.77935 13.852C5.23492 13.6861 5.73491 13.9316 5.89612 14.4003C6.29059 15.5472 6.961 16.5725 7.84482 17.3807C8.72863 18.1889 9.79704 18.7535 10.9503 19.022C12.1036 19.2905 13.3043 19.254 14.4401 18.916C15.576 18.578 16.6102 17.9494 17.4461 17.089L17.4579 17.0771L17.4658 17.0693L18.1613 16.3969L16.6938 14.8871C16.4537 14.6401 16.3742 14.2725 16.4898 13.9441C16.6053 13.6156 16.8952 13.3856 17.2333 13.354L22.0366 12.9048C22.0661 12.9017 22.0956 12.9002 22.1252 12.9002C22.1494 12.9002 22.1737 12.9013 22.1979 12.9033C22.3946 12.9202 22.5864 13.0052 22.737 13.1571Z"
        fill="currentColor" />
</svg>