<svg width="24" height="24" viewBox="0 0 24 24" fill="none"
    xmlns="http://www.w3.org/2000/svg">
    <path fill-rule="evenodd" clip-rule="evenodd" d="M17.1818 2.18182C16.9063 1.97522 16.5378 1.94199 16.2298 2.09598C15.9218 2.24997 15.7273 2.56476 15.7273 2.9091V4.72728H7.54545C6.33992 4.72728 5.18377 5.20617 4.33133 6.05861C3.47889 6.91105 3 8.0672 3 9.27273V11.0909C3 11.593 3.40701 12 3.90909 12C4.41117 12 4.81818 11.593 4.81818 11.0909V9.27273C4.81818 8.54941 5.10552 7.85572 5.61698 7.34426C6.12844 6.8328 6.82213 6.54546 7.54545 6.54546H15.7273V8.36364C15.7273 8.70798 15.9218 9.02276 16.2298 9.17675C16.5378 9.33075 16.9063 9.29751 17.1818 9.09091L20.8096 6.37007C20.8282 6.35643 20.8463 6.34208 20.8638 6.32709C20.903 6.29354 20.939 6.25695 20.9716 6.21781C21.106 6.05619 21.1818 5.85097 21.1818 5.63637C21.1818 5.36869 21.0661 5.12803 20.882 4.96166C20.859 4.94086 20.8349 4.92121 20.8098 4.90282L17.1818 2.18182ZM7.95201 14.8232C8.25999 14.9772 8.45454 15.292 8.45454 15.6364V17.4545H16.6364C17.3597 17.4545 18.0534 17.1672 18.5648 16.6557C19.0763 16.1443 19.3636 15.4506 19.3636 14.7273V12.9091C19.3636 12.407 19.7706 12 20.2727 12C20.7748 12 21.1818 12.407 21.1818 12.9091V14.7273C21.1818 15.9328 20.7029 17.089 19.8505 17.9414C18.998 18.7938 17.8419 19.2727 16.6364 19.2727H8.45454V21.0909C8.45454 21.4352 8.25999 21.75 7.95201 21.904C7.64402 22.058 7.27547 22.0248 7 21.8182L3.37208 19.0972C3.34608 19.0782 3.32113 19.0578 3.29734 19.0361C3.27291 19.0139 3.24981 18.9904 3.22812 18.9659C3.08251 18.8013 3 18.5876 3 18.3636C3 18.1332 3.08574 17.9228 3.22705 17.7626C3.24978 17.7368 3.27406 17.7122 3.2998 17.6889C3.32284 17.6681 3.34695 17.6485 3.37203 17.6301L7 14.9091C7.27547 14.7025 7.64402 14.6693 7.95201 14.8232Z" fill="currentColor"/>
</svg>
