<svg width="12" height="13" viewBox="0 0 12 13" fill="none" xmlns="http://www.w3.org/2000/svg">
<path d="M5.46539 2.97171C5.46539 2.78093 5.35046 2.60893 5.1742 2.53592C4.99794 2.46291 4.79506 2.50327 4.66015 2.63817L1.13816 6.16017C0.953948 6.34438 0.953948 6.64304 1.13816 6.82725L4.66015 10.3492C4.79506 10.4841 4.99794 10.5245 5.1742 10.4515C5.35046 10.3785 5.46539 10.2065 5.46539 10.0157V8.43475C7.60158 8.52974 9.06921 9.28771 10.1444 10.793C10.2737 10.974 10.5117 11.0401 10.7158 10.9517C10.9198 10.8633 11.0344 10.6444 10.9908 10.4263C10.7282 9.11321 10.1978 7.77163 9.24803 6.68623C8.36177 5.67336 7.12849 4.90508 5.46539 4.58507V2.97171Z" fill="currentColor"/>
</svg>
