<svg width="24" height="24" viewBox="0 0 24 24" fill="none" xmlns="http://www.w3.org/2000/svg">
<path fill-rule="evenodd" clip-rule="evenodd" d="M18.5477 8.69425C18.3934 8.34854 18.2111 8.01736 18.0028 7.70434L18.0461 5.00706C17.0956 4.09758 15.9682 3.41585 14.7419 3.00908L12.5449 4.38951C12.1821 4.36226 11.8179 4.36226 11.4551 4.38951L9.24943 3C8.02705 3.41431 6.90335 4.09868 5.95393 5.00706L5.99718 7.70434C5.78894 8.01736 5.60663 8.34854 5.45225 8.69425L3.20336 10.002C2.92933 11.3188 2.93228 12.6825 3.21201 13.998L5.45225 15.3058C5.60848 15.6533 5.79069 15.9874 5.99718 16.3047L5.95393 18.9929C6.90443 19.9024 8.03183 20.5842 9.25808 20.9909L11.4551 19.6105C11.8179 19.6377 12.1821 19.6377 12.5449 19.6105L14.7506 21C15.9729 20.5857 17.0966 19.9013 18.0461 18.9929L18.0028 16.2957C18.2111 15.9826 18.3934 15.6515 18.5477 15.3058L20.7966 13.998C21.0707 12.6812 21.0677 11.3175 20.788 10.002L18.5477 8.69425ZM16.05 12C16.05 14.2367 14.2367 16.05 12 16.05C9.7632 16.05 7.94995 14.2367 7.94995 12C7.94995 9.7632 9.7632 7.94995 12 7.94995C14.2367 7.94995 16.05 9.7632 16.05 12Z" fill="white" stroke="white" stroke-width="1.5" stroke-linecap="round" stroke-linejoin="round"/>
</svg>
