<svg width="24" height="24" viewBox="0 0 24 24" fill="none" xmlns="http://www.w3.org/2000/svg">
    <path d="M12 15C13.6569 15 15 13.6569 15 12C15 10.3431 13.6569 9 12 9C10.3431 9 9 10.3431 9 12C9 13.6569 10.3431 15 12 15Z" stroke="currentColor" stroke-width="1.5" stroke-linecap="round" stroke-linejoin="round" />
    <path d="M18.0028 7.70434C18.2111 8.01736 18.3934 8.34854 18.5477 8.69425L20.788 10.002C21.0677 11.3175 21.0707 12.6812 20.7966 13.998L18.5477 15.3058C18.3934 15.6515 18.2111 15.9826 18.0028 16.2957L18.0461 18.9929C17.0966 19.9013 15.973 20.5857 14.7506 21L12.5449 19.6105C12.1821 19.6377 11.8179 19.6377 11.4551 19.6105L9.25808 20.9909C8.03183 20.5841 6.90443 19.9024 5.95393 18.9929L5.99718 16.3047C5.79069 15.9874 5.60848 15.6533 5.45225 15.3058L3.21201 13.998C2.93228 12.6825 2.92933 11.3188 3.20336 10.002L5.45225 8.69425C5.60663 8.34854 5.78894 8.01736 5.99718 7.70434L5.95393 5.00706C6.90335 4.09868 8.02705 3.41431 9.24943 3L11.4551 4.38951C11.8179 4.36226 12.1821 4.36226 12.5449 4.38951L14.7419 3.00908C15.9682 3.41585 17.0956 4.09758 18.0461 5.00706L18.0028 7.70434Z" stroke="currentColor" stroke-width="1.5" stroke-linecap="round" stroke-linejoin="round" />
</svg>