<svg width="25" height="24" viewBox="0 0 25 24" fill="none" xmlns="http://www.w3.org/2000/svg">
<path d="M14.5761 2.61732C14.7309 2.24364 15.0956 2 15.5 2H20.5C21.0523 2 21.5 2.44772 21.5 3V8C21.5 8.40446 21.2564 8.7691 20.8827 8.92388C20.509 9.07866 20.0789 8.9931 19.7929 8.70711L18 6.9142L4.20711 20.7071C3.81658 21.0976 3.18342 21.0976 2.79289 20.7071C2.40237 20.3166 2.40237 19.6834 2.79289 19.2929L16.5858 5.49998L14.7929 3.70711C14.5069 3.42111 14.4214 2.99099 14.5761 2.61732Z" fill="currentColor"/>
<path d="M13.7929 14.2929C13.4024 14.6834 13.4024 15.3166 13.7929 15.7071L16.5858 18.5L14.7929 20.2929C14.5069 20.5789 14.4214 21.009 14.5761 21.3827C14.7309 21.7564 15.0956 22 15.5 22H20.5C21.0523 22 21.5 21.5523 21.5 21V16C21.5 15.5955 21.2564 15.2309 20.8827 15.0761C20.509 14.9213 20.0789 15.0069 19.7929 15.2929L18 17.0858L15.2071 14.2929C14.8166 13.9024 14.1834 13.9024 13.7929 14.2929Z" fill="currentColor"/>
<path d="M4.20711 3.29289C3.81658 2.90237 3.18342 2.90237 2.79289 3.29289C2.40237 3.68342 2.40237 4.31658 2.79289 4.70711L7.79289 9.70711C8.18342 10.0976 8.81658 10.0976 9.20711 9.70711C9.59763 9.31658 9.59763 8.68342 9.20711 8.29289L4.20711 3.29289Z" fill="currentColor"/>
</svg>
