<svg width="24" height="24" viewBox="0 0 24 24" fill="none" xmlns="http://www.w3.org/2000/svg">
<path fill-rule="evenodd" clip-rule="evenodd" d="M8.09756 2C8.77108 2 9.31707 2.54599 9.31707 3.21951V6.14634C9.31707 6.98727 8.98302 7.79376 8.38839 8.38839C7.79376 8.98302 6.98727 9.31707 6.14634 9.31707H3.21951C2.54599 9.31707 2 8.77108 2 8.09756C2 7.42404 2.54599 6.87805 3.21951 6.87805H6.14634C6.3404 6.87805 6.52652 6.80096 6.66374 6.66374C6.80096 6.52652 6.87805 6.3404 6.87805 6.14634V3.21951C6.87805 2.54599 7.42404 2 8.09756 2ZM15.9024 2C16.576 2 17.122 2.54599 17.122 3.21951V6.14634C17.122 6.3404 17.199 6.52651 17.3363 6.66374C17.4735 6.80096 17.6596 6.87805 17.8537 6.87805H20.7805C21.454 6.87805 22 7.42404 22 8.09756C22 8.77108 21.454 9.31707 20.7805 9.31707H17.8537C17.0127 9.31707 16.2062 8.98302 15.6116 8.38839C15.017 7.79376 14.6829 6.98727 14.6829 6.14634V3.21951C14.6829 2.54599 15.2289 2 15.9024 2ZM2 15.9024C2 15.2289 2.54599 14.6829 3.21951 14.6829H6.14634C6.98727 14.6829 7.79376 15.017 8.38839 15.6116C8.98302 16.2062 9.31707 17.0127 9.31707 17.8537V20.7805C9.31707 21.454 8.77108 22 8.09756 22C7.42404 22 6.87805 21.454 6.87805 20.7805V17.8537C6.87805 17.6596 6.80096 17.4735 6.66374 17.3363C6.52651 17.199 6.3404 17.122 6.14634 17.122H3.21951C2.54599 17.122 2 16.576 2 15.9024ZM17.8537 17.122C17.6596 17.122 17.4735 17.199 17.3363 17.3363C17.199 17.4735 17.122 17.6596 17.122 17.8537V20.7805C17.122 21.454 16.576 22 15.9024 22C15.2289 22 14.6829 21.454 14.6829 20.7805V17.8537C14.6829 17.0127 15.017 16.2062 15.6116 15.6116C16.2062 15.017 17.0127 14.6829 17.8537 14.6829H20.7805C21.454 14.6829 22 15.2289 22 15.9024C22 16.576 21.454 17.122 20.7805 17.122H17.8537Z" fill="currentColor"/>
</svg>
