<svg width="24" height="24" viewBox="0 0 24 24" fill="none" xmlns="http://www.w3.org/2000/svg">
<g clip-path="url(#clip0_2049_81956)">
<path d="M20.4848 20.4852C25.1711 15.799 25.1711 8.20105 20.4848 3.5148C15.7986 -1.17144 8.20068 -1.17144 3.51444 3.5148C-1.17181 8.20105 -1.17181 15.799 3.51444 20.4852C8.20068 25.1714 15.7986 25.1714 20.4848 20.4852Z" fill="#00CDB4"/>
<path d="M18.2791 1.75781C19.4724 3.62469 20.1652 5.84282 20.1652 8.21972C20.1652 14.8452 14.7907 20.2197 8.16524 20.2197C5.86532 20.2197 3.71456 19.5702 1.88617 18.4491C4.01768 21.7787 7.75144 23.9872 12 23.9872C18.6255 23.9872 24 18.6127 24 11.9872C24 7.66158 21.7097 3.87008 18.2791 1.75781Z" fill="#00B19C"/>
<path d="M1.63118 13.2668C1.63118 7.11286 6.62075 2.12329 12.7747 2.12329C16.3738 2.12329 19.5686 3.82657 21.6087 6.47293C19.6793 3.13371 16.0754 0.886719 11.9423 0.886719C5.78835 0.886719 0.803589 5.87629 0.803589 12.0303C0.803589 14.5852 1.66486 16.9429 3.11313 18.8242C2.17007 17.1882 1.63118 15.2925 1.63118 13.2668Z" fill="#30E7D1"/>
<path d="M19.4627 10.1287C19.3954 9.92184 19.2221 9.7775 19.0104 9.74863L14.5116 9.09426L12.5004 5.02369C12.4042 4.83123 12.2117 4.71094 11.9952 4.71094C11.7787 4.71094 11.5862 4.83123 11.49 5.02369L9.48838 9.09426L4.99439 9.74863C4.78268 9.7775 4.60466 9.92666 4.54211 10.1336C4.47474 10.3404 4.52767 10.5618 4.68645 10.7109L7.93906 13.8818L7.16921 18.3565C7.13072 18.5682 7.21733 18.7799 7.39535 18.905C7.56857 19.0301 7.79471 19.0494 7.98717 18.9483L12.0048 16.836L16.0225 18.9483C16.1043 18.9916 16.1957 19.0157 16.2823 19.0157C16.3978 19.0157 16.5132 18.9772 16.6143 18.9098C16.7875 18.7847 16.8741 18.573 16.8404 18.3613L16.0706 13.8866L19.3232 10.7158C19.4723 10.557 19.5253 10.3356 19.4627 10.1287Z" fill="white"/>
</g>
<defs>
<clipPath id="clip0_2049_81956">
<rect width="24" height="24" fill="white"/>
</clipPath>
</defs>
</svg>
