<svg width="96" height="96" viewBox="0 0 96 96" fill="none" xmlns="http://www.w3.org/2000/svg">
<circle cx="48" cy="48" r="48" fill="#D9D9D9" fill-opacity="0.15"/>
<path d="M47.0825 27.1157C47.4307 26.3129 48.5693 26.3129 48.9175 27.1157L54.0109 38.8617C54.1558 39.1959 54.4709 39.4248 54.8335 39.4594L67.5786 40.6739C68.4498 40.7569 68.8016 41.8397 68.1456 42.419L58.5485 50.8929C58.2755 51.1339 58.1551 51.5044 58.2343 51.8599L61.0177 64.3565C61.208 65.2106 60.2868 65.8799 59.5332 65.435L48.5084 58.9261C48.1948 58.741 47.8052 58.741 47.4916 58.9261L36.4668 65.435C35.7132 65.8799 34.792 65.2106 34.9823 64.3565L37.7657 51.8599C37.8449 51.5044 37.7245 51.1339 37.4515 50.8929L27.8544 42.419C27.1984 41.8397 27.5502 40.7569 28.4214 40.6739L41.1665 39.4594C41.5291 39.4248 41.8442 39.1959 41.9891 38.8617L47.0825 27.1157Z" fill="#D9D9D9" fill-opacity="0.4" stroke="#D9D9D9" stroke-width="2"/>
</svg>
