<svg width="24" height="24" viewBox="0 0 24 24" fill="none" xmlns="http://www.w3.org/2000/svg">
<g clip-path="url(#clip0_6633_10493)">
<path d="M24 4.55164V4.96546H-2.96795e-05V4.55164C-0.000762101 3.34442 0.478608 2.18628 1.33243 1.33246C2.18625 0.478639 3.34439 -0.000731584 4.55161 8.38058e-07H19.4483C20.6557 -0.000731584 21.8137 0.478639 22.6675 1.33246C23.5213 2.18628 24.0007 3.34442 24 4.55164Z" fill="#9D6342"/>
<path d="M2.89655 11.585L0 4.96429L11.9859 4.34375L24 4.96429L21.1035 11.585H2.89655Z" fill="#643D21"/>
<path d="M4.64227 11.6641L5.98718 10.6016L6.80145 11.2056L7.138 12.3749L4.64227 11.6641Z" fill="#802F34"/>
<path d="M14.4827 11.5859H23.1145C23.3434 11.5861 23.562 11.681 23.7187 11.8478C23.8755 12.0148 23.9562 12.2389 23.9421 12.4674L23.222 23.226C23.1938 23.6603 22.8338 23.9985 22.3985 23.9998H1.60143C1.16619 23.9985 0.806203 23.6603 0.778005 23.226L0.0578513 12.4674C0.0437522 12.2389 0.124685 12.0148 0.28124 11.8478C0.437978 11.681 0.656606 11.5861 0.885488 11.5859H14.4827Z" fill="#F29C1F"/>
<path d="M9.94849 12.1222L9.54199 9.80496L8.85516 8.15719C9.7522 7.96017 10.6679 7.86166 11.5862 7.86331C12.1285 7.86221 12.6702 7.89535 13.2083 7.96273L14.3668 12.1222H9.94849Z" fill="#F3D55B"/>
<path d="M8.76416 10.255L8.51587 11.5875H6.51306L6.07031 11.211V11.2068L6.33105 9.80402L7.67999 9.32812L8.75995 10.255H8.76416Z" fill="#CC4B4C"/>
<path d="M15 8.30182L15.0042 8.28516L15.0496 8.31427L15 8.30182Z" fill="#804537"/>
<path d="M12.8276 14.0696C12.8276 14.5267 12.457 14.8973 12 14.8973C11.543 14.8973 11.1724 14.5267 11.1724 14.0696C11.1724 13.6126 11.543 13.2422 12 13.2422C12.457 13.2422 12.8276 13.6126 12.8276 14.0696Z" fill="#2C2F38"/>
<path d="M9.51727 11.5859V14.8963C9.51727 16.2676 10.6287 17.379 12 17.379C13.3713 17.379 14.4827 16.2676 14.4827 14.8963V11.5859H9.51727ZM12 14.8963C11.543 14.8963 11.1724 14.5257 11.1724 14.0687C11.1724 13.6116 11.543 13.2412 12 13.2412C12.457 13.2412 12.8276 13.6116 12.8276 14.0687C12.8262 14.5251 12.4565 14.895 12 14.8963Z" fill="#F0C419"/>
<path d="M10.1545 16.553H2.81797L2.68138 14.5131C2.67332 14.3984 2.71342 14.2856 2.79179 14.2016C2.87034 14.1176 2.9802 14.0701 3.09519 14.0703H9.51725V14.898C9.51579 15.5099 9.74321 16.1002 10.1545 16.553Z" fill="#B87853"/>
<path d="M21.182 16.5508L21.0165 19.0337H2.98355L2.81802 16.5508H10.1545C10.6234 17.0774 11.2949 17.3784 12 17.3784C12.7052 17.3784 13.3766 17.0774 13.8456 16.5508H21.182Z" fill="#805333"/>
<path d="M21.0165 19.0352L20.8759 21.133C20.8607 21.3502 20.6798 21.5184 20.4621 21.5179H3.53799C3.32028 21.5184 3.13937 21.3502 3.12418 21.133L2.98355 19.0352H21.0165Z" fill="#9D6342"/>
<path d="M21.3186 14.5131L21.182 16.553H13.8455C14.2568 16.1002 14.4842 15.5099 14.4827 14.898V14.0703H20.9048C21.0198 14.0701 21.1296 14.1176 21.2082 14.2016C21.2866 14.2856 21.3267 14.3984 21.3186 14.5131Z" fill="#B87853"/>
<path d="M7.03452 8.38058e-07C5.30069 8.38058e-07 3.77799 0.554444 2.8923 1.65509C2.50449 2.13336 2.24667 2.70337 2.1434 3.31036C2.09268 3.58319 2.06778 3.86041 2.06888 4.138V4.96546H-2.96795e-05V4.55164C-0.000762101 3.34442 0.478608 2.18628 1.33243 1.33246C2.18625 0.478639 3.34439 -0.000731584 4.55161 8.38058e-07H7.03452Z" fill="#F29C1F"/>
<path d="M24 4.55164V4.96546H21.9311V4.138C21.9322 3.86041 21.9073 3.58319 21.8566 3.31036C21.7533 2.70337 21.4955 2.13336 21.1077 1.65509C20.222 0.554444 18.6993 8.38058e-07 16.9655 8.38058e-07H19.4484C20.6558 -0.000731584 21.8138 0.478639 22.6676 1.33246C23.5214 2.18628 24.0008 3.34442 24 4.55164Z" fill="#F29C1F"/>
<path d="M21.9311 4.13623V4.96369H2.06888V4.13623C2.06778 3.85864 2.09269 3.58142 2.14341 3.30859H21.8565C21.9073 3.58142 21.9322 3.85864 21.9311 4.13623Z" fill="#D3926D"/>
<path d="M21.8565 3.31152H2.1434C2.24667 2.70453 2.50449 2.13452 2.8923 1.65625H21.1076C21.4955 2.13452 21.7533 2.70453 21.8565 3.31152Z" fill="#9E6E4B"/>
<path d="M12.0001 16.1396C11.7715 16.1396 11.5862 15.9543 11.5862 15.7258V14.8982C11.5862 14.6697 11.7715 14.4844 12.0001 14.4844C12.2286 14.4844 12.4139 14.6697 12.4139 14.8982V15.7258C12.4139 15.9543 12.2286 16.1396 12.0001 16.1396Z" fill="#2C2F38"/>
<path d="M20.0732 11.2814L18.1698 10.1559L17.6525 8.14062L17.9711 8.32684L19.5517 9.26215L20.0732 11.2814Z" fill="#E64C3C"/>
<path d="M17.0152 7.76196L15.0042 8.28326L13.1006 7.1579L15.1159 6.64062L16.7007 7.57574L17.0152 7.76196Z" fill="#CC4B4C"/>
<path d="M18.1697 10.1534L15.0579 8.31616L15.0496 8.31213L15.0042 8.28302L17.0153 7.76172H17.0193L17.6525 8.13818L18.1697 10.1534Z" fill="#FB7B76"/>
<path d="M15.0042 8.28552L15 8.30219L14.3668 11.5876H13.6882L13.2083 7.96289L13.1006 7.16016L15.0042 8.28552Z" fill="#FF5364"/>
<path d="M18.1698 10.1545L16.4484 11.5862H14.3669L15 8.30078L15.0497 8.31323L15.0579 8.31726L18.1698 10.1545Z" fill="#CC4B4C"/>
<path d="M20.0732 11.2818L19.2869 11.588H16.4484L18.1698 10.1562L20.0732 11.2818Z" fill="#802F34"/>
<path d="M10.5684 9.61719L10.2042 11.5869H8.51593L8.76422 10.2544L10.5684 9.61719Z" fill="#802F34"/>
<path d="M10.5683 9.61737L8.76416 10.2546H8.75995L7.67999 9.3277L8.02753 7.44922L8.85516 8.15674L10.5683 9.61737Z" fill="#E64C3C"/>
<path d="M8.02747 7.44922L7.67993 9.3277L6.33099 9.80359L4.8786 8.56232L8.02747 7.44922Z" fill="#FB7B76"/>
<path d="M6.33105 9.80377L6.07031 11.2065L4.99457 11.5872H4.32001L4.60547 10.0396L4.87866 8.5625L6.33105 9.80377Z" fill="#FF5364"/>
</g>
<defs>
<clipPath id="clip0_6633_10493">
<rect width="24" height="24" fill="white"/>
</clipPath>
</defs>
</svg>
