<svg width="152" height="152" viewBox="0 0 152 152" fill="none"
    xmlns="http://www.w3.org/2000/svg">
    <path fill-rule="evenodd" clip-rule="evenodd" d="M76 151C117.421 151 151 117.421 151 76C151 34.5786 117.421 1 76 1C34.5786 1 1 34.5786 1 76C1 117.421 34.5786 151 76 151Z" stroke="currentColor" stroke-width="2"/>
    <path fill-rule="evenodd" clip-rule="evenodd" d="M75.0351 49.3452C75.6765 48.8173 76.6287 48.9047 77.1613 49.5401L99.2296 70.9436C99.5793 71.2649 99.781 71.7144 99.7872 72.1869C99.7999 73.1402 99.03 73.923 98.068 73.9355H86.4532V86.25C86.4532 87.2857 85.5539 88.4365 84.6247 88.4365H66.7079C65.5296 88.2997 64.5832 87.4092 64.3849 86.25V73.9355H53.9317C53.4546 73.9293 53.0011 73.7296 52.6767 73.3829C52.0227 72.6838 52.0645 71.5915 52.7703 70.9436L74.8384 49.5401C74.8977 49.4692 74.9635 49.404 75.0351 49.3452ZM85.3481 92.555H66.6519C65.6839 92.555 64.899 93.2651 64.899 94.1409C64.899 95.0168 65.6839 95.7267 66.6519 95.7267H85.3481C86.3161 95.7267 87.1009 95.0168 87.1009 94.1409C87.1009 93.2651 86.3161 92.555 85.3481 92.555ZM85.2793 98.9634H66.7203C65.7594 98.9634 64.9804 99.659 64.9804 100.517C64.9804 101.375 65.7594 102.07 66.7203 102.07H85.2793C86.2402 102.07 87.0192 101.375 87.0192 100.517C87.0192 99.659 86.2402 98.9634 85.2793 98.9634Z" fill="currentColor"/>
</svg>
