<svg width="24" height="24" viewBox="0 0 24 24" fill="none" xmlns="http://www.w3.org/2000/svg">
<path d="M15.4999 20V18.3333C15.4999 17.4493 15.1488 16.6014 14.5236 15.9763C13.8985 15.3512 13.0507 15 12.1666 15H6.33332C5.44927 15 4.60142 15.3512 3.97631 15.9763C3.35119 16.6014 3 17.4493 3 18.3333V20" stroke="#B0B0B8" stroke-width="1.5" stroke-linecap="round" stroke-linejoin="round"/>
<path d="M9.25007 11.6666C11.091 11.6666 12.5834 10.1743 12.5834 8.33332C12.5834 6.49238 11.091 5 9.25007 5C7.40913 5 5.91675 6.49238 5.91675 8.33332C5.91675 10.1743 7.40913 11.6666 9.25007 11.6666Z" stroke="#B0B0B8" stroke-width="1.5" stroke-linecap="round" stroke-linejoin="round"/>
<path d="M16.3335 11.6667L18.0002 13.3333L21.3335 10" stroke="#B0B0B8" stroke-width="1.5" stroke-linecap="round" stroke-linejoin="round"/>
</svg>
