<svg width="24" height="24" viewBox="0 0 24 24" fill="none" xmlns="http://www.w3.org/2000/svg">
    <path fill-rule="evenodd" clip-rule="evenodd"
        d="M18.5416 5.32548C18.9141 4.91775 19.5467 4.88923 19.9544 5.26176C21.8922 7.03231 23.0001 9.45379 23.0001 12C23.0001 14.5462 21.8922 16.9677 19.9544 18.7383C19.5467 19.1108 18.9141 19.0823 18.5416 18.6745C18.1691 18.2668 18.1976 17.6343 18.6053 17.2618C20.1511 15.8494 21.0001 13.9545 21.0001 12C21.0001 10.0456 20.1511 8.15063 18.6053 6.73825C18.1976 6.36572 18.1691 5.7332 18.5416 5.32548ZM15.7618 8.32123C16.1343 7.91351 16.7668 7.88498 17.1745 8.25752C18.2414 9.23233 18.8601 10.5747 18.8601 11.9958C18.8601 13.4168 18.2414 14.7592 17.1745 15.734C16.7668 16.1065 16.1343 16.078 15.7618 15.6703C15.3892 15.2626 15.4178 14.6301 15.8255 14.2575C16.5004 13.6409 16.8601 12.825 16.8601 11.9958C16.8601 11.1665 16.5004 10.3507 15.8255 9.73401C15.4178 9.36148 15.3892 8.72895 15.7618 8.32123ZM10.6101 5.41286C11.492 4.53091 13 5.15554 13 6.40281V18.4714C13 19.7187 11.492 20.3433 10.6101 19.4614L6.58579 15.4371H3C2.44772 15.4371 2 14.9894 2 14.4371V10.4371C2 9.88484 2.44772 9.43712 3 9.43712H6.58579L10.6101 5.41286Z"
        fill="white" />
</svg>