<svg width="32" height="32" viewBox="0 0 32 32" fill="none" xmlns="http://www.w3.org/2000/svg">
    <path
        d="M21.566 11.017C21.0223 10.5203 20.179 10.5583 19.6823 11.1019C19.1856 11.6456 19.2236 12.4889 19.7672 12.9856C20.6671 13.8078 21.1468 14.8956 21.1468 16.0013C21.1468 17.107 20.6671 18.1948 19.7672 19.017C19.2236 19.5137 19.1856 20.3571 19.6823 20.9007C20.179 21.4443 21.0223 21.4824 21.566 20.9856C22.9885 19.6859 23.8134 17.896 23.8134 16.0013C23.8134 14.1066 22.9885 12.3167 21.566 11.017Z"
        fill="white" />
    <path
        d="M15.9999 8.53838C15.9999 6.87536 13.9893 6.04251 12.8133 7.21845L7.44763 12.5841H2.66659C1.93021 12.5841 1.33325 13.1811 1.33325 13.9175V19.2508C1.33325 19.9872 1.93021 20.5841 2.66659 20.5841H7.44763L12.8133 25.9498C13.9893 27.1258 15.9999 26.2929 15.9999 24.6299V8.53838Z"
        fill="white" />
</svg>