<svg width="12" height="12" viewBox="0 0 12 12" fill="none" xmlns="http://www.w3.org/2000/svg">
<g clip-path="url(#clip0_1966_92656)">
<path d="M10.2609 3.32803C10.5069 3.90238 10.5671 4.53928 10.4331 5.14956C10.2992 5.75984 9.97769 6.31294 9.51373 6.73143C9.04978 7.14992 8.46657 7.41285 7.84575 7.4834C7.22493 7.55396 6.59759 7.42861 6.05156 7.1249L3.42187 10.1718C3.21053 10.3831 2.92388 10.5019 2.625 10.5019C2.32611 10.5019 2.03947 10.3831 1.82812 10.1718C1.61678 9.96043 1.49805 9.67379 1.49805 9.3749C1.49805 9.07601 1.61678 8.78937 1.82812 8.57803L4.875 5.94834C4.57129 5.4023 4.44594 4.77497 4.51649 4.15415C4.58705 3.53333 4.84998 2.95012 5.26847 2.48616C5.68696 2.02221 6.24006 1.70073 6.85034 1.56675C7.46062 1.43277 8.09752 1.49298 8.67187 1.73896L6.70312 3.70303L6.97031 5.02959L8.29687 5.29678L10.2609 3.32803Z" fill="currentColor" stroke="currentColor" stroke-width="0.5" stroke-linecap="round" stroke-linejoin="round"/>
</g>
<defs>
<clipPath id="clip0_1966_92656">
<rect width="12" height="12" fill="white"/>
</clipPath>
</defs>
</svg>
