<svg width="25" height="24" viewBox="0 0 25 24" fill="none" xmlns="http://www.w3.org/2000/svg">
<g clip-path="url(#clip0_12680_81236)">
<path d="M21.0221 6.6541C21.5141 7.80281 21.6345 9.07661 21.3665 10.2972C21.0986 11.5177 20.4556 12.6239 19.5277 13.4609C18.5998 14.2979 17.4334 14.8237 16.1917 14.9649C14.9501 15.106 13.6954 14.8553 12.6034 14.2478L7.34399 20.3416C6.9213 20.7643 6.34801 21.0018 5.75024 21.0018C5.15247 21.0018 4.57918 20.7643 4.15649 20.3416C3.7338 19.9189 3.49634 19.3456 3.49634 18.7478C3.49634 18.1501 3.7338 17.5768 4.15649 17.1541L10.2502 11.8947C9.64283 10.8027 9.39212 9.54798 9.53323 8.30634C9.67434 7.06471 10.2002 5.89829 11.0372 4.97037C11.8742 4.04246 12.9804 3.39951 14.2009 3.13155C15.4215 2.86358 16.6953 2.98401 17.844 3.47597L13.9065 7.4041L14.4409 10.0572L17.094 10.5916L21.0221 6.6541Z" stroke="currentColor" stroke-width="2" stroke-linecap="round" stroke-linejoin="round"/>
</g>
<defs>
<clipPath id="clip0_12680_81236">
<rect width="24" height="24" fill="currentColor" transform="translate(0.5)"/>
</clipPath>
</defs>
</svg>
