<svg width="48" height="48" viewBox="0 0 48 48" fill="none" xmlns="http://www.w3.org/2000/svg">
<g clip-path="url(#clip0_4771_83482)">
<path d="M8.94078 0.244747C10.5842 -0.0144088 12.2555 -0.0159606 13.916 0.0212833L13.7732 0.153189C11.6006 1.57622 9.79894 3.52997 8.49696 5.77237C5.88678 10.2618 4.9355 15.5706 5.15121 20.7165C5.36536 24.9064 6.37095 29.1197 8.50316 32.7618C8.86009 33.4136 9.45444 33.9893 9.46375 34.7808C9.53048 36.4785 8.69094 38.0784 7.555 39.2919C7.62948 39.3695 7.70242 39.4471 7.77691 39.5247C8.83991 40.6855 9.9743 41.7764 11.0544 42.9217C12.5891 44.6566 14.338 46.1929 15.8418 47.9589C13.3402 47.9961 10.8092 48.1125 8.33712 47.6454C5.2257 47.0418 2.46344 44.8847 1.14438 42.0014C0.345188 40.3348 0.106206 38.471 0.0441326 36.6445C0.0425808 28.2118 0.0425808 19.7807 0.0441326 11.3497C0.0782729 8.53152 0.824704 5.58305 2.80794 3.49273C4.3784 1.72209 6.60217 0.570632 8.94078 0.244747Z" fill="#0068FF"/>
<path d="M31.725 15.7305C32.3908 15.7305 33.0565 15.7305 33.7238 15.7305C33.7129 19.6302 33.7129 23.5315 33.7238 27.4313C33.072 27.3397 31.9873 27.7572 31.7421 26.8897C31.7018 23.1715 31.739 19.4502 31.725 15.7305Z" fill="#0068FF"/>
<path d="M11.3577 15.867C14.4552 15.8639 17.5496 15.8437 20.6455 15.8654C20.6237 16.4722 20.5896 17.1333 20.183 17.6236C18.0663 20.2586 15.9946 22.9278 13.8795 25.5628C16.1281 25.5768 18.3767 25.5675 20.6253 25.5675C20.5834 26.0935 20.7681 26.7065 20.4267 27.1627C20.2125 27.4576 19.8245 27.4312 19.5033 27.4343C16.6898 27.4188 13.8764 27.4483 11.0645 27.4188C11.0722 26.8244 11.0784 26.1665 11.4943 25.6932C13.5862 23.069 15.7029 20.4635 17.7854 17.8331C15.6455 17.8362 13.5039 17.8192 11.364 17.8424C11.35 17.1845 11.3546 16.5249 11.3577 15.867Z" fill="#0068FF"/>
<path d="M38.6781 18.4491C40.9066 17.951 43.3243 19.4144 43.9342 21.6087C44.6992 23.8914 43.3026 26.6055 40.995 27.3008C39.035 27.9913 36.6887 27.0897 35.6722 25.2834C34.8746 23.9488 34.8265 22.2015 35.5512 20.8281C36.1657 19.6161 37.3529 18.73 38.6781 18.4491ZM38.6409 20.4262C37.2815 20.9057 36.549 22.5599 37.0797 23.8961C37.5189 25.1592 38.9978 25.9321 40.2827 25.5441C41.7492 25.1934 42.6353 23.4755 42.1154 22.068C41.6809 20.6745 39.9972 19.8706 38.6409 20.4262Z" fill="#0068FF"/>
<path d="M22.1696 20.0735C23.2419 18.7451 25.1196 18.0903 26.7739 18.5636C27.3201 18.7017 27.8152 18.9748 28.2931 19.265C28.2885 19.1191 28.2776 18.8289 28.273 18.6831C28.8983 18.68 29.5222 18.6815 30.1476 18.6784C30.1445 21.5958 30.1414 24.5133 30.1491 27.4323C29.6898 27.4199 29.2227 27.4742 28.7711 27.3811C28.4545 27.2523 28.3568 26.9062 28.2311 26.6238C26.5054 27.9646 23.7944 27.6604 22.3605 26.0279C20.8319 24.4466 20.7528 21.7526 22.1696 20.0735ZM24.696 20.4646C23.259 20.9705 22.5622 22.8218 23.29 24.1564C23.9108 25.4568 25.6581 26.003 26.9073 25.2861C28.0666 24.6778 28.6019 23.1679 28.1038 21.9605C27.6212 20.6477 25.9933 19.9121 24.696 20.4646Z" fill="#0068FF"/>
<path d="M13.7726 0.152935C14.1202 0.0536182 14.4833 0.0225816 14.8434 0.0117188C21.0491 0.0349962 27.2549 0.00861509 33.4607 0.0194779C35.1196 0.0396517 36.7878 -0.0720801 38.4343 0.180868C40.7139 0.354673 42.9082 1.31991 44.6044 2.84536C46.7335 4.87981 47.8694 7.80967 47.9051 10.7318C47.9067 18.958 47.902 27.1905 47.9098 35.4136C47.888 35.4618 47.8461 35.5611 47.8244 35.6107C45.6131 38.0843 42.6398 39.7588 39.5314 40.8419C35.343 42.2696 30.8567 42.729 26.4542 42.3938C22.0516 42.0151 17.6149 40.8652 13.8812 38.432C11.9725 39.2808 9.86663 39.6967 7.77632 39.5244C7.70183 39.4468 7.62889 39.3693 7.55441 39.2917C8.69035 38.0781 9.52989 36.4782 9.46316 34.7805C9.45385 33.9891 8.8595 33.4133 8.50257 32.7616C6.37036 29.1194 5.36477 24.9062 5.15062 20.7162C4.93492 15.5704 5.88619 10.2616 8.49637 5.77212C9.79835 3.52972 11.6 1.57596 13.7726 0.152935ZM31.7242 15.7287C31.7381 19.4484 31.7009 23.1697 31.7412 26.8879C31.9864 27.7554 33.0712 27.3379 33.7229 27.4295C33.7121 23.5297 33.7121 19.6284 33.7229 15.7287C33.0556 15.7287 32.3899 15.7287 31.7242 15.7287ZM11.3579 15.8668C11.3548 16.5248 11.3502 17.1843 11.3642 17.8423C13.5041 17.819 15.6457 17.8361 17.7856 17.8329C15.7031 20.4633 13.5864 23.0688 11.4945 25.693C11.0786 26.1663 11.0724 26.8243 11.0646 27.4186C13.8766 27.4481 16.69 27.4186 19.5035 27.4341C19.8247 27.431 20.2127 27.4574 20.4268 27.1626C20.7682 26.7063 20.5836 26.0933 20.6255 25.5673C18.3769 25.5673 16.1283 25.5766 13.8797 25.5626C15.9948 22.9276 18.0665 20.2585 20.1832 17.6234C20.5898 17.1331 20.6239 16.472 20.6457 15.8652C17.5498 15.8435 14.4554 15.8637 11.3579 15.8668ZM38.6779 18.449C37.3527 18.7299 36.1655 19.616 35.551 20.828C34.8263 22.2014 34.8744 23.9487 35.672 25.2833C36.6885 27.0896 39.0349 27.9912 40.9948 27.3007C43.3024 26.6054 44.699 23.8913 43.934 21.6086C43.3241 19.4143 40.9064 17.9509 38.6779 18.449ZM22.1695 20.0738C20.7527 21.7529 20.8319 24.4468 22.3604 26.0282C23.7943 27.6607 26.5054 27.9649 28.231 26.6241C28.3567 26.9065 28.4545 27.2526 28.771 27.3814C29.2226 27.4745 29.6897 27.4202 30.1491 27.4326C30.1413 24.5136 30.1444 21.5961 30.1475 18.6787C29.5221 18.6818 28.8983 18.6802 28.2729 18.6833C28.2776 18.8292 28.2884 19.1194 28.2931 19.2653C27.8151 18.9751 27.3201 18.702 26.7738 18.5639C25.1196 18.0905 23.2419 18.7454 22.1695 20.0738Z" fill="white"/>
<path d="M24.6955 20.4667C25.9928 19.9142 27.6207 20.6498 28.1033 21.9626C28.6014 23.17 28.0661 24.6799 26.9068 25.2882C25.6576 26.0052 23.9103 25.4589 23.2895 24.1585C22.5617 22.8239 23.2585 20.9726 24.6955 20.4667Z" fill="white"/>
<path d="M38.6411 20.4275C39.9974 19.8719 41.6811 20.6758 42.1156 22.0693C42.6355 23.4768 41.7494 25.1947 40.2829 25.5454C38.998 25.9334 37.5191 25.1606 37.0799 23.8974C36.5492 22.5613 37.2816 20.907 38.6411 20.4275Z" fill="white"/>
<path d="M47.8255 35.61L47.948 35.4766C48.0117 37.9021 47.7494 40.4331 46.5592 42.5917C45.1749 45.1243 42.6641 47.0051 39.8397 47.6072C38.2553 47.9347 36.6305 48.0076 35.0166 47.9874C30.0523 47.989 25.088 47.9874 20.1237 47.989C18.696 47.9657 17.2652 48.0324 15.8422 47.9579C14.3385 46.192 12.5896 44.6556 11.0548 42.9207C9.97474 41.7754 8.84035 40.6845 7.77734 39.5237C9.86766 39.696 11.9735 39.2801 13.8822 38.4313C17.616 40.8645 22.0526 42.0144 26.4552 42.3931C30.8577 42.7283 35.3441 42.2689 39.5325 40.8412C42.6408 39.7581 45.6141 38.0836 47.8255 35.61Z" fill="#005BE0"/>
</g>
<defs>
<clipPath id="clip0_4771_83482">
<rect width="48" height="48" rx="24" fill="white"/>
</clipPath>
</defs>
</svg>
